<?xml version="1.0" standalone="no"?>
<!DOCTYPE svg PUBLIC "-//W3C//DTD SVG 1.1//EN" "http://www.w3.org/Graphics/SVG/1.1/DTD/svg11.dtd" >
<svg xmlns="http://www.w3.org/2000/svg" xmlns:xlink="http://www.w3.org/1999/xlink" version="1.1">
<metadata></metadata>
<defs>
<font id="globe_scriptregular" horiz-adv-x="645" >
<font-face units-per-em="2048" ascent="1495" descent="-553" />
<missing-glyph horiz-adv-x="362" />
<glyph unicode="&#x2e;&#x2e;&#x2e;" horiz-adv-x="1013" d="M-209 -51q0 71 48.5 122.5t103.5 51.5q44 0 72 -26.5t28 -78.5q0 -75 -44 -125.5t-110 -50.5q-47 0 -72.5 28.5t-25.5 78.5zM129 -14q0 71 48.5 122.5t103.5 51.5q44 0 72 -26.5t28 -78.5q0 -75 -44 -125.5t-110 -50.5q-47 0 -72.5 28.5t-25.5 78.5zM459 -63 q0 71 48 122.5t103 51.5q44 0 72.5 -27t28.5 -78q0 -75 -44 -125.5t-110 -50.5q-47 0 -72.5 28.5t-25.5 78.5z" />
<glyph horiz-adv-x="0" />
<glyph horiz-adv-x="682" />
<glyph unicode=" "  horiz-adv-x="362" />
<glyph unicode="&#x09;" horiz-adv-x="362" />
<glyph unicode="&#xa0;" horiz-adv-x="362" />
<glyph unicode="!" horiz-adv-x="575" d="M-168 -53q0 71 49 123.5t105 52.5q45 0 73.5 -27t28.5 -80q0 -76 -45 -127t-111 -51q-49 0 -74.5 28.5t-25.5 80.5zM96 326q133 274 323 622t345 602l158 -129q-455 -650 -766 -1159z" />
<glyph unicode="&#x22;" horiz-adv-x="495" d="M113 842l268 448l111 -71l-281 -451zM274 725l275 461l113 -74l-289 -463z" />
<glyph unicode="#" horiz-adv-x="1091" d="M-68 379h228l121 196q-28 -1 -84.5 -4t-83.5 -4l-35 121h272l185 297l94 -125l-119 -172h186l238 383l94 -127l-176 -256h145l21 -98q-156 0 -234 -2l-143 -209h184l19 -98q-181 0 -273 -2l-196 -287l-62 76l129 208q-146 -4 -221 -8l-225 -327l-62 73l154 250l-123 -6z M297 379h209l129 207q-67 0 -199 -4z" />
<glyph unicode="$" horiz-adv-x="808" d="M-96 326q170 -56 291 -56q71 0 118 30t47 67q0 30 -23.5 53t-57 41t-67.5 39t-57.5 56t-23.5 81q0 91 88 199t219 184.5t248 83.5l129 203l57 -113l-69 -111q69 -41 69 -137q0 -76 -70.5 -166t-201.5 -176l-108 107q119 77 187.5 141t68.5 94q0 41 -46 41q-54 0 -152 -59 t-177.5 -142.5t-79.5 -142.5q0 -35 23 -64t56 -49t66.5 -41t56.5 -52t23 -70q0 -92 -97 -165t-231 -79l-165 -256l-37 113l92 147q-83 5 -156 29z" />
<glyph unicode="%" horiz-adv-x="1490" d="M66 -166l1187 1507l90 -120l-1222 -1457zM102 672q0 96 43 199.5t111 193.5q80 102 179 163.5t169 61.5q75 0 115.5 -48t40.5 -124q0 -174 -125 -377q-79 -127 -176 -191.5t-187 -64.5q-75 0 -122.5 49t-47.5 138zM229 618q0 -40 39 -40q61 0 228 247q155 234 155 336 q0 21 -7 30t-28 9q-33 0 -90 -52t-125 -157q-91 -137 -131.5 -223t-40.5 -150zM668 35q0 96 42.5 200t110.5 193q80 102 179 163.5t169 61.5q75 0 115.5 -48.5t40.5 -123.5q0 -174 -125 -377q-79 -127 -175.5 -191.5t-186.5 -64.5q-75 0 -122.5 49t-47.5 138zM795 -18 q0 -41 39 -41q60 0 227 247q156 236 156 336q0 21 -7 30t-28 9q-33 0 -90 -52t-125 -157q-91 -137 -131.5 -222.5t-40.5 -149.5z" />
<glyph unicode="&#x26;" horiz-adv-x="1226" d="M-88 147q0 141 154.5 279t402.5 207v4q-40 -6 -80 -6q-85 0 -144 45t-59 119q0 106 84 219.5t208.5 199t274 141.5t275.5 56q163 0 238 -49t75 -125q0 -64 -69.5 -133.5t-170.5 -114.5t-188 -45q-116 0 -116 82q0 35 47 74t107 63.5t100 24.5l18 -88q58 29 96.5 65 t38.5 66q0 63 -129 63q-107 0 -265 -86.5t-276 -204t-118 -198.5q0 -64 100 -64q67 0 141 19l220 55l26 -115l-201 -69q-121 -42 -230.5 -111t-183.5 -143.5t-117.5 -148.5t-43.5 -130q0 -123 119 -123q123 0 250.5 90t240.5 226q-138 -15 -270 -37l-8 123q259 55 647 112 l-2 -170q-64 -2 -217 -14q-230 -369 -441 -788l-94 114q69 142 199 349q-185 -107 -318 -107q-151 0 -236 69t-85 205z" />
<glyph unicode="'" horiz-adv-x="303" d="M96 793l299 497l121 -80l-291 -467z" />
<glyph unicode="(" horiz-adv-x="505" d="M-33 -6q0 472 297 940q145 228 327 402.5t361 271.5l74 -47q-176 -150 -349.5 -356.5t-309.5 -442.5q-269 -466 -269 -875q0 -111 17 -168l-111 19q-37 101 -37 256z" />
<glyph unicode=")" horiz-adv-x="575" d="M-379 -164q173 149 344.5 356t304.5 441q265 464 265 876q0 111 -17 168l111 -18q37 -101 37 -256q0 -251 -76.5 -485t-200.5 -433q-137 -218 -329 -409t-365 -287z" />
<glyph unicode="*" horiz-adv-x="481" d="M-12 997v7l241 47l-53 186l4 4l150 -121l155 205l7 -2l-46 -225l226 24l4 -4l-219 -123l88 -137l-4 -4l-150 47l-67 -217h-9l-45 190l-231 -131l-4 5l170 200z" />
<glyph unicode="+" horiz-adv-x="708" d="M12 537h236l145 235l84 -110l-92 -125h160l20 -97q-164 -4 -250 -8l-155 -211l-62 72l82 133q-47 -4 -133 -8z" />
<glyph unicode="," horiz-adv-x="352" d="M-256 -262q81 85 119 141q-72 16 -72 80q0 62 49 113t107 51q47 0 74.5 -26.5t27.5 -73.5q0 -142 -246 -316z" />
<glyph unicode="-" horiz-adv-x="497" d="M-14 586h338l22 -111q-184 -7 -323 -22z" />
<glyph unicode="." horiz-adv-x="346" d="M-209 -51q0 71 48.5 122.5t103.5 51.5q44 0 72 -26.5t28 -78.5q0 -75 -44 -125.5t-110 -50.5q-47 0 -72.5 28.5t-25.5 78.5z" />
<glyph unicode="/" horiz-adv-x="536" d="M-262 -160l1042 1680l94 -127l-1075 -1629z" />
<glyph unicode="0" horiz-adv-x="1067" d="M-74 141q-3 314 269 686q159 220 327 341.5t305 121.5q125 0 187.5 -80t64.5 -202q2 -160 -62.5 -323.5t-221.5 -389.5q-138 -199 -309 -323t-300 -124q-128 0 -193 81.5t-67 211.5zM68 74q3 -109 96 -109q88 0 214.5 124.5t280.5 369.5q158 246 220.5 376t62.5 234 q-3 111 -86 111q-92 0 -215 -124t-287 -368q-286 -416 -286 -614z" />
<glyph unicode="1" horiz-adv-x="636" d="M-156 -14q114 223 277 490t334 511l-68 60q159 123 299 243l96 -82q-209 -306 -433 -676t-386 -684z" />
<glyph unicode="2" horiz-adv-x="882" d="M-307 -20q43 92 183.5 224t434.5 353q305 227 438.5 352t133.5 207q0 72 -84 72q-94 0 -206 -71t-194 -173l-125 141q76 89 209 147t279 58q116 0 176.5 -54.5t60.5 -145.5q0 -70 -29 -133.5t-104.5 -142.5t-175 -160.5t-270.5 -209.5q-227 -169 -337 -259.5t-167 -155.5 q271 29 541 43l24 -125q-346 -20 -749 -94z" />
<glyph unicode="3" horiz-adv-x="974" d="M-162 137q0 59 20.5 132t49.5 132l190 17q-112 -198 -112 -314q0 -67 33 -104t94 -37q71 0 145 53.5t164 151.5q71 79 114.5 162.5t43.5 144.5q0 38 -23 61t-63 23q-28 0 -95 -18l-47 -15l-33 123l117 41q118 41 233.5 116.5t188 157.5t72.5 140q0 84 -86 84 q-96 0 -209 -70t-193 -170l-120 137q76 90 207.5 147.5t277.5 57.5q119 0 181.5 -60t62.5 -159q0 -142 -127.5 -268.5t-315.5 -196.5q55 -30 83 -82.5t28 -115.5q0 -94 -45 -195t-131 -190q-78 -84 -188.5 -129.5t-227.5 -45.5q-141 0 -215 75.5t-74 213.5z" />
<glyph unicode="4" horiz-adv-x="937" d="M-178 303l1198 987l96 -82q-290 -429 -524 -831q28 1 87 4t89 4l-49 -98q-31 -3 -95.5 -8.5t-95.5 -8.5q-97 -168 -231 -422l-113 132q54 108 150 272q-63 -6 -484 -53zM18 334q222 21 381 31q185 306 404 618z" />
<glyph unicode="5" horiz-adv-x="956" d="M-154 143q0 63 16.5 131.5t45.5 120.5l188 21q-98 -160 -98 -310q0 -67 32.5 -104t86.5 -37q74 0 155 60.5t197 205.5q75 96 120.5 195.5t43.5 161.5q0 53 -19 79.5t-63 26.5q-94 0 -268 -151l-111 114q138 210 274 402l-43 153q381 68 742 78l26 -127q-260 -25 -534 -78 q-110 -161 -207 -311q58 23 100 23q116 0 177 -81t63 -202q0 -100 -46 -214.5t-134 -215.5q-103 -119 -221 -177.5t-232 -58.5q-139 0 -215 80.5t-76 214.5z" />
<glyph unicode="6" horiz-adv-x="970" d="M-51 127q-6 295 239 653q150 220 336 365t326 145q114 0 173.5 -71t59.5 -175q0 -91 -39 -167l-170 -21q70 143 70 254q0 33 -18 52.5t-52 19.5q-97 0 -231 -123.5t-276 -325.5q75 43 139 43q122 0 186 -75t66 -189q0 -96 -34 -207.5t-97 -202.5q-89 -125 -203 -189.5 t-217 -64.5q-128 0 -192 77.5t-66 201.5zM94 68q0 -48 24 -77.5t70 -29.5q50 0 121.5 59.5t159.5 188.5q70 99 112 197t42 163q0 103 -95 103q-87 0 -189.5 -97t-173.5 -240.5t-71 -266.5z" />
<glyph unicode="7" horiz-adv-x="784" d="M-217 6q224 277 476 541.5t589 582.5q-275 -19 -578 -86l-45 170q381 60 779 64l30 -127q-490 -458 -1134 -1303z" />
<glyph unicode="8" horiz-adv-x="948" d="M-154 113q0 177 295 401q156 120 217 164q-45 100 -45 180q0 87 42 168.5t107.5 138t147 91t158.5 34.5q115 0 185.5 -44.5t90.5 -117.5q14 8 43 26t43 26l99 -101q-448 -289 -709 -475q5 -10 33 -65.5t38 -81t22 -79t12 -108.5q0 -92 -44 -172.5t-114 -134t-157 -84.5 t-173 -31q-136 0 -213.5 76.5t-77.5 188.5zM-12 74q0 -53 33.5 -84t93.5 -31q86 0 168.5 59t132 148.5t49.5 177.5q0 91 -37 193q-113 -81 -201 -154q-239 -192 -239 -309zM455 799q0 -28 6 -49q185 129 495 323q0 111 -133 111q-82 0 -170 -64.5t-143 -155t-55 -165.5z" />
<glyph unicode="9" horiz-adv-x="976" d="M-166 113q0 42 11.5 92t27.5 82l188 22q-75 -134 -75 -260q0 -94 88 -94q53 0 113.5 35.5t125 103t124.5 146t130 182.5q-92 -60 -168 -60q-120 0 -181 74.5t-64 188.5q-2 101 27.5 214t92.5 199q88 126 203 189t221 63q131 0 199 -76.5t70 -193.5q3 -301 -244 -670 q-147 -222 -316 -362t-315 -140q-127 0 -192.5 76t-65.5 189zM291 582q0 -55 22 -86t66 -31q67 0 146.5 58t144 145t108 197.5t43.5 207.5q-2 49 -28 77t-78 28q-114 0 -287 -248q-63 -101 -100.5 -194.5t-36.5 -153.5z" />
<glyph unicode=":" horiz-adv-x="505" d="M-209 -51q0 71 48.5 122.5t103.5 51.5q44 0 72 -26.5t28 -78.5q0 -75 -44 -125.5t-110 -50.5q-47 0 -72.5 28.5t-25.5 78.5zM74 475q0 71 48 122.5t103 51.5q44 0 72.5 -26.5t28.5 -77.5q0 -75 -44 -125.5t-110 -50.5q-47 0 -72.5 28t-25.5 78z" />
<glyph unicode=";" horiz-adv-x="505" d="M-256 -262q81 85 119 141q-72 16 -72 80q0 62 49 113t107 51q47 0 74.5 -26.5t27.5 -73.5q0 -142 -246 -316zM74 475q0 71 48 122.5t103 51.5q44 0 72.5 -26.5t28.5 -77.5q0 -75 -44 -125.5t-110 -50.5q-47 0 -72.5 28t-25.5 78z" />
<glyph unicode="&#x3c;" horiz-adv-x="737" d="M-6 416l26 100q409 138 609 232l37 -80q-211 -115 -469 -195q146 -53 282 -139l-73 -107q-202 113 -412 189z" />
<glyph unicode="=" horiz-adv-x="714" d="M20 526l533 25l22 -102l-520 -33zM96 743h533l22 -110q-59 -2 -518 -23z" />
<glyph unicode="&#x3e;" horiz-adv-x="739" d="M-57 299q224 116 471 195q-147 56 -285 139l74 106q209 -112 411 -188l-26 -100q-11 -4 -65 -22.5t-69.5 -24t-64 -22.5t-70 -25t-64 -24t-70 -27t-65.5 -26.5t-72 -30t-68 -30.5z" />
<glyph unicode="?" horiz-adv-x="825" d="M-168 -51q0 71 48.5 122.5t103.5 51.5q44 0 72 -26.5t28 -78.5q0 -75 -44 -125.5t-110 -50.5q-47 0 -72.5 28.5t-25.5 78.5zM90 344q7 84 123 203q29 30 110.5 100t174.5 155t161 159q205 227 205 335q0 44 -24.5 71.5t-75.5 27.5q-89 0 -192.5 -75t-192.5 -185l-139 157 q75 89 204 147t271 58q128 0 205 -83.5t77 -221.5q0 -198 -192 -393q-60 -62 -145 -121.5t-179.5 -119t-146.5 -101.5q-130 -102 -156 -187z" />
<glyph unicode="@" horiz-adv-x="1490" d="M-70 180q0 112 44.5 231.5t119.5 226.5t178 203.5t217 166t239.5 110.5t242.5 41q104 0 185 -31t130 -84.5t73.5 -121.5t24.5 -146t-35 -165t-91 -164t-126.5 -148.5t-140.5 -123t-133 -82t-104 -30.5q-40 0 -69.5 29t-29.5 76q0 57 29 121q-210 -260 -315 -260 q-51 0 -81 37t-30 100q0 104 66.5 230.5t189.5 252.5q92 97 194.5 154t178.5 57q39 0 66 -17.5t36 -49.5q13 14 51 63l105 -96q-152 -206 -237 -350.5t-85 -190.5q0 -18 15 -18q31 0 97.5 57.5t134.5 142t119.5 196t51.5 204.5q0 124 -59.5 191t-182.5 67t-257 -61.5 t-249 -164t-208.5 -227t-147 -260.5t-53.5 -254q0 -127 92 -178q45 -27 105 -37t168 -10q144 0 357.5 53t387.5 129l-41 -186q-127 -49 -312.5 -77t-336.5 -28q-155 0 -258 26t-176 81q-140 101 -140 315zM436 203q0 -31 25 -31q10 0 24.5 9t41 36.5t40 42t53.5 59.5 q11 13 17 19q181 215 252 321l47 66q-2 14 -12 22.5t-25 8.5q-38 0 -99.5 -43.5t-123.5 -112.5q-109 -122 -174.5 -232.5t-65.5 -164.5z" />
<glyph unicode="A" horiz-adv-x="1482" d="M-53 90q0 144 86 327t239 369q154 183 352.5 344.5t392.5 260t326 98.5q68 0 116.5 -35.5t60.5 -95.5l57 69l115 -112l-252 -324q-217 -278 -330 -497.5t-113 -315.5q0 -43 33 -43q37 0 131.5 90.5t176.5 187t153 187.5l53 -63q-41 -57 -86.5 -115.5t-121 -146.5 t-142.5 -153t-141 -113t-127 -48q-55 0 -91 43.5t-36 118.5q0 83 40.5 195.5t114.5 234.5q3 5 2 8.5t-4 3.5l-233 -266q-89 -102 -140.5 -158.5t-120.5 -126t-115 -104.5t-97.5 -59.5t-95.5 -24.5q-95 0 -149 65.5t-54 198.5zM166 98q0 -98 65 -98q54 0 151 87.5t232 240.5 l832 934q4 8 4 20q0 35 -25 57.5t-63 22.5q-83 0 -207 -64.5t-297 -211t-352 -353.5q-175 -201 -257.5 -366.5t-82.5 -268.5z" />
<glyph unicode="B" horiz-adv-x="1314" d="M-160 -10q135 265 334 595.5t424 659.5q-306 -112 -508 -227l-72 149q123 71 304 142.5t422.5 129.5t437.5 58q165 0 243 -66.5t78 -185.5q0 -117 -95 -242.5t-250.5 -229t-342.5 -171.5q119 -24 187.5 -88t68.5 -156q0 -108 -72 -209t-182 -170.5t-241 -111t-250 -41.5 q-213 0 -213 129q0 81 109 149t278 86l67 -92q-170 -28 -256 -65.5t-86 -73.5q0 -13 14.5 -22t39.5 -9q108 0 225.5 47t205.5 115t145.5 146t57.5 139q0 69 -51.5 111t-146.5 42q-99 0 -236 -36l-168 -50q-213 -367 -336 -616zM414 616l137 46q206 68 398 181t308.5 232.5 t116.5 206.5q0 50 -38.5 75t-121.5 25q-141 0 -356 -55q-224 -338 -444 -711z" />
<glyph unicode="C" horiz-adv-x="1124" d="M-25 188q0 133 56 287t148.5 296.5t215.5 276.5t252.5 232.5t264.5 157.5t247 59q98 0 158.5 -56.5t60.5 -150.5q0 -81 -61.5 -190.5t-154 -191t-169.5 -81.5q-39 0 -63.5 21t-24.5 67q0 63 66.5 139.5t122.5 102.5l63 -67q46 54 76.5 113t30.5 89q0 35 -25 55.5 t-74 20.5q-63 0 -161.5 -57t-206.5 -151t-218 -220t-197.5 -257t-142.5 -270.5t-55 -252.5q0 -104 35 -161.5t100 -57.5q54 0 113.5 31.5t107.5 74.5t103.5 111.5t89.5 117.5t78 117l88 -125q-36 -64 -96.5 -136t-140 -142.5t-177 -117t-188.5 -46.5q-150 0 -236 93t-86 269 z" />
<glyph unicode="D" horiz-adv-x="1306" d="M-160 -2q8 28 41 100q283 537 703 1147q-277 -99 -510 -227l-72 149q88 51 216 105.5t282.5 106.5t329.5 85t323 33q177 0 260.5 -82t83.5 -229q0 -112 -75.5 -258.5t-198 -292.5t-283.5 -290t-326.5 -255.5t-334 -183.5t-299.5 -80zM33 -29q103 33 245 119t288.5 199 t292 248.5t257.5 263.5t182 247.5t70 198.5q0 69 -43.5 102t-138.5 33q-143 0 -344 -53q-196 -296 -419.5 -671t-389.5 -687z" />
<glyph unicode="E" horiz-adv-x="1069" d="M-121 113q0 151 164 298.5t426 221.5v4q-40 -6 -80 -6q-85 0 -144 45t-59 119q0 97 68 200.5t181 191.5t249 158.5t283.5 111t273.5 40.5q163 0 238 -49t75 -125q0 -70 -76 -147.5t-191.5 -130t-221.5 -52.5q-129 0 -129 88q0 39 52 83t118.5 72t110.5 28l22 -103 q76 35 127 78.5t51 77.5q0 63 -129 63q-106 0 -259.5 -62.5t-287.5 -150.5t-229.5 -189.5t-95.5 -172.5q0 -64 100 -64q67 0 141 19l220 55l26 -115l-201 -69q-128 -45 -243.5 -118.5t-194 -152.5t-124.5 -158t-46 -139q0 -122 119 -122q60 0 126 30.5t122 75.5t114 108.5 t99.5 118.5t83.5 117l80 -117q-39 -69 -104 -144t-148 -144.5t-185.5 -114.5t-199.5 -45q-151 0 -236.5 72.5t-85.5 214.5z" />
<glyph unicode="F" horiz-adv-x="849" d="M-154 -10q106 209 279 502l-39 135q103 18 135 22q174 287 379 580q-72 -16 -158 -39l-49 184q464 95 953 123l28 -141q-270 -27 -547 -80q-147 -221 -370 -594q161 21 286 31l17 -105q-208 -28 -385 -63q-211 -363 -393 -719z" />
<glyph unicode="G" horiz-adv-x="1312" d="M-20 195q0 134 56 287.5t148.5 295.5t215 274.5t251 230t261 156t241.5 58.5q97 0 152 -55t55 -150q0 -73 -53 -169t-131.5 -165t-143.5 -69q-38 0 -63 21.5t-25 64.5q0 64 66.5 141.5t124.5 104.5l51 -60q27 32 42 71t15 62q0 74 -84 74q-62 0 -161 -58t-207.5 -152.5 t-219 -223t-198.5 -262t-143.5 -277t-55.5 -260.5q0 -201 158 -201q231 0 522 496q-121 -22 -281 -53l-47 155q334 63 645 70l27 -127q-53 -4 -172 -20q-7 -107 -75.5 -221.5t-167 -203.5t-219.5 -146.5t-228 -57.5q-161 0 -258.5 95t-97.5 274z" />
<glyph unicode="H" horiz-adv-x="1261" d="M-152 -10q104 205 275 497l-41 138q22 2 65.5 7t65.5 7q290 473 580 858l116 -102q-223 -334 -465 -738q308 19 482 21q290 472 555 819l118 -102q-238 -356 -491.5 -782t-433.5 -787l-137 164q131 257 321 575q-206 -12 -496 -45q-207 -359 -378 -694z" />
<glyph unicode="I" horiz-adv-x="901" d="M88 -12q35 60 91 147t104 158t128 190t124 185q216 325 310.5 482t94.5 212q0 41 -29 41q-45 0 -148.5 -100.5t-219.5 -243t-230 -303.5l-133 127q90 144 231 287t284 235t233 92q69 0 105 -42t36 -124q0 -107 -77.5 -261.5t-284.5 -479.5q-50 -79 -151.5 -235t-184 -286 t-150.5 -243z" />
<glyph unicode="J" horiz-adv-x="870" d="M-389 -428q0 74 55 180.5t150 216.5q122 137 284.5 271t309.5 219q307 496 430 721q71 136 71 182q0 41 -28 41q-48 0 -160 -97.5t-240 -241.5t-237 -292q-99 -134 -99 -186q0 -21 17 -21q41 0 180 176q141 179 223 328l70 -94q-51 -105 -215 -305q-160 -197 -289 -197 q-115 0 -115 123q0 135 140 326q94 136 233.5 269t279.5 219.5t228 86.5q67 0 102 -40.5t35 -117.5q0 -106 -78 -272q-88 -184 -225 -429.5t-260 -442.5q-88 -139 -199 -286t-211 -251q-104 -104 -180.5 -156.5t-144.5 -52.5q-63 0 -95 32.5t-32 90.5zM-283 -434 q0 -12 7 -19.5t16 -7.5q62 0 209 199q103 142 366 561q-174 -142 -354 -346q-244 -277 -244 -387z" />
<glyph unicode="K" horiz-adv-x="1130" d="M-160 -10q179 352 442 773t502 734l117 -102q-278 -416 -547 -875l1245 998l105 -140l-1333 -987l575 -436l-143 -129l-580 463q-142 -253 -248 -463z" />
<glyph unicode="L" horiz-adv-x="962" d="M-139 -10q179 352 442 773t502 734l117 -102q-206 -306 -430 -678t-404 -711q119 42 285.5 86t285.5 64l39 -158q-169 -27 -365 -74.5t-337 -97.5z" />
<glyph unicode="M" horiz-adv-x="1992" d="M-356 -86q0 83 92 165t192 105l35 -78q478 315 1362 1391l145 -145l-606 -1116l1114 1161l140 -150q-299 -415 -503 -766t-204 -452q0 -24 9 -34.5t30 -10.5q83 0 551 616l53 -63q-105 -139 -166 -218t-136.5 -173.5t-121.5 -143t-97 -94.5t-89.5 -64t-73.5 -18 q-63 0 -100 45t-37 125q0 276 481 973l-1003 -1045l-160 105l606 1124q-109 -134 -214 -257.5t-248 -285.5t-273.5 -292.5t-260.5 -246t-240.5 -180.5t-184.5 -65q-42 0 -67 24t-25 64z" />
<glyph unicode="N" horiz-adv-x="1388" d="M-420 -170q-1 8 -1 17q0 75 73 157q81 92 178 129l45 -76q212 189 483.5 558t597.5 882l121 -121q-182 -607 -256 -1288l821 1409l119 -76l-983 -1595l-164 82q39 573 193 1190q-72 -115 -141.5 -222.5t-162 -244t-177 -252t-178.5 -231.5t-174 -198.5t-156.5 -136.5 t-132.5 -61q-7 -1 -13 -1q-34 1 -58 19q-28 22 -34 60z" />
<glyph unicode="O" horiz-adv-x="1292" d="M-23 166v10q1 178 73 366q74 194 237 421q181 252 378 393t357 141q74 0 131.5 -27t92.5 -73.5t52.5 -104.5t18.5 -125v-10q0 -180 -72 -363q-74 -188 -254 -448q-162 -232 -359 -376t-349 -144q-150 0 -227 96t-79 244zM139 96q3 -141 123 -141q102 0 254.5 145 t331.5 426q176 278 247 432q70 152 70 274q0 144 -114 144q-209 0 -590 -561q-322 -472 -322 -719z" />
<glyph unicode="P" horiz-adv-x="1251" d="M-160 -10q135 265 334 595.5t424 659.5q-306 -112 -508 -227l-72 149q123 71 304 142.5t422.5 129.5t437.5 58q165 0 243 -71.5t78 -200.5q0 -131 -89.5 -271t-245.5 -265t-385.5 -229t-491.5 -159l-27 61q-183 -324 -289 -536zM307 434q210 63 410 171.5t342 227 t228.5 238.5t86.5 209q0 52 -38 77t-122 25q-141 0 -356 -55q-280 -421 -551 -893z" />
<glyph unicode="Q" horiz-adv-x="1292" d="M-23 166v10q0 178 73 366q74 194 237 421q181 252 378 393t357 141q74 0 131.5 -27t92.5 -73.5t52.5 -104.5t18.5 -125v-10q0 -180 -72 -363q-74 -188 -254 -448q-127 -183 -293 -323l301 -162l-172 -115l-264 178q-156 -98 -280 -98q-150 0 -227 96t-79 244zM139 96 q3 -141 123 -141q72 0 160 65l-131 89l119 69l120 -65q155 155 318 413q176 278 247 432q70 153 70 274q0 144 -114 144q-209 0 -590 -561q-322 -472 -322 -719z" />
<glyph unicode="R" horiz-adv-x="1251" d="M-160 -10q135 265 334 595.5t424 659.5q-306 -112 -508 -227l-72 149q123 71 304 142.5t422.5 129.5t437.5 58q165 0 243 -71.5t78 -200.5q0 -121 -76.5 -250.5t-212 -247.5t-334 -220t-429.5 -167q6 -4 18 -14t23 -18.5t22 -16.5l447 -336l-144 -129l-590 471 q-132 -235 -252 -471zM307 434q210 63 410 171.5t342 227t228.5 238.5t86.5 209q0 52 -38 77t-122 25q-141 0 -356 -55q-280 -421 -551 -893z" />
<glyph unicode="S" horiz-adv-x="1224" d="M-279 8q0 95 136 175t350 104l69 -97q-401 -63 -401 -149q0 -55 119 -55q103 0 232 37t247 96t218.5 126t161 133t60.5 111q0 34 -30.5 50.5t-114.5 17.5l-346 4q-320 3 -320 238q0 84 63.5 181.5t174 187.5t246.5 165t295.5 119.5t306.5 44.5q123 0 186.5 -51.5 t63.5 -136.5q0 -75 -77.5 -160t-188.5 -141t-203 -56q-113 0 -113 82q0 59 94 128t166 77l31 -98q166 108 166 182q0 59 -70 59q-99 0 -230.5 -45t-254.5 -114.5t-229.5 -147t-171 -149t-64.5 -113.5q0 -28 25 -41t96 -14l315 -4q156 -1 234.5 -67.5t78.5 -188.5 q0 -118 -94.5 -242t-237 -217t-315.5 -153t-323 -60q-351 0 -351 182z" />
<glyph unicode="T" horiz-adv-x="774" d="M-66 -10q145 283 353.5 623.5t419.5 641.5q-281 -51 -484 -108l-53 188q277 66 618 110t617 52l31 -145q-236 -17 -510 -60q-218 -330 -449.5 -726t-406.5 -740z" />
<glyph unicode="U" horiz-adv-x="1331" d="M-47 90q0 156 117 393q99 203 276 479.5t371 534.5l141 -129q-473 -691 -641 -1055q-65 -141 -65 -254q0 -51 18 -74.5t47 -23.5q131 0 588 705l536 831l146 -131l-414 -657q-125 -199 -186.5 -348.5t-61.5 -219.5q0 -43 33 -43q35 0 133 97.5t186.5 203.5t161.5 201 l54 -63q-46 -61 -93 -122t-127.5 -156t-149.5 -163.5t-142 -120t-121 -51.5q-58 0 -95.5 43.5t-37.5 118.5q0 86 18 162q-298 -422 -487 -422q-98 0 -151.5 68t-53.5 196z" />
<glyph unicode="V" horiz-adv-x="946" d="M-49 -88q164 670 502 1585l163 -141q-247 -628 -423 -1264l1202 1464l106 -143l-1397 -1587z" />
<glyph unicode="W" horiz-adv-x="1443" d="M-78 -49q194 690 553 1546l154 -145q-273 -627 -461 -1196l856 1192l162 -138l-393 -1095l1054 1425l95 -127l-1248 -1591l-149 119l383 1085l-858 -1186z" />
<glyph unicode="X" horiz-adv-x="905" d="M-547 -158l940 785l66 870l209 -59l-60 -643l840 772l117 -103l-971 -821l-74 -817l-184 39l45 610l-809 -745z" />
<glyph unicode="Y" horiz-adv-x="1144" d="M-154 -385q0 94 98 194.5t241.5 176t297.5 116.5q59 90 170 254q-198 -215 -346 -215q-86 0 -135 57t-49 164q0 119 56.5 245.5t203.5 332.5q151 213 212.5 308t61.5 126q0 29 -26 29q-28 0 -108 -74t-185 -201q-87 -103 -169 -224.5t-130 -215.5l-125 133 q42 82 126 195.5t179 208.5q124 124 240.5 198t183.5 74q139 0 139 -176q0 -81 -71 -217t-217 -356q-201 -298 -201 -414q0 -41 15 -58.5t46 -17.5q58 0 158.5 86.5t202 210.5t184.5 237.5t131 190.5h2q48 78 305 514l119 -102q-168 -319 -296.5 -540t-336.5 -548 q-86 -135 -149.5 -229t-157 -217.5t-172.5 -204.5q-102 -102 -181 -154.5t-149 -52.5q-78 0 -123 44.5t-45 121.5zM-33 -408q0 -57 49 -57q73 0 217 201q92 126 181 256q-94 -33 -197 -101.5t-176.5 -152t-73.5 -146.5z" />
<glyph unicode="Z" horiz-adv-x="1079" d="M-305 -8q453 389 614 524l-37 143q119 22 252 37q418 347 764 627q-333 -21 -837 -127l38 215q213 43 487 67q200 18 355 17q57 0 107 -2l-23 -223q-216 -175 -678 -557q95 6 178 6l9 -123q-172 -6 -371 -37q-313 -262 -608 -518q415 90 776 96l12 -207 q-385 -5 -1034 -104z" />
<glyph unicode="[" horiz-adv-x="565" d="M-260 -141q200 399 500 879.5t577 842.5q165 16 342 27l23 -111q-176 -29 -308 -61q-560 -843 -950 -1586q192 27 248 33l31 -108q-110 -21 -328 -80z" />
<glyph unicode="\" horiz-adv-x="522" d="M68 1575l145 -53l-4 -1784l-88 26z" />
<glyph unicode="]" horiz-adv-x="577" d="M-463 -170q132 21 238 35q194 379 462 814t523 783q-157 -26 -217 -35l-41 138q177 25 360 43l70 -127q-251 -372 -529 -840t-501 -895q-183 -11 -342 -27z" />
<glyph unicode="^" horiz-adv-x="669" d="M84 739q233 220 504 551l100 -20q-41 -205 -57 -570l-127 35q-3 166 18 324q-178 -215 -375 -383z" />
<glyph unicode="_" horiz-adv-x="937" d="M-287 -217l94 121h795l-70 -121h-819z" />
<glyph unicode="`" horiz-adv-x="1003" d="M252 1192l106 82q84 -154 166 -289l-86 -53q-134 157 -186 260z" />
<glyph unicode="a" horiz-adv-x="753" d="M-207 166q0 104 66.5 230.5t189.5 252.5q92 97 194.5 154t178.5 57q39 0 66 -18t36 -51q7 9 21.5 26.5t21.5 26.5l105 -96q-148 -200 -231 -341.5t-83 -187.5q0 -18 17 -18q34 0 166.5 142t220.5 257l53 -63q-37 -49 -73 -95t-101.5 -120t-121.5 -126.5t-120 -92.5 t-110 -40t-72.5 27t-26.5 78q0 59 29 123q-208 -262 -315 -262q-51 0 -81 37t-30 100zM-29 203q0 -31 25 -31q40 0 197 189t231 298l47 66q-2 14 -12 22.5t-25 8.5q-38 0 -99.5 -43.5t-123.5 -112.5q-109 -122 -174.5 -232.5t-65.5 -164.5z" />
<glyph unicode="b" horiz-adv-x="626" d="M-283 57q164 342 359 652q261 417 430 667l147 -102q-153 -205 -301 -412q-84 -116 -164 -237q142 127 222 127q50 0 79 -28t29 -81q0 -81 -49.5 -193t-134.5 -221q-90 -113 -183 -187.5t-153 -74.5q-43 0 -78 21.5t-53 62.5q-32 -66 -37 -80zM-98 127q3 -22 15.5 -34.5 t31.5 -12.5q34 0 105 65t132 148q85 112 142 209t57 131q0 31 -25 31q-22 0 -72 -28.5t-112 -85t-102 -118.5q-85 -126 -172 -305z" />
<glyph unicode="c" horiz-adv-x="593" d="M-244 109q0 222 264 507q102 111 219 189t193 78q53 0 82 -27t29 -76q0 -69 -36 -143.5t-93 -124t-113 -49.5q-82 0 -82 84q0 35 33 76t61 51l60 -27q34 33 57 70.5t23 62.5q0 23 -33 23q-48 0 -154 -107t-190 -235q-70 -109 -102.5 -193.5t-32.5 -132.5q0 -82 57 -82 q47 0 132 62t175.5 153t168 178.5t128.5 153.5l53 -63q-61 -82 -123 -156.5t-145.5 -163.5t-158 -153t-155.5 -107t-145 -43q-75 0 -123.5 51.5t-48.5 143.5z" />
<glyph unicode="d" horiz-adv-x="768" d="M-254 90q0 237 270 518q110 115 218 182.5t190 67.5q40 0 68 -19.5t38 -54.5q313 445 478 660l112 -98q-222 -301 -473 -648q-139 -194 -216 -334.5t-77 -187.5q0 -16 17 -16q68 0 405 440l53 -63q-393 -514 -544 -514q-47 0 -75 26.5t-28 77.5q0 53 21 121 q-231 -293 -340 -293q-55 0 -86 36.5t-31 98.5zM-76 135q0 -37 31 -37q30 0 133.5 115t195 234t142.5 192l51 74q-1 19 -12.5 30t-28.5 11q-82 0 -256 -193q-102 -111 -179 -235.5t-77 -190.5z" />
<glyph unicode="e" horiz-adv-x="548" d="M-223 152q0 97 60.5 214t168.5 234q98 106 204.5 170t184.5 64q57 0 85 -27.5t28 -73.5q0 -71 -78 -160t-198 -165.5t-246 -120.5q-23 -64 -23 -111q0 -86 62 -86q38 0 99 43t119 100.5t126.5 136t109 129.5t78.5 101l53 -63q-59 -76 -92 -117.5t-92 -112.5t-98.5 -111.5 t-95 -92.5t-98.5 -79.5t-92.5 -47t-92.5 -19.5q-76 0 -124 52t-48 143zM29 381q129 70 239.5 181t110.5 169q0 14 -12 14q-28 0 -106 -72t-152 -169q-37 -47 -80 -123z" />
<glyph unicode="f" horiz-adv-x="503" d="M-416 -358q0 78 35 184q50 149 129 311q135 277 266 471q247 366 465 584q118 113 183 160t108 47q44 0 67 -29t23 -74q0 -63 -51.5 -155.5t-146.5 -196.5q-266 -287 -549 -452q86 -16 86 -134q0 -47 -13 -110q88 71 182.5 177.5t143.5 174.5l53 -63q-229 -297 -407 -402 q-61 -172 -166 -332q-82 -134 -162 -213t-145 -79q-44 0 -72.5 35t-28.5 96zM-279 -328q0 -28 15 -28q19 0 65.5 64t104.5 167q75 140 104 209h-8q-83 0 -106 47l-7 -12q-103 -221 -141 -334q-27 -82 -27 -113zM-45 219q0 -26 18.5 -40.5t49.5 -14.5q14 0 22 2 q47 126 47 213q0 35 -20 35q-19 0 -37 -27q-37 -57 -72 -123q-8 -19 -8 -45zM199 639q202 150 376 354q74 88 121 165.5t47 107.5q0 12 -10 12q-28 0 -115 -96q-20 -22 -44.5 -51.5t-45 -55t-55 -70.5t-53.5 -70.5t-62.5 -83.5t-62.5 -83q-2 -2 -39 -52t-57 -77z" />
<glyph unicode="g" horiz-adv-x="679" d="M-240 -469q0 90 88 178l64 -31q82 129 219 402q88 176 131 256l-4 2q-239 -309 -354 -309q-51 0 -81 37t-30 100q0 113 72.5 240.5t185.5 240.5q98 98 197.5 155.5t173.5 57.5q67 0 98 -74l43 52l90 -82q-219 -316 -391 -697q-55 -122 -89.5 -195.5t-75 -151.5t-69 -120 t-62 -78.5t-65 -50.5t-67.5 -14q-33 0 -53.5 22t-20.5 60zM-29 205q0 -33 25 -33q43 0 196.5 186t231.5 301l47 66q-2 14 -12 22.5t-25 8.5q-74 0 -221 -158q-90 -96 -166 -215t-76 -178z" />
<glyph unicode="h" horiz-adv-x="686" d="M-246 129q62 136 155.5 303.5t170.5 282.5q98 148 222 301t235 266q89 90 158.5 143.5t99.5 53.5q22 0 39.5 -23.5t17.5 -46.5q1 -24 -8.5 -43t-36.5 -55q-79 -106 -229.5 -264t-346.5 -336q-145 -218 -260 -426q0 -1 1.5 -2t3.5 -0.5t4 2.5q57 61 146 156.5t142.5 152.5 t81.5 84q61 55 96 55q28 0 54 -29.5t26 -62.5q0 -60 -159 -283q-17 -24 -51 -69.5t-63 -85.5t-54 -80q-13 -19 -13 -33q0 -6 4 -10t9 -4q31 0 135 105.5t200 220t160 198.5l54 -63q-95 -123 -244 -289.5t-252 -243.5q-80 -61 -131 -61q-41 0 -66.5 26t-25.5 72q0 59 77 192 q88 142 201 295q3 4 2 8.5t-4 4.5q-141 -144 -442 -484z" />
<glyph unicode="i" horiz-adv-x="387" d="M-168 203q0 187 227 467q32 40 70 78l96 -97q-121 -166 -184 -295q-43 -88 -43 -125q0 -22 16 -22q42 0 167 135.5t214 255.5l54 -63q-36 -48 -71.5 -92t-99 -116.5t-118 -123.5t-115.5 -90t-104 -39q-47 0 -78 32t-31 95zM231 955q1 43 31 93q32 52 79.5 88.5t90.5 37.5 h6q94 0 97 -97v-2q1 -70 -67 -143q-68 -74 -136 -76h-7q-39 0 -65 22q-28 25 -29 77z" />
<glyph unicode="j" horiz-adv-x="337" d="M-512 -369q0 91 88 179l55 -27q84 133 225.5 417t178.5 351l-33 41l6 8q38 47 98.5 131.5t77.5 104.5l101 -86q-183 -316 -369 -730q-51 -111 -84.5 -178t-70.5 -130t-66.5 -94.5t-62.5 -50t-70 -18.5q-32 0 -53 20t-21 62zM279 1080q0 43 31 93q31 52 78.5 88t90.5 37h6 q94 0 97 -96v-2q0 -70 -68 -143q-68 -74 -135 -76h-6q-94 0 -94 99z" />
<glyph unicode="k" horiz-adv-x="616" d="M-324 31q191 355 371 631q287 442 479 710l125 -98q-224 -281 -405 -555q171 141 250 141q46 0 73 -27.5t27 -76.5q0 -168 -195 -303q-145 -102 -292 -111l315 -250l-133 -96l-307 307q-116 -196 -201 -362zM51 414q69 3 182 82q105 72 168.5 138.5t63.5 110.5 q0 27 -29 27q-42 0 -153 -87t-162 -163z" />
<glyph unicode="l" horiz-adv-x="495" d="M-213 59q0 140 107 344t294 469q149 211 316 400q197 231 293 231q92 0 92 -119q0 -91 -60 -195t-196 -276q-201 -248 -592 -563q-88 -178 -88 -262q0 -47 27 -47q41 0 175 139t349 420l53 -63q-478 -633 -651 -633q-56 0 -87.5 40t-31.5 115zM152 549q234 223 413 452 q111 146 161 230.5t50 128.5q0 20 -18 20q-28 0 -107 -98q-95 -114 -303 -424q-100 -147 -196 -309z" />
<glyph unicode="m" horiz-adv-x="1050" d="M-227 152q44 104 154.5 307t168.5 286l103 -79q-110 -168 -211 -361q0 -1 1 -2t3 -0.5t4 2.5q66 72 158.5 176t153 171.5t91.5 97.5q60 55 97 55q28 0 55 -27t27 -57q0 -65 -205 -363q-21 -31 -86 -122q-3 -4 -2 -8.5t4 -4.5q302 341 418 457q55 55 98 55q28 0 56 -29.5 t28 -62.5q0 -35 -48.5 -119.5t-109.5 -165.5q-12 -18 -37 -51.5t-46 -63t-40 -59.5q-12 -18 -12 -32q0 -15 12 -15q41 0 198 169t253 294l53 -63q-73 -96 -215 -249t-238 -225q-80 -61 -131 -61q-41 0 -66.5 26.5t-25.5 71.5q0 58 78 193q75 129 154 235q3 4 2 8.5t-4 4.5 q-204 -215 -531 -586l-112 74q195 358 335 567q3 4 2 8t-4 4q-58 -61 -234.5 -257.5t-242.5 -268.5z" />
<glyph unicode="n" horiz-adv-x="694" d="M-233 135q50 116 170.5 339t181.5 312l104 -84q-88 -136 -239 -411q0 -1 1 -2t3 -0.5t4 2.5q66 72 164.5 182t160 178t93.5 99q60 55 96 55q28 0 55 -29.5t27 -62.5q0 -22 -18 -59.5t-57.5 -98t-63 -94t-74.5 -103.5q-15 -20 -52 -70t-65.5 -90t-54.5 -81 q-13 -19 -13 -33q0 -6 4 -10t9 -4q31 0 136 107.5t199.5 220.5t163.5 202l54 -63q-91 -121 -243 -290.5t-257 -248.5q-80 -61 -131 -61q-41 0 -66.5 26t-25.5 72q0 57 78 192q118 184 237 348q3 5 2 9t-4 4q-46 -50 -220.5 -245.5t-250.5 -279.5z" />
<glyph unicode="o" d="M-233 82q0 131 70 273.5t179 269.5q93 107 189.5 173t161.5 66q69 0 106 -44t37 -113q0 -128 -86 -308q114 48 229 201l54 -63q-152 -202 -332 -232l-56 -86q-94 -137 -202 -226t-197 -89q-68 0 -110.5 46t-42.5 132zM-94 49q0 -35 24 -35q29 0 91.5 76.5t162.5 228.5 q-90 27 -96 123q-182 -277 -182 -393zM162 502q0 -74 74 -107q155 248 155 340q0 31 -20 31q-22 0 -70.5 -47t-110.5 -129q-28 -41 -28 -88z" />
<glyph unicode="p" horiz-adv-x="624" d="M-539 -397q36 99 92.5 217.5t93.5 187.5t103 189q152 276 481 708l115 -88q-55 -63 -135 -184q134 106 207 106q45 0 73.5 -30t28.5 -82q0 -79 -51 -184.5t-141 -211.5q-103 -119 -199.5 -190.5t-169.5 -71.5q-55 0 -86 24t-31 68v7q-93 -185 -254 -545zM-104 115 q0 -33 26 -33q32 0 99.5 56t128.5 130q104 121 171.5 219.5t67.5 137.5q0 26 -33 26q-39 0 -127 -64t-155 -159q-91 -135 -166 -262q-12 -21 -12 -51z" />
<glyph unicode="q" horiz-adv-x="679" d="M-217 -463q185 340 446 762l-6 2q-103 -129 -182.5 -200.5t-138.5 -71.5q-51 0 -81 37t-30 100q0 113 73 239t187 240q99 99 197 157t172 58q80 0 102 -67q11 15 35 44.5t27 32.5l92 -100q-156 -206 -324 -496q-198 -341 -375 -731zM-31 209q0 -37 25 -37q10 0 24.5 9 t41 36.5t40 42t53.5 59.5q11 13 17 19q181 215 252 321l47 66q-2 14 -12 22.5t-25 8.5q-70 0 -219 -160q-90 -95 -167 -212t-77 -175z" />
<glyph unicode="r" horiz-adv-x="532" d="M-113 96q0 63 38.5 128t164.5 225q148 190 148 233q0 29 -48 29h-12q-57 -97 -117 -174l-6 -9l-53 64l6 8q73 94 137 221q147 -27 196.5 -56.5t49.5 -96.5q0 -101 -164 -293q-166 -197 -166 -246q0 -14 15 -14q49 0 192 157t273 328l53 -63q-423 -555 -602 -555 q-46 0 -75.5 30t-29.5 84z" />
<glyph unicode="s" horiz-adv-x="413" d="M-283 27q0 43 15 90l131 51q-29 -98 -29 -152q0 -57 27 -57q17 0 36.5 32.5t47.5 106.5q37 100 86.5 260t68.5 215q4 13 -4 13q-7 -12 -35 -49l-6 -9l-53 64l6 8q112 148 178 264l127 -129q-42 -104 -116 -337t-107 -312q-43 -107 -104 -161t-129 -54q-59 0 -99.5 38.5 t-40.5 117.5z" />
<glyph unicode="t" horiz-adv-x="395" d="M-246 96q0 89 77.5 231.5t242.5 362.5l104 139h-155l69 86h152l233 312l86 -88l-157 -224h157l-49 -86h-168l-106 -151q-161 -229 -237.5 -360.5t-76.5 -192.5q0 -37 21 -37t75.5 52.5t135.5 151.5t127.5 157.5t117.5 150.5l54 -63q-108 -141 -239 -298.5t-210 -222.5 q-71 -59 -137 -59q-56 0 -86.5 36t-30.5 103z" />
<glyph unicode="u" horiz-adv-x="694" d="M-168 201q0 150 180 405q82 118 152 193l102 -103q-145 -199 -198 -297q-64 -119 -64 -163q0 -21 16 -21q45 0 418 481l94 -94q-125 -175 -190.5 -295t-65.5 -164q0 -18 13 -18q17 0 70 54.5t123.5 141t121.5 152t98 127.5l54 -63q-52 -67 -76 -98.5t-73.5 -93.5 t-77 -94.5t-70 -81.5t-71 -75t-61 -53.5t-58 -39t-46.5 -11.5q-39 0 -65.5 27.5t-26.5 82.5q0 83 45 176q-80 -95 -138 -144.5t-106 -49.5q-42 0 -71 31t-29 88z" />
<glyph unicode="v" horiz-adv-x="536" d="M-186 59l202 516l-14 17l6 8q37 47 70 133l4 12l160 -51l-222 -493l502 624l82 -67l-647 -738z" />
<glyph unicode="w" horiz-adv-x="837" d="M-184 2l194 580l-8 10l6 8q19 27 55 137l13 35l160 -51l-211 -551l340 487l143 -51l-166 -448l496 708l82 -67l-637 -838l-138 53l140 406l-332 -471z" />
<glyph unicode="x" horiz-adv-x="624" d="M-401 -35l532 457l31 260q-50 -81 -101 -145l-6 -9l-53 64l6 8q48 62 100 155.5t76 159.5l78 -41q-10 -22 -33 -67l127 -6l-37 -242l414 402l51 -91l-483 -442l-65 -438l-154 6l35 305l-457 -422z" />
<glyph unicode="y" horiz-adv-x="641" d="M-244 -457q193 352 445 756q3 5 2 8.5t-4 3.5q-72 -97 -140 -155t-116 -58q-42 0 -70.5 29.5t-28.5 85.5q0 164 234 487q50 67 94 121l104 -104q-139 -189 -204 -322q-58 -105 -58 -145q0 -19 17 -19q12 0 42.5 31.5t102.5 116.5q140 165 277 348q89 118 90 119l92 -96 q-140 -184 -311 -476q-188 -321 -373 -725z" />
<glyph unicode="z" horiz-adv-x="595" d="M-246 94q320 293 621 524q-126 -8 -287 -40q-14 -25 -27 -41l-6 -9l-53 64l6 8q50 73 64 131q102 27 244 37q77 6 142 6q56 0 103 -4l-12 -113q-327 -253 -608 -510q185 43 352 46l6 -156q-270 -4 -543 -51z" />
<glyph unicode="{" horiz-adv-x="669" d="M-238 -219q0 62 44 145.5t106.5 165t125 160.5t106.5 151t44 117q0 22 -10 31.5t-35 9.5q-15 0 -47 -4l-65 -10l-6 110l88 17q39 7 70 17t58.5 26t48.5 31.5t43.5 44t38.5 52t38 67t38.5 77.5t43.5 94q45 97 88 167t96.5 129t118.5 88.5t141 29.5q133 0 205 -45l-43 -123 q-90 53 -168 53q-65 0 -127.5 -81t-145.5 -261q-39 -87 -67 -140.5t-63.5 -107t-71 -84t-83 -53t-106.5 -32.5q42 -6 65 -31t23 -64q0 -59 -33 -134t-82 -143.5t-107 -144t-107 -138t-82 -123.5t-33 -101q0 -29 41 -29q33 0 86 17t92 39l47 -121q-88 -49 -221 -49 q-96 0 -144.5 47.5t-48.5 132.5z" />
<glyph unicode="|" horiz-adv-x="595" d="M186 -236v1756h127v-1756h-127z" />
<glyph unicode="}" horiz-adv-x="696" d="M-586 -338l43 123q103 -70 170 -70q65 0 127.5 81t145.5 261q40 88 70 144t67.5 109.5t77 84t91.5 52t118 28.5q-54 6 -82.5 33t-28.5 70q0 70 44.5 159.5t108.5 174.5t128 166t108.5 155t44.5 121q0 28 -41 28q-33 0 -86 -16.5t-92 -38.5l-47 121q88 49 221 49 q96 0 144.5 -47.5t48.5 -132.5q0 -61 -43 -144t-104 -163.5t-122 -158.5t-104 -149.5t-43 -115.5q0 -19 8.5 -27t28.5 -8q29 0 47 2l74 6l6 -110l-88 -17q-40 -7 -72 -17t-60.5 -26.5t-50 -32.5t-44.5 -45t-39.5 -53t-39 -68t-39 -79.5t-44.5 -96.5q-45 -97 -88 -167 t-97 -128.5t-119 -88t-141 -29.5q-129 0 -207 61z" />
<glyph unicode="~" horiz-adv-x="745" d="M94 616q0 46 41 77.5t101 31.5q41 0 79.5 -15.5t89 -43.5t91.5 -43l49 47q55 -20 55 -76q0 -51 -31.5 -76.5t-76.5 -25.5q-20 0 -49.5 8t-53.5 18t-67 27.5t-68 27.5l-51 -67q-52 11 -80.5 39.5t-28.5 70.5z" />
<glyph unicode="&#xa1;" horiz-adv-x="616" d="M-174 -61q455 650 766 1159l59 -64q-134 -276 -323 -623.5t-344 -600.5zM659 1343q0 76 45 127.5t111 51.5q49 0 74.5 -28.5t25.5 -80.5q0 -71 -48.5 -123.5t-104.5 -52.5q-46 0 -74.5 26.5t-28.5 79.5z" />
<glyph unicode="&#xa2;" horiz-adv-x="849" d="M-16 285q0 123 72.5 268t180 263.5t240.5 200t246 85.5l129 205l57 -113l-73 -117q65 -39 65 -131q0 -76 -70.5 -164.5t-201.5 -175.5l-107 103q121 80 189.5 143.5t68.5 93.5q0 43 -53 43q-61 0 -162 -76t-195.5 -183.5t-163.5 -238t-69 -227.5q0 -108 72 -108 q42 0 105 40.5t106.5 81t101.5 99.5l56 -137q-74 -74 -177 -128.5t-211 -54.5h-10l-121 -190l-39 113l64 100q-100 56 -100 205z" />
<glyph unicode="&#xa3;" horiz-adv-x="792" d="M-131 147q230 171 295 267l-197 -2l68 86l153 2q-2 9 -21.5 53t-19.5 84q0 94 93 204.5t229 185.5t252 75q85 0 125.5 -43t40.5 -113q0 -75 -71 -164t-202 -176l-106 103q121 80 189.5 143.5t68.5 93.5q0 43 -49 43q-57 0 -164 -67.5t-194 -163t-87 -162.5q0 -18 4 -32.5 t13 -33.5t12 -28l195 2l-50 -86l-137 -2q-12 -88 -157 -205q250 38 340 47l26 -96q-202 -39 -551 -131z" />
<glyph unicode="&#xa5;" horiz-adv-x="811" d="M-10 406l69 83h166l68 627l133 -112l-59 -474l512 574l94 -94l-531 -525h162l-47 -84h-192q-155 -255 -209 -362l-111 129q46 88 141 238h-196z" />
<glyph unicode="&#xa6;" horiz-adv-x="595" d="M186 -236v687h127v-687h-127zM186 834v686h127v-686h-127z" />
<glyph unicode="&#xa7;" horiz-adv-x="1124" d="M-221 -233q0 90 127 165t330 99l63 -90q-199 -32 -296 -71t-97 -77q0 -45 98 -45q116 0 268 59t256.5 135t104.5 124q0 29 -25.5 41.5t-95.5 13.5l-260 4q-139 3 -196.5 46t-57.5 116q0 84 108 182t265 162q-121 36 -121 145q0 62 45 134t123.5 138.5t175 121t209.5 87.5 t217 33q102 0 155.5 -42.5t53.5 -114.5q0 -63 -65 -134t-158 -118t-170 -47q-45 0 -69 18t-24 49q0 49 78 107t137 65l27 -82q139 89 139 154q0 47 -57 47q-84 0 -201.5 -49t-216 -114.5t-168 -134t-69.5 -106.5q0 -22 20.5 -33t79.5 -12l197 -4q245 -6 245 -178 q0 -90 -90.5 -180.5t-228.5 -153.5q106 -43 106 -155q0 -81 -65.5 -166t-163.5 -148.5t-218 -104t-224 -40.5q-291 0 -291 154zM160 299q0 -22 20.5 -33t79.5 -12q82 0 187.5 34t192 81.5t146.5 99.5t60 86q0 29 -25.5 41.5t-95.5 13.5q-73 0 -174 -37.5t-186 -88 t-145 -103.5t-60 -82z" />
<glyph unicode="&#xa8;" horiz-adv-x="1003" d="M233 1008q-2 51 48.5 105t99.5 54q58 0 61 -57q1 -53 -47.5 -106.5t-95.5 -55.5q-63 -3 -66 60zM469 1006q0 54 51.5 111t100.5 57q64 0 67 -60q0 -54 -52 -112.5t-101 -59.5q-29 -2 -47.5 14t-18.5 50z" />
<glyph unicode="&#xa9;" horiz-adv-x="1388" d="M-70 180q0 134 58 277.5t158 266.5t224 222t266.5 156t274.5 57q94 0 166.5 -26.5t116.5 -72.5t66 -103t22 -123q0 -130 -78 -278t-207 -277q-134 -134 -274 -214.5t-264 -80.5q-79 0 -133 51.5t-54 142.5q0 119 68.5 254t175.5 250q90 98 199.5 165.5t179.5 67.5 q53 0 82 -26.5t29 -75.5q0 -69 -36 -143.5t-93 -124t-113 -49.5q-74 0 -74 79q0 35 34 76t62 51l50 -22q34 32 56.5 70t22.5 63q0 23 -32 23q-43 0 -139.5 -99.5t-168.5 -214.5q-114 -178 -114 -317q0 -51 21 -78t59 -27q158 0 370 244q102 116 165 254.5t63 259.5 q0 201 -199 201q-143 0 -299.5 -95.5t-277.5 -237.5t-200 -314.5t-79 -319.5q0 -129 92 -180q43 -26 99.5 -35.5t156.5 -9.5q128 0 317 48t345 116l-41 -187q-109 -41 -270 -63.5t-296 -22.5q-150 0 -247 25.5t-170 79.5q-140 101 -140 317z" />
<glyph unicode="&#xaa;" horiz-adv-x="786" d="M16 489q195 46 357 46q103 0 211 -23l-21 -72q-128 27 -250 27q-132 0 -293 -25zM135 715q0 87 54.5 193t154.5 206q76 81 159.5 126.5t147.5 45.5q75 0 101 -59q15 18 30 39l90 -84q-270 -367 -270 -434q0 -19 16 -19q22 0 71.5 30.5t105.5 86.5l-7 -119 q-57 -46 -119.5 -77.5t-109.5 -31.5q-86 0 -86 97q0 41 12 76q-168 -201 -252 -201q-45 0 -71.5 33.5t-26.5 91.5zM274 743q0 -30 23 -30q39 0 158 137q147 172 207 256l36 53q-3 41 -41 41q-31 0 -83 -37.5t-105 -95.5q-89 -98 -142 -189t-53 -135z" />
<glyph unicode="&#xab;" horiz-adv-x="733" d="M18 440l353 377l78 -49l-287 -332l10 -325l-106 16zM248 440l352 377l78 -49l-287 -332l10 -325l-106 16z" />
<glyph unicode="&#xad;" horiz-adv-x="497" d="M-14 586h338l22 -111q-184 -7 -323 -22z" />
<glyph unicode="&#xae;" horiz-adv-x="1523" d="M41 592q0 112 44 231.5t119 226.5t178 203.5t217 166t239.5 110.5t242.5 41q104 0 185 -31t130 -84.5t74 -121.5t25 -146q0 -107 -66.5 -230.5t-159.5 -221t-196 -169.5l-78 64q47 30 107 92t116.5 141t95 173.5t38.5 174.5q0 124 -59.5 191t-182.5 67q-103 0 -214.5 -44 t-211.5 -117t-190.5 -171.5t-156 -204.5t-104 -218.5t-38.5 -210.5q0 -127 92 -178q45 -27 104.5 -37t167.5 -10q144 0 358.5 53t387.5 129l-41 -187q-127 -49 -312.5 -76.5t-337.5 -27.5q-156 0 -258.5 25.5t-175.5 80.5q-139 100 -139 316zM406 510q143 275 335 561 q-106 -42 -188 -86l-47 96q98 54 259 104t296 50q170 0 170 -143q0 -117 -133.5 -227.5t-358.5 -172.5l222 -221l-107 -63l-231 245q-73 -128 -131 -241zM694 776l21 6q166 56 295 154t129 178q0 37 -62 37q-60 0 -162 -25q-123 -185 -221 -350z" />
<glyph unicode="&#xaf;" horiz-adv-x="1024" d="M211 965l82 114h379l-62 -114h-399z" />
<glyph unicode="&#xb0;" horiz-adv-x="636" d="M131 838q0 155 123 307q58 69 139.5 107t147.5 38q96 0 145 -53.5t49 -140.5q0 -158 -110 -305q-55 -73 -133 -110.5t-162 -37.5q-98 0 -148.5 52.5t-50.5 142.5zM272 807q0 -26 14 -46t40 -20q42 0 93.5 40t104.5 122q80 126 80 221q0 70 -51 70q-39 0 -92.5 -41.5 t-104.5 -120.5q-84 -120 -84 -225z" />
<glyph unicode="&#xb2;" horiz-adv-x="591" d="M16 580q28 64 108.5 138.5t252.5 194.5q151 105 223 168.5t72 102.5q0 16 -21 16q-36 0 -99 -39.5t-114 -89.5l-82 100q55 48 137 83.5t146 35.5q61 0 93 -34t32 -93q0 -79 -66 -152.5t-247 -199.5q-208 -148 -256 -184q174 15 260 20l16 -100q-157 -9 -424 -60z" />
<glyph unicode="&#xb3;" horiz-adv-x="624" d="M59 655q0 77 33 142l160 16q-70 -114 -70 -176q0 -59 39 -59q57 0 154 116q90 101 90 152q0 20 -23 20q-18 0 -51 -10l-29 -8l-30 100l69 25q97 35 184 99t87 106q0 22 -33 22q-36 0 -99 -39.5t-114 -89.5l-82 100q54 47 137 83t146 36q69 0 105 -34t36 -93 q0 -82 -64 -149t-169 -105q51 -33 51 -108q0 -109 -101 -213q-47 -49 -110.5 -75t-132.5 -26q-90 0 -136.5 44t-46.5 124z" />
<glyph unicode="&#xb4;" horiz-adv-x="1024" d="M418 997q157 154 260 291l88 -96q-95 -125 -264 -260z" />
<glyph unicode="&#xb6;" horiz-adv-x="1028" d="M-2 -35q108 216 268 488q-131 64 -131 235q0 207 223 426t584 359q76 28 135 28q26 0 29 -6q-265 -396 -534.5 -844t-458.5 -825zM307 -35q183 358 451 785.5t512 746.5l96 -82q-247 -370 -504 -799.5t-438 -789.5z" />
<glyph unicode="&#xb7;" horiz-adv-x="468" d="M4 434q0 71 48.5 122.5t103.5 51.5q44 0 72 -26.5t28 -77.5q0 -75 -44 -125.5t-110 -50.5q-47 0 -72.5 28t-25.5 78z" />
<glyph unicode="&#xb8;" horiz-adv-x="1024" d="M-373 -322q16 -4 43 -4q85 0 146 25q29 12 48 31t19 34q0 21 -33 21q-27 0 -57 -12l-29 77l86 113l101 -29l-53 -71q40 -14 63 -46t23 -79q0 -92 -107 -148q-55 -28 -139 -28q-66 0 -98 14z" />
<glyph unicode="&#xb9;" horiz-adv-x="409" d="M74 600q119 231 321 522l-41 35q81 61 164 133l92 -78q-259 -377 -440 -725z" />
<glyph unicode="&#xba;" d="M-4 496q163 39 323 39q87 0 160 -15l-20 -71q-81 18 -199 18q-140 0 -260 -18zM168 750q0 92 41.5 193.5t105.5 176.5q66 78 149.5 124t143.5 46q66 0 101.5 -42.5t35.5 -108.5q0 -73 -29 -164.5t-81 -167.5q-62 -100 -153 -162.5t-169 -62.5q-64 0 -104.5 44t-40.5 124z M291 721q0 -37 33 -37q53 0 186 201q131 193 131 280q0 18 -6 25.5t-23 7.5q-26 0 -73.5 -44.5t-106.5 -129.5q-61 -87 -101 -169.5t-40 -133.5z" />
<glyph unicode="&#xbb;" horiz-adv-x="743" d="M-104 131l286 332l-10 325l107 -16l47 -313l-353 -377zM125 131l287 332l-11 325l107 -16l47 -313l-352 -377z" />
<glyph unicode="&#xbc;" horiz-adv-x="1179" d="M-160 -166l1188 1507l90 -120l-1222 -1457zM74 600q119 231 321 522l-41 35q81 61 164 133l92 -78q-259 -377 -440 -725zM315 113q320 285 658 542l108 -88q-141 -202 -272 -420q13 1 38 2.5t38 2.5l-25 -76q-64 -4 -100 -8q-65 -111 -129 -232l-92 111q3 5 57 106 q-191 -22 -254 -28zM463 125q135 9 186 14q92 150 207 303l-6 4q-176 -137 -387 -321z" />
<glyph unicode="&#xbd;" horiz-adv-x="1200" d="M-160 -166l1188 1507l90 -120l-1222 -1457zM74 600q119 231 321 522l-41 35q81 61 164 133l92 -78q-259 -377 -440 -725zM338 -59q28 65 108 139t252 194q151 105 223 168.5t72 102.5q0 16 -20 16q-36 0 -99 -39.5t-114 -89.5l-82 100q55 48 137 83.5t146 35.5 q61 0 92.5 -34t31.5 -93q0 -79 -66 -152.5t-247 -199.5q-208 -148 -256 -184q174 15 260 20l17 -100q-157 -9 -424 -60z" />
<glyph unicode="&#xbe;" horiz-adv-x="1363" d="M25 -166l1187 1507l91 -120l-1223 -1457zM63 655q0 77 33 142l160 16q-70 -114 -70 -176q0 -59 39 -59q57 0 154 116q90 101 90 152q0 20 -23 20q-18 0 -51 -10l-28 -8l-31 100l70 25q97 35 183.5 99t86.5 106q0 22 -33 22q-36 0 -99 -39.5t-114 -89.5l-82 100 q54 47 137 83t146 36q69 0 105 -34t36 -93q0 -82 -64 -149t-169 -105q51 -33 51 -108q0 -109 -101 -213q-47 -49 -110.5 -75t-132.5 -26q-90 0 -136.5 44t-46.5 124zM500 113q326 290 657 542l109 -88q-148 -212 -273 -420q12 1 37.5 2.5t38.5 2.5l-25 -76q-64 -4 -100 -8 q-65 -111 -129 -232l-92 111q3 5 57 106q-191 -22 -254 -28zM647 125q139 9 187 14q96 157 206 303l-6 4q-176 -137 -387 -321z" />
<glyph unicode="&#xbf;" horiz-adv-x="1011" d="M-23 141q0 198 193 394q60 62 145 121.5t179.5 119t146.5 101.5q130 102 156 186l88 -74q-7 -84 -123 -203q-22 -23 -189.5 -168.5t-257.5 -244.5q-204 -226 -204 -336q0 -44 24.5 -71t75.5 -27q89 0 192.5 75t192.5 185l139 -158q-75 -89 -204 -147t-271 -58 q-128 0 -205.5 83.5t-77.5 221.5zM891 1315q0 75 43.5 125.5t109.5 50.5q47 0 73 -28.5t26 -78.5q0 -71 -48.5 -122.5t-103.5 -51.5q-44 0 -72 26.5t-28 78.5z" />
<glyph unicode="&#xc0;" horiz-adv-x="1482" d="M-53 90q0 144 86 327t239 369q154 183 352.5 344.5t392.5 260t326 98.5q68 0 116.5 -35.5t60.5 -95.5l57 69l115 -112l-252 -324q-217 -278 -330 -497.5t-113 -315.5q0 -43 33 -43q37 0 131.5 90.5t176.5 187t153 187.5l53 -63q-41 -57 -86.5 -115.5t-121 -146.5 t-142.5 -153t-141 -113t-127 -48q-55 0 -91 43.5t-36 118.5q0 83 40.5 195.5t114.5 234.5q3 5 2 8.5t-4 3.5l-233 -266q-89 -102 -140.5 -158.5t-120.5 -126t-115 -104.5t-97.5 -59.5t-95.5 -24.5q-95 0 -149 65.5t-54 198.5zM166 98q0 -98 65 -98q54 0 151 87.5t232 240.5 l832 934q4 8 4 20q0 35 -25 57.5t-63 22.5q-83 0 -207 -64.5t-297 -211t-352 -353.5q-175 -201 -257.5 -366.5t-82.5 -268.5zM1251 1825l107 82q84 -154 166 -289l-86 -53q-137 160 -187 260z" />
<glyph unicode="&#xc1;" horiz-adv-x="1482" d="M-53 90q0 144 86 327t239 369q154 183 352.5 344.5t392.5 260t326 98.5q68 0 116.5 -35.5t60.5 -95.5l57 69l115 -112l-252 -324q-217 -278 -330 -497.5t-113 -315.5q0 -43 33 -43q37 0 131.5 90.5t176.5 187t153 187.5l53 -63q-41 -57 -86.5 -115.5t-121 -146.5 t-142.5 -153t-141 -113t-127 -48q-55 0 -91 43.5t-36 118.5q0 83 40.5 195.5t114.5 234.5q3 5 2 8.5t-4 3.5l-233 -266q-89 -102 -140.5 -158.5t-120.5 -126t-115 -104.5t-97.5 -59.5t-95.5 -24.5q-95 0 -149 65.5t-54 198.5zM166 98q0 -98 65 -98q54 0 151 87.5t232 240.5 l832 934q4 8 4 20q0 35 -25 57.5t-63 22.5q-83 0 -207 -64.5t-297 -211t-352 -353.5q-175 -201 -257.5 -366.5t-82.5 -268.5zM1343 1630q161 157 261 291l88 -96q-93 -123 -265 -260z" />
<glyph unicode="&#xc2;" horiz-adv-x="1482" d="M-53 90q0 144 86 327t239 369q154 183 352.5 344.5t392.5 260t326 98.5q68 0 116.5 -35.5t60.5 -95.5l57 69l115 -112l-252 -324q-217 -278 -330 -497.5t-113 -315.5q0 -43 33 -43q37 0 131.5 90.5t176.5 187t153 187.5l53 -63q-41 -57 -86.5 -115.5t-121 -146.5 t-142.5 -153t-141 -113t-127 -48q-55 0 -91 43.5t-36 118.5q0 83 40.5 195.5t114.5 234.5q3 5 2 8.5t-4 3.5l-233 -266q-89 -102 -140.5 -158.5t-120.5 -126t-115 -104.5t-97.5 -59.5t-95.5 -24.5q-95 0 -149 65.5t-54 198.5zM166 98q0 -98 65 -98q54 0 151 87.5t232 240.5 l832 934q4 8 4 20q0 35 -25 57.5t-63 22.5q-83 0 -207 -64.5t-297 -211t-352 -353.5q-175 -201 -257.5 -366.5t-82.5 -268.5zM1184 1597q141 135 256 273l100 -21q49 -166 96 -276l-123 -29q-55 94 -73 191q-92 -108 -197 -197z" />
<glyph unicode="&#xc3;" horiz-adv-x="1482" d="M-53 90q0 144 86 327t239 369q154 183 352.5 344.5t392.5 260t326 98.5q68 0 116.5 -35.5t60.5 -95.5l57 69l115 -112l-252 -324q-217 -278 -330 -497.5t-113 -315.5q0 -43 33 -43q37 0 131.5 90.5t176.5 187t153 187.5l53 -63q-41 -57 -86.5 -115.5t-121 -146.5 t-142.5 -153t-141 -113t-127 -48q-55 0 -91 43.5t-36 118.5q0 83 40.5 195.5t114.5 234.5q3 5 2 8.5t-4 3.5l-233 -266q-89 -102 -140.5 -158.5t-120.5 -126t-115 -104.5t-97.5 -59.5t-95.5 -24.5q-95 0 -149 65.5t-54 198.5zM166 98q0 -98 65 -98q54 0 151 87.5t232 240.5 l832 934q4 8 4 20q0 35 -25 57.5t-63 22.5q-83 0 -207 -64.5t-297 -211t-352 -353.5q-175 -201 -257.5 -366.5t-82.5 -268.5zM1188 1667q0 38 33.5 64t83.5 26q34 0 66 -13t74 -36.5t75 -36.5l41 41q47 -17 47 -63q0 -41 -26.5 -62.5t-63.5 -21.5q-22 0 -49.5 8.5 t-78.5 29.5t-71 29l-41 -55q-42 8 -66 31.5t-24 58.5z" />
<glyph unicode="&#xc4;" horiz-adv-x="1482" d="M-53 90q0 144 86 327t239 369q154 183 352.5 344.5t392.5 260t326 98.5q68 0 116.5 -35.5t60.5 -95.5l57 69l115 -112l-252 -324q-217 -278 -330 -497.5t-113 -315.5q0 -43 33 -43q37 0 131.5 90.5t176.5 187t153 187.5l53 -63q-41 -57 -86.5 -115.5t-121 -146.5 t-142.5 -153t-141 -113t-127 -48q-55 0 -91 43.5t-36 118.5q0 83 40.5 195.5t114.5 234.5q3 5 2 8.5t-4 3.5l-233 -266q-89 -102 -140.5 -158.5t-120.5 -126t-115 -104.5t-97.5 -59.5t-95.5 -24.5q-95 0 -149 65.5t-54 198.5zM166 98q0 -98 65 -98q54 0 151 87.5t232 240.5 l832 934q4 8 4 20q0 35 -25 57.5t-63 22.5q-83 0 -207 -64.5t-297 -211t-352 -353.5q-175 -201 -257.5 -366.5t-82.5 -268.5zM1204 1640q-2 51 48.5 105.5t99.5 54.5q58 0 61 -57q1 -53 -47.5 -106.5t-95.5 -55.5q-63 -3 -66 59zM1440 1638q0 54 51 111t100 57q65 0 68 -59 q0 -54 -52 -112t-102 -60q-29 -2 -47 13.5t-18 49.5z" />
<glyph unicode="&#xc5;" horiz-adv-x="1482" d="M-53 90q0 144 86 327t239 369q154 183 352.5 344.5t392.5 260t326 98.5q68 0 116.5 -35.5t60.5 -95.5l57 69l115 -112l-252 -324q-217 -278 -330 -497.5t-113 -315.5q0 -43 33 -43q37 0 131.5 90.5t176.5 187t153 187.5l53 -63q-41 -57 -86.5 -115.5t-121 -146.5 t-142.5 -153t-141 -113t-127 -48q-55 0 -91 43.5t-36 118.5q0 83 40.5 195.5t114.5 234.5q3 5 2 8.5t-4 3.5l-233 -266q-89 -102 -140.5 -158.5t-120.5 -126t-115 -104.5t-97.5 -59.5t-95.5 -24.5q-95 0 -149 65.5t-54 198.5zM166 98q0 -98 65 -98q54 0 151 87.5t232 240.5 l832 934q4 8 4 20q0 35 -25 57.5t-63 22.5q-83 0 -207 -64.5t-297 -211t-352 -353.5q-175 -201 -257.5 -366.5t-82.5 -268.5zM1333 1669q0 107 86 193q59 59 135 59q49 0 76 -28.5t27 -71.5q0 -92 -60 -176q-63 -89 -155 -89q-51 0 -80 30t-29 83zM1423 1640q0 -16 13 -16 t40 28t50 66q49 79 49 123q0 14 -10 14q-14 0 -39.5 -23.5t-48.5 -59.5q-54 -78 -54 -132z" />
<glyph unicode="&#xc6;" horiz-adv-x="1898" d="M-53 90q0 144 86 327t239 369q154 183 352.5 344.5t392.5 260t326 98.5q72 0 122 -40t57 -106q141 72 288 113t275 41q163 0 238 -49t75 -125q0 -70 -76 -147.5t-191.5 -130t-221.5 -52.5q-129 0 -129 88q0 39 52 83t118 72t110 28l23 -103q76 35 127 78.5t51 77.5 q0 63 -129 63q-106 0 -259.5 -62.5t-287.5 -150.5t-229.5 -189.5t-95.5 -172.5q0 -64 100 -64q67 0 141 19l219 55l27 -115l-201 -69q-128 -45 -243.5 -118.5t-194 -152.5t-124.5 -158t-46 -139q0 -122 119 -122q60 0 126 30.5t122 75.5t114 108.5t99.5 118.5t83.5 117 l79 -117q-39 -69 -104 -144t-148 -144.5t-185.5 -114.5t-199.5 -45q-151 0 -236 72t-85 215q0 44 16 94q-21 -17 -72 -60.5t-74 -62.5t-69 -56.5t-71 -56t-64.5 -46.5t-66.5 -42t-59 -29.5t-59 -21.5t-52 -6q-96 0 -150.5 65.5t-54.5 198.5zM166 98q0 -52 17 -75t53 -23 q41 0 122 49t181 124t204.5 153.5t215.5 149t190 99.5q93 35 168 58v4q-43 -6 -84 -6q-85 0 -144 45t-59 119q0 129 116 263.5t300 241.5q-6 28 -29 45t-55 17q-83 0 -207 -64.5t-297 -211t-352 -353.5q-175 -201 -257.5 -366.5t-82.5 -268.5z" />
<glyph unicode="&#xc7;" horiz-adv-x="1124" d="M-49 -416q16 -4 43 -4q84 0 145 25q29 12 48.5 31t19.5 34q0 21 -33 21q-24 0 -57 -13l-29 78l72 94q-88 36 -136.5 121.5t-48.5 216.5q0 133 56 287t148.5 296.5t215.5 276.5t252.5 232.5t264.5 157.5t247 59q98 0 158.5 -56.5t60.5 -150.5q0 -81 -61.5 -190.5 t-154 -191t-169.5 -81.5q-39 0 -63.5 21t-24.5 67q0 63 66.5 139.5t122.5 102.5l63 -67q46 54 76.5 113t30.5 89q0 35 -25 55.5t-74 20.5q-63 0 -161.5 -57t-206.5 -151t-218 -220t-197.5 -257t-142.5 -270.5t-55 -252.5q0 -104 35 -161.5t100 -57.5q54 0 113.5 31.5 t107.5 74.5t103.5 111.5t89.5 117.5t78 117l88 -125q-36 -64 -96.5 -136t-140 -142.5t-177 -117t-188.5 -46.5q-23 0 -33 2l-43 -59q40 -14 63 -46t23 -79q0 -92 -106 -148q-55 -28 -140 -28q-66 0 -98 14z" />
<glyph unicode="&#xc8;" horiz-adv-x="1069" d="M-121 113q0 151 164 298.5t426 221.5v4q-40 -6 -80 -6q-85 0 -144 45t-59 119q0 97 68 200.5t181 191.5t249 158.5t283.5 111t273.5 40.5q163 0 238 -49t75 -125q0 -70 -76 -147.5t-191.5 -130t-221.5 -52.5q-129 0 -129 88q0 39 52 83t118.5 72t110.5 28l22 -103 q76 35 127 78.5t51 77.5q0 63 -129 63q-106 0 -259.5 -62.5t-287.5 -150.5t-229.5 -189.5t-95.5 -172.5q0 -64 100 -64q67 0 141 19l220 55l26 -115l-201 -69q-128 -45 -243.5 -118.5t-194 -152.5t-124.5 -158t-46 -139q0 -122 119 -122q60 0 126 30.5t122 75.5t114 108.5 t99.5 118.5t83.5 117l80 -117q-39 -69 -104 -144t-148 -144.5t-185.5 -114.5t-199.5 -45q-151 0 -236.5 72.5t-85.5 214.5zM1100 1825l106 82q84 -154 166 -289l-86 -53q-134 157 -186 260z" />
<glyph unicode="&#xc9;" horiz-adv-x="1069" d="M-121 113q0 151 164 298.5t426 221.5v4q-40 -6 -80 -6q-85 0 -144 45t-59 119q0 97 68 200.5t181 191.5t249 158.5t283.5 111t273.5 40.5q163 0 238 -49t75 -125q0 -70 -76 -147.5t-191.5 -130t-221.5 -52.5q-129 0 -129 88q0 39 52 83t118.5 72t110.5 28l22 -103 q76 35 127 78.5t51 77.5q0 63 -129 63q-106 0 -259.5 -62.5t-287.5 -150.5t-229.5 -189.5t-95.5 -172.5q0 -64 100 -64q67 0 141 19l220 55l26 -115l-201 -69q-128 -45 -243.5 -118.5t-194 -152.5t-124.5 -158t-46 -139q0 -122 119 -122q60 0 126 30.5t122 75.5t114 108.5 t99.5 118.5t83.5 117l80 -117q-39 -69 -104 -144t-148 -144.5t-185.5 -114.5t-199.5 -45q-151 0 -236.5 72.5t-85.5 214.5zM1219 1630q157 154 260 291l88 -96q-95 -125 -264 -260z" />
<glyph unicode="&#xca;" horiz-adv-x="1069" d="M-121 113q0 151 164 298.5t426 221.5v4q-40 -6 -80 -6q-85 0 -144 45t-59 119q0 97 68 200.5t181 191.5t249 158.5t283.5 111t273.5 40.5q163 0 238 -49t75 -125q0 -70 -76 -147.5t-191.5 -130t-221.5 -52.5q-129 0 -129 88q0 39 52 83t118.5 72t110.5 28l22 -103 q76 35 127 78.5t51 77.5q0 63 -129 63q-106 0 -259.5 -62.5t-287.5 -150.5t-229.5 -189.5t-95.5 -172.5q0 -64 100 -64q67 0 141 19l220 55l26 -115l-201 -69q-128 -45 -243.5 -118.5t-194 -152.5t-124.5 -158t-46 -139q0 -122 119 -122q60 0 126 30.5t122 75.5t114 108.5 t99.5 118.5t83.5 117l80 -117q-39 -69 -104 -144t-148 -144.5t-185.5 -114.5t-199.5 -45q-151 0 -236.5 72.5t-85.5 214.5zM1104 1597q141 135 256 273l100 -21q49 -166 96 -276l-122 -29q-56 97 -74 191q-92 -108 -197 -197z" />
<glyph unicode="&#xcb;" horiz-adv-x="1069" d="M-121 113q0 151 164 298.5t426 221.5v4q-40 -6 -80 -6q-85 0 -144 45t-59 119q0 97 68 200.5t181 191.5t249 158.5t283.5 111t273.5 40.5q163 0 238 -49t75 -125q0 -70 -76 -147.5t-191.5 -130t-221.5 -52.5q-129 0 -129 88q0 39 52 83t118.5 72t110.5 28l22 -103 q76 35 127 78.5t51 77.5q0 63 -129 63q-106 0 -259.5 -62.5t-287.5 -150.5t-229.5 -189.5t-95.5 -172.5q0 -64 100 -64q67 0 141 19l220 55l26 -115l-201 -69q-128 -45 -243.5 -118.5t-194 -152.5t-124.5 -158t-46 -139q0 -122 119 -122q60 0 126 30.5t122 75.5t114 108.5 t99.5 118.5t83.5 117l80 -117q-39 -69 -104 -144t-148 -144.5t-185.5 -114.5t-199.5 -45q-151 0 -236.5 72.5t-85.5 214.5zM1130 1640q-2 51 48.5 105.5t99.5 54.5q58 0 61 -57q1 -53 -47.5 -106.5t-95.5 -55.5q-63 -3 -66 59zM1366 1638q0 54 51.5 111t100.5 57 q64 0 67 -59q0 -54 -52 -112.5t-101 -59.5q-30 -2 -48 13.5t-18 49.5z" />
<glyph unicode="&#xcc;" horiz-adv-x="901" d="M88 -12q35 60 91 147t104 158t128 190t124 185q216 325 310.5 482t94.5 212q0 41 -29 41q-45 0 -148.5 -100.5t-219.5 -243t-230 -303.5l-133 127q90 144 231 287t284 235t233 92q69 0 105 -42t36 -124q0 -107 -77.5 -261.5t-284.5 -479.5q-50 -79 -151.5 -235t-184 -286 t-150.5 -243zM795 1825l106 82q84 -154 166 -289l-86 -53q-134 157 -186 260z" />
<glyph unicode="&#xcd;" horiz-adv-x="901" d="M88 -12q35 60 91 147t104 158t128 190t124 185q216 325 310.5 482t94.5 212q0 41 -29 41q-45 0 -148.5 -100.5t-219.5 -243t-230 -303.5l-133 127q90 144 231 287t284 235t233 92q69 0 105 -42t36 -124q0 -107 -77.5 -261.5t-284.5 -479.5q-50 -79 -151.5 -235t-184 -286 t-150.5 -243zM975 1630q157 154 260 291l88 -96q-95 -125 -264 -260z" />
<glyph unicode="&#xce;" horiz-adv-x="901" d="M88 -12q35 60 91 147t104 158t128 190t124 185q216 325 310.5 482t94.5 212q0 41 -29 41q-45 0 -148.5 -100.5t-219.5 -243t-230 -303.5l-133 127q90 144 231 287t284 235t233 92q69 0 105 -42t36 -124q0 -107 -77.5 -261.5t-284.5 -479.5q-50 -79 -151.5 -235t-184 -286 t-150.5 -243zM764 1597q141 135 256 273l100 -21q47 -159 97 -276l-123 -29q-56 97 -74 191q-92 -108 -197 -197z" />
<glyph unicode="&#xcf;" horiz-adv-x="901" d="M88 -12q35 60 91 147t104 158t128 190t124 185q216 325 310.5 482t94.5 212q0 41 -29 41q-45 0 -148.5 -100.5t-219.5 -243t-230 -303.5l-133 127q90 144 231 287t284 235t233 92q69 0 105 -42t36 -124q0 -107 -77.5 -261.5t-284.5 -479.5q-50 -79 -151.5 -235t-184 -286 t-150.5 -243zM813 1640q-2 51 48.5 105.5t99.5 54.5q58 0 61 -57q1 -53 -47.5 -106.5t-95.5 -55.5q-63 -3 -66 59zM1049 1638q0 54 51 111t100 57q65 0 68 -59q0 -54 -52 -112t-102 -60q-29 -2 -47 13.5t-18 49.5z" />
<glyph unicode="&#xd0;" horiz-adv-x="1306" d="M-160 -2q8 28 41 100q85 165 221 394q-13 -3 -39.5 -8.5t-39.5 -8.5l-39 129q182 30 204 33q185 301 396 608q-277 -99 -510 -227l-72 149q88 51 216 105.5t282.5 106.5t329.5 85t323 33q177 0 260.5 -82t83.5 -229q0 -112 -75.5 -258.5t-198 -292.5t-283.5 -290 t-326.5 -255.5t-334 -183.5t-299.5 -80zM33 -29q103 33 245 119t288.5 199t292 248.5t257.5 263.5t182 247.5t70 198.5q0 69 -43.5 102t-138.5 33q-143 0 -344 -53q-242 -371 -418 -667q137 8 203 10l14 -109q-134 -11 -293 -31q-178 -301 -315 -561z" />
<glyph unicode="&#xd1;" horiz-adv-x="1388" d="M-420 -170q-9 82 72 174.5t178 128.5l45 -76q212 189 483.5 558t597.5 882l121 -121q-182 -607 -256 -1288l821 1409l119 -76l-983 -1595l-164 82q39 573 193 1190q-72 -115 -141.5 -222.5t-162 -244t-177 -252t-178.5 -231.5t-174 -198.5t-156.5 -136.5t-132.5 -61 q-42 -4 -70.5 17.5t-34.5 60.5zM1157 1667q0 38 33.5 64t83.5 26q34 0 66 -13t74 -36.5t75 -36.5l41 41q47 -17 47 -63q0 -41 -26.5 -62.5t-63.5 -21.5q-22 0 -49.5 8.5t-78.5 29.5t-71 29l-41 -55q-42 8 -66 31.5t-24 58.5z" />
<glyph unicode="&#xd2;" horiz-adv-x="1292" d="M-23 166q-2 183 72.5 376.5t237.5 420.5q181 252 378 393t357 141q74 0 131.5 -27t92.5 -73.5t52.5 -104.5t18.5 -125q2 -185 -72 -373t-254 -448q-162 -232 -359 -376t-349 -144q-150 0 -227 96t-79 244zM139 96q3 -141 123 -141q102 0 254.5 145t331.5 426 q176 278 247 432.5t70 276.5q-3 141 -114 141q-209 0 -590 -561q-322 -472 -322 -719zM1006 1825l106 82q84 -154 166 -289l-86 -53q-134 157 -186 260z" />
<glyph unicode="&#xd3;" horiz-adv-x="1292" d="M-23 166q-2 183 72.5 376.5t237.5 420.5q181 252 378 393t357 141q74 0 131.5 -27t92.5 -73.5t52.5 -104.5t18.5 -125q2 -185 -72 -373t-254 -448q-162 -232 -359 -376t-349 -144q-150 0 -227 96t-79 244zM139 96q3 -141 123 -141q102 0 254.5 145t331.5 426 q176 278 247 432.5t70 276.5q-3 141 -114 141q-209 0 -590 -561q-322 -472 -322 -719zM1077 1630q157 154 260 291l88 -96q-95 -125 -264 -260z" />
<glyph unicode="&#xd4;" horiz-adv-x="1292" d="M-23 166q-2 183 72.5 376.5t237.5 420.5q181 252 378 393t357 141q74 0 131.5 -27t92.5 -73.5t52.5 -104.5t18.5 -125q2 -185 -72 -373t-254 -448q-162 -232 -359 -376t-349 -144q-150 0 -227 96t-79 244zM139 96q3 -141 123 -141q102 0 254.5 145t331.5 426 q176 278 247 432.5t70 276.5q-3 141 -114 141q-209 0 -590 -561q-322 -472 -322 -719zM899 1597q141 135 256 273l100 -21q47 -159 97 -276l-123 -29q-56 97 -74 191q-92 -108 -197 -197z" />
<glyph unicode="&#xd5;" horiz-adv-x="1292" d="M-23 166q-2 183 72.5 376.5t237.5 420.5q181 252 378 393t357 141q74 0 131.5 -27t92.5 -73.5t52.5 -104.5t18.5 -125q2 -185 -72 -373t-254 -448q-162 -232 -359 -376t-349 -144q-150 0 -227 96t-79 244zM139 96q3 -141 123 -141q102 0 254.5 145t331.5 426 q176 278 247 432.5t70 276.5q-3 141 -114 141q-209 0 -590 -561q-322 -472 -322 -719zM950 1677q0 38 33.5 64t83.5 26q34 0 66 -13t74 -36.5t75 -36.5l41 41q47 -17 47 -63q0 -41 -26.5 -62.5t-63.5 -21.5q-22 0 -49.5 8.5t-78.5 29.5t-71 29l-41 -55q-42 8 -66 31.5 t-24 58.5z" />
<glyph unicode="&#xd6;" horiz-adv-x="1292" d="M-23 166q-2 183 72.5 376.5t237.5 420.5q181 252 378 393t357 141q74 0 131.5 -27t92.5 -73.5t52.5 -104.5t18.5 -125q2 -185 -72 -373t-254 -448q-162 -232 -359 -376t-349 -144q-150 0 -227 96t-79 244zM139 96q3 -141 123 -141q102 0 254.5 145t331.5 426 q176 278 247 432.5t70 276.5q-3 141 -114 141q-209 0 -590 -561q-322 -472 -322 -719zM952 1640q-2 51 48.5 105.5t99.5 54.5q58 0 61 -57q1 -53 -47.5 -106.5t-95.5 -55.5q-63 -3 -66 59zM1188 1638q0 54 51 111t100 57q65 0 68 -59q0 -54 -52 -112t-102 -60 q-29 -2 -47 13.5t-18 49.5z" />
<glyph unicode="&#xd7;" horiz-adv-x="643" d="M-76 299l264 188l-36 215l143 60l20 -182l267 190l24 -86l-278 -201l26 -225l-125 -41q-18 131 -26 176l-262 -188z" />
<glyph unicode="&#xd8;" horiz-adv-x="1271" d="M-141 -227l166 196q-48 85 -48 197q-2 183 72.5 376.5t237.5 420.5q181 252 378 393t357 141q122 0 199 -74l211 254l41 -106l-193 -230q37 -75 37 -174q2 -185 -72 -373t-254 -448q-162 -232 -359 -376t-349 -144q-119 0 -195 63l-201 -241zM139 96q3 -141 123 -141 q102 0 254.5 145t331.5 426q176 278 247 432.5t70 276.5q-3 141 -114 141q-209 0 -590 -561q-322 -472 -322 -719z" />
<glyph unicode="&#xd9;" horiz-adv-x="1331" d="M-47 90q0 156 117 393q99 203 276 479.5t371 534.5l141 -129q-473 -691 -641 -1055q-65 -141 -65 -254q0 -51 18 -74.5t47 -23.5q131 0 588 705l536 831l146 -131l-414 -657q-125 -199 -186.5 -348.5t-61.5 -219.5q0 -43 33 -43q35 0 133 97.5t186.5 203.5t161.5 201 l54 -63q-46 -61 -93 -122t-127.5 -156t-149.5 -163.5t-142 -120t-121 -51.5q-58 0 -95.5 43.5t-37.5 118.5q0 86 18 162q-298 -422 -487 -422q-98 0 -151.5 68t-53.5 196zM956 1825l107 82q84 -154 166 -289l-86 -53q-137 160 -187 260z" />
<glyph unicode="&#xda;" horiz-adv-x="1331" d="M-47 90q0 156 117 393q99 203 276 479.5t371 534.5l141 -129q-473 -691 -641 -1055q-65 -141 -65 -254q0 -51 18 -74.5t47 -23.5q131 0 588 705l536 831l146 -131l-414 -657q-125 -199 -186.5 -348.5t-61.5 -219.5q0 -43 33 -43q35 0 133 97.5t186.5 203.5t161.5 201 l54 -63q-46 -61 -93 -122t-127.5 -156t-149.5 -163.5t-142 -120t-121 -51.5q-58 0 -95.5 43.5t-37.5 118.5q0 86 18 162q-298 -422 -487 -422q-98 0 -151.5 68t-53.5 196zM1106 1630q157 154 260 291l88 -96q-95 -125 -264 -260z" />
<glyph unicode="&#xdb;" horiz-adv-x="1331" d="M-47 90q0 156 117 393q99 203 276 479.5t371 534.5l141 -129q-473 -691 -641 -1055q-65 -141 -65 -254q0 -51 18 -74.5t47 -23.5q131 0 588 705l536 831l146 -131l-414 -657q-125 -199 -186.5 -348.5t-61.5 -219.5q0 -43 33 -43q35 0 133 97.5t186.5 203.5t161.5 201 l54 -63q-46 -61 -93 -122t-127.5 -156t-149.5 -163.5t-142 -120t-121 -51.5q-58 0 -95.5 43.5t-37.5 118.5q0 86 18 162q-298 -422 -487 -422q-98 0 -151.5 68t-53.5 196zM948 1597q141 135 256 273l101 -21q49 -166 96 -276l-123 -29q-56 97 -74 191q-94 -111 -196 -197z " />
<glyph unicode="&#xdc;" horiz-adv-x="1331" d="M-47 90q0 156 117 393q99 203 276 479.5t371 534.5l141 -129q-473 -691 -641 -1055q-65 -141 -65 -254q0 -51 18 -74.5t47 -23.5q131 0 588 705l536 831l146 -131l-414 -657q-125 -199 -186.5 -348.5t-61.5 -219.5q0 -43 33 -43q35 0 133 97.5t186.5 203.5t161.5 201 l54 -63q-46 -61 -93 -122t-127.5 -156t-149.5 -163.5t-142 -120t-121 -51.5q-58 0 -95.5 43.5t-37.5 118.5q0 86 18 162q-298 -422 -487 -422q-98 0 -151.5 68t-53.5 196zM942 1640q-2 51 48.5 105.5t99.5 54.5q58 0 61 -57q1 -53 -47.5 -106.5t-95.5 -55.5q-63 -3 -66 59z M1178 1638q0 54 51 111t100 57q65 0 68 -59q0 -54 -52 -112t-102 -60q-29 -2 -47 13.5t-18 49.5z" />
<glyph unicode="&#xdd;" horiz-adv-x="1144" d="M-154 -385q0 94 98 194.5t241.5 176t297.5 116.5q59 90 170 254q-198 -215 -346 -215q-86 0 -135 57t-49 164q0 119 56.5 245.5t203.5 332.5q151 213 212.5 308t61.5 126q0 29 -26 29q-28 0 -108 -74t-185 -201q-87 -103 -169 -224.5t-130 -215.5l-125 133 q42 82 126 195.5t179 208.5q124 124 240.5 198t183.5 74q139 0 139 -176q0 -81 -71 -217t-217 -356q-201 -298 -201 -414q0 -41 15 -58.5t46 -17.5q58 0 158.5 86.5t202 210.5t184.5 237.5t131 190.5h2q48 78 305 514l119 -102q-168 -319 -296.5 -540t-336.5 -548 q-86 -135 -149.5 -229t-157 -217.5t-172.5 -204.5q-102 -102 -181 -154.5t-149 -52.5q-78 0 -123 44.5t-45 121.5zM-33 -408q0 -57 49 -57q73 0 217 201q92 126 181 256q-94 -33 -197 -101.5t-176.5 -152t-73.5 -146.5zM1026 1630q157 154 260 291l88 -96 q-95 -125 -264 -260z" />
<glyph unicode="&#xde;" horiz-adv-x="1296" d="M-160 -10q260 514 639 1079q-282 -103 -483 -217l-72 149q115 67 301.5 140.5t386.5 124.5q118 169 222 305l116 -103q-19 -28 -55.5 -84t-46.5 -71q123 18 239 18q166 0 244 -71.5t78 -200.5q0 -131 -89.5 -271t-245.5 -265t-385.5 -229t-491.5 -159l-25 60 q-112 -198 -197 -369zM211 268q210 63 411 171.5t343 227t228.5 238.5t86.5 209q0 52 -38.5 77.5t-121.5 25.5q-149 0 -375 -62q-301 -477 -534 -887z" />
<glyph unicode="&#xdf;" horiz-adv-x="602" d="M-328 -43q97 242 293 573q238 405 479 656q194 194 332 194q65 0 99 -33t34 -90q0 -115 -133 -231q-42 -36 -118 -86t-132 -93.5t-84 -88.5q-33 -53 -50 -172t-33 -251t-44 -200q-49 -124 -118.5 -186t-147.5 -62q-47 0 -83 37.5t-36 110.5q0 42 11 84l122 49 q-24 -86 -24 -143q0 -54 27 -54q33 0 77 117q25 68 41 158.5t23 161.5t31 158t65 157q39 64 83 110.5t139 132t173 162.5q97 97 97 140q0 32 -35 32q-46 0 -139 -86t-203 -225q-87 -106 -181 -252t-167 -284q-85 -155 -281 -570z" />
<glyph unicode="&#xe0;" horiz-adv-x="753" d="M-207 166q0 104 66.5 230.5t189.5 252.5q92 97 194.5 154t178.5 57q39 0 66 -18t36 -51q7 9 21.5 26.5t21.5 26.5l105 -96q-148 -200 -231 -341.5t-83 -187.5q0 -18 17 -18q34 0 166.5 142t220.5 257l53 -63q-37 -49 -73 -95t-101.5 -120t-121.5 -126.5t-120 -92.5 t-110 -40t-72.5 27t-26.5 78q0 59 29 123q-208 -262 -315 -262q-51 0 -81 37t-30 100zM-29 203q0 -31 25 -31q40 0 197 189t231 298l47 66q-2 14 -12 22.5t-25 8.5q-38 0 -99.5 -43.5t-123.5 -112.5q-109 -122 -174.5 -232.5t-65.5 -164.5zM360 1192l107 82 q84 -154 166 -289l-86 -53q-137 160 -187 260z" />
<glyph unicode="&#xe1;" horiz-adv-x="753" d="M-207 166q0 104 66.5 230.5t189.5 252.5q92 97 194.5 154t178.5 57q39 0 66 -18t36 -51q7 9 21.5 26.5t21.5 26.5l105 -96q-148 -200 -231 -341.5t-83 -187.5q0 -18 17 -18q34 0 166.5 142t220.5 257l53 -63q-37 -49 -73 -95t-101.5 -120t-121.5 -126.5t-120 -92.5 t-110 -40t-72.5 27t-26.5 78q0 59 29 123q-208 -262 -315 -262q-51 0 -81 37t-30 100zM-29 203q0 -31 25 -31q40 0 197 189t231 298l47 66q-2 14 -12 22.5t-25 8.5q-38 0 -99.5 -43.5t-123.5 -112.5q-109 -122 -174.5 -232.5t-65.5 -164.5zM410 997q157 154 260 291l88 -96 q-95 -125 -264 -260z" />
<glyph unicode="&#xe2;" horiz-adv-x="753" d="M-207 166q0 104 66.5 230.5t189.5 252.5q92 97 194.5 154t178.5 57q39 0 66 -18t36 -51q7 9 21.5 26.5t21.5 26.5l105 -96q-148 -200 -231 -341.5t-83 -187.5q0 -18 17 -18q34 0 166.5 142t220.5 257l53 -63q-37 -49 -73 -95t-101.5 -120t-121.5 -126.5t-120 -92.5 t-110 -40t-72.5 27t-26.5 78q0 59 29 123q-208 -262 -315 -262q-51 0 -81 37t-30 100zM-29 203q0 -31 25 -31q40 0 197 189t231 298l47 66q-2 14 -12 22.5t-25 8.5q-38 0 -99.5 -43.5t-123.5 -112.5q-109 -122 -174.5 -232.5t-65.5 -164.5zM254 965q145 139 256 272l100 -20 q48 -162 97 -277l-123 -29q-56 97 -74 191q-92 -108 -197 -197z" />
<glyph unicode="&#xe3;" horiz-adv-x="753" d="M-207 166q0 104 66.5 230.5t189.5 252.5q92 97 194.5 154t178.5 57q39 0 66 -18t36 -51q7 9 21.5 26.5t21.5 26.5l105 -96q-148 -200 -231 -341.5t-83 -187.5q0 -18 17 -18q34 0 166.5 142t220.5 257l53 -63q-37 -49 -73 -95t-101.5 -120t-121.5 -126.5t-120 -92.5 t-110 -40t-72.5 27t-26.5 78q0 59 29 123q-208 -262 -315 -262q-51 0 -81 37t-30 100zM-29 203q0 -31 25 -31q40 0 197 189t231 298l47 66q-2 14 -12 22.5t-25 8.5q-38 0 -99.5 -43.5t-123.5 -112.5q-109 -122 -174.5 -232.5t-65.5 -164.5zM301 1034q0 38 33.5 64t83.5 26 q34 0 66 -13t74 -36.5t75 -36.5l41 41q47 -17 47 -63q0 -41 -26.5 -62.5t-63.5 -21.5q-22 0 -49.5 8.5t-78.5 29.5t-71 29l-41 -55q-42 8 -66 31.5t-24 58.5z" />
<glyph unicode="&#xe4;" horiz-adv-x="753" d="M-207 166q0 104 66.5 230.5t189.5 252.5q92 97 194.5 154t178.5 57q39 0 66 -18t36 -51q7 9 21.5 26.5t21.5 26.5l105 -96q-148 -200 -231 -341.5t-83 -187.5q0 -18 17 -18q34 0 166.5 142t220.5 257l53 -63q-37 -49 -73 -95t-101.5 -120t-121.5 -126.5t-120 -92.5 t-110 -40t-72.5 27t-26.5 78q0 59 29 123q-208 -262 -315 -262q-51 0 -81 37t-30 100zM-29 203q0 -31 25 -31q40 0 197 189t231 298l47 66q-2 14 -12 22.5t-25 8.5q-38 0 -99.5 -43.5t-123.5 -112.5q-109 -122 -174.5 -232.5t-65.5 -164.5zM299 1008q-2 51 48 105t99 54 q59 0 62 -57q1 -53 -47.5 -106.5t-95.5 -55.5q-63 -3 -66 60zM535 1006q0 54 51 111t100 57q65 0 68 -60q0 -54 -52 -112t-102 -60q-29 -2 -47 14t-18 50z" />
<glyph unicode="&#xe5;" horiz-adv-x="753" d="M-207 166q0 104 66.5 230.5t189.5 252.5q92 97 194.5 154t178.5 57q39 0 66 -18t36 -51q7 9 21.5 26.5t21.5 26.5l105 -96q-148 -200 -231 -341.5t-83 -187.5q0 -18 17 -18q34 0 166.5 142t220.5 257l53 -63q-37 -49 -73 -95t-101.5 -120t-121.5 -126.5t-120 -92.5 t-110 -40t-72.5 27t-26.5 78q0 59 29 123q-208 -262 -315 -262q-51 0 -81 37t-30 100zM-29 203q0 -31 25 -31q40 0 197 189t231 298l47 66q-2 14 -12 22.5t-25 8.5q-38 0 -99.5 -43.5t-123.5 -112.5q-109 -122 -174.5 -232.5t-65.5 -164.5zM377 1036q0 107 86 193 q59 59 135 59q49 0 75.5 -28.5t26.5 -71.5q0 -93 -59 -176q-62 -88 -156 -88q-51 0 -79.5 29.5t-28.5 82.5zM467 1008q0 -17 12 -17q13 0 40 28t50 66q49 79 49 123q0 15 -10 15q-14 0 -39.5 -24t-48.5 -60q-53 -77 -53 -131z" />
<glyph unicode="&#xe6;" horiz-adv-x="917" d="M-207 166q0 104 66.5 230.5t189.5 252.5q92 97 194.5 154t178.5 57q48 0 77 -28.5t29 -77.5q0 -19 -2 -27q145 107 250 107q57 0 85 -27.5t28 -73.5q0 -71 -78 -160t-198 -165.5t-246 -120.5q-23 -64 -23 -111q0 -86 62 -86q34 0 91.5 42.5t115.5 101t125 135.5 t109.5 130.5t78.5 100.5l53 -63q-56 -72 -92 -117t-92.5 -113t-97.5 -111t-94.5 -93t-96.5 -78.5t-89.5 -48t-86.5 -19.5q-76 0 -124 52t-48 143q0 33 10 81q-172 -204 -268 -204q-49 0 -78 37t-29 100zM-29 203q0 -31 21 -31q5 0 11 2.5t14.5 8.5t15.5 12t18 17l19.5 19.5 t22 24t22.5 25t25.5 28.5t25.5 29q211 251 221 262q42 45 70 68q8 19 8 49q0 17 -8.5 28t-22.5 11q-38 0 -99.5 -43.5t-123.5 -112.5q-109 -122 -174.5 -232.5t-65.5 -164.5zM410 381q129 70 239.5 181t110.5 169q0 14 -12 14q-28 0 -107 -72t-152 -169q-34 -43 -79 -123z " />
<glyph unicode="&#xe7;" horiz-adv-x="593" d="M-369 -322q16 -4 43 -4q85 0 146 25q29 12 48 31t19 34q0 21 -32 21q-28 0 -58 -12l-28 77l67 89q-80 51 -80 170q0 222 264 507q102 111 219 189t193 78q53 0 82 -27t29 -76q0 -69 -36 -143.5t-93 -124t-113 -49.5q-82 0 -82 84q0 35 33 76t61 51l60 -27q34 33 57 70.5 t23 62.5q0 23 -33 23q-48 0 -154 -107t-190 -235q-70 -109 -102.5 -193.5t-32.5 -132.5q0 -82 57 -82q47 0 132 62t175.5 153t168 178.5t128.5 153.5l53 -63q-60 -80 -120 -153.5t-141.5 -160.5t-155 -151t-153.5 -109t-144 -49l-39 -51q40 -14 63 -46t23 -79 q0 -92 -107 -148q-55 -28 -139 -28q-66 0 -98 14z" />
<glyph unicode="&#xe8;" horiz-adv-x="548" d="M-223 152q0 97 60.5 214t168.5 234q98 106 204.5 170t184.5 64q57 0 85 -27.5t28 -73.5q0 -71 -78 -160t-198 -165.5t-246 -120.5q-23 -64 -23 -111q0 -86 62 -86q38 0 99 43t119 100.5t126.5 136t109 129.5t78.5 101l53 -63q-59 -76 -92 -117.5t-92 -112.5t-98.5 -111.5 t-95 -92.5t-98.5 -79.5t-92.5 -47t-92.5 -19.5q-76 0 -124 52t-48 143zM29 381q129 70 239.5 181t110.5 169q0 14 -12 14q-28 0 -106 -72t-152 -169q-37 -47 -80 -123zM233 1157l107 82q84 -154 166 -289l-86 -53q-137 160 -187 260z" />
<glyph unicode="&#xe9;" horiz-adv-x="548" d="M-223 152q0 97 60.5 214t168.5 234q98 106 204.5 170t184.5 64q57 0 85 -27.5t28 -73.5q0 -71 -78 -160t-198 -165.5t-246 -120.5q-23 -64 -23 -111q0 -86 62 -86q38 0 99 43t119 100.5t126.5 136t109 129.5t78.5 101l53 -63q-59 -76 -92 -117.5t-92 -112.5t-98.5 -111.5 t-95 -92.5t-98.5 -79.5t-92.5 -47t-92.5 -19.5q-76 0 -124 52t-48 143zM29 381q129 70 239.5 181t110.5 169q0 14 -12 14q-28 0 -106 -72t-152 -169q-37 -47 -80 -123zM348 963q160 156 260 290l88 -96q-95 -125 -264 -260z" />
<glyph unicode="&#xea;" horiz-adv-x="548" d="M-223 152q0 97 60.5 214t168.5 234q98 106 204.5 170t184.5 64q57 0 85 -27.5t28 -73.5q0 -71 -78 -160t-198 -165.5t-246 -120.5q-23 -64 -23 -111q0 -86 62 -86q38 0 99 43t119 100.5t126.5 136t109 129.5t78.5 101l53 -63q-59 -76 -92 -117.5t-92 -112.5t-98.5 -111.5 t-95 -92.5t-98.5 -79.5t-92.5 -47t-92.5 -19.5q-76 0 -124 52t-48 143zM29 381q129 70 239.5 181t110.5 169q0 14 -12 14q-28 0 -106 -72t-152 -169q-37 -47 -80 -123zM207 930q145 139 256 272l100 -20q50 -169 96 -277l-122 -28q-56 97 -74 190q-92 -108 -197 -197z" />
<glyph unicode="&#xeb;" horiz-adv-x="548" d="M-223 152q0 97 60.5 214t168.5 234q98 106 204.5 170t184.5 64q57 0 85 -27.5t28 -73.5q0 -71 -78 -160t-198 -165.5t-246 -120.5q-23 -64 -23 -111q0 -86 62 -86q38 0 99 43t119 100.5t126.5 136t109 129.5t78.5 101l53 -63q-59 -76 -92 -117.5t-92 -112.5t-98.5 -111.5 t-95 -92.5t-98.5 -79.5t-92.5 -47t-92.5 -19.5q-76 0 -124 52t-48 143zM29 381q129 70 239.5 181t110.5 169q0 14 -12 14q-28 0 -106 -72t-152 -169q-37 -47 -80 -123zM244 973q-2 51 48 105.5t99 54.5q59 0 62 -58q1 -53 -48 -106.5t-96 -55.5q-62 -3 -65 60zM479 971 q0 54 51.5 111t100.5 57q64 0 67 -60q0 -54 -52 -112.5t-101 -59.5q-29 -2 -47.5 14t-18.5 50z" />
<glyph unicode="&#xec;" horiz-adv-x="387" d="M-168 203q0 187 227 467q32 40 70 78l96 -97q-121 -166 -184 -295q-43 -88 -43 -125q0 -22 16 -22q42 0 167 135.5t214 255.5l54 -63q-36 -48 -71.5 -92t-99 -116.5t-118 -123.5t-115.5 -90t-104 -39q-47 0 -78 32t-31 95zM74 1090l106 81q78 -142 166 -288l-86 -54 q-133 155 -186 261z" />
<glyph unicode="&#xed;" horiz-adv-x="387" d="M-168 203q0 187 227 467q32 40 70 78l96 -97q-121 -166 -184 -295q-43 -88 -43 -125q0 -22 16 -22q42 0 167 135.5t214 255.5l54 -63q-36 -48 -71.5 -92t-99 -116.5t-118 -123.5t-115.5 -90t-104 -39q-47 0 -78 32t-31 95zM205 893q157 154 260 291l88 -97 q-95 -125 -264 -260z" />
<glyph unicode="&#xee;" horiz-adv-x="387" d="M-168 203q0 187 227 467q32 40 70 78l96 -97q-121 -166 -184 -295q-43 -88 -43 -125q0 -22 16 -22q42 0 167 135.5t214 255.5l54 -63q-36 -48 -71.5 -92t-99 -116.5t-118 -123.5t-115.5 -90t-104 -39q-47 0 -78 32t-31 95zM2 879q145 139 256 272l100 -21 q47 -159 97 -276l-123 -29q-56 97 -74 191q-92 -108 -197 -197z" />
<glyph unicode="&#xef;" horiz-adv-x="387" d="M-168 203q0 187 227 467q32 40 70 78l96 -97q-121 -166 -184 -295q-43 -88 -43 -125q0 -22 16 -22q42 0 167 135.5t214 255.5l54 -63q-36 -48 -71.5 -92t-99 -116.5t-118 -123.5t-115.5 -90t-104 -39q-47 0 -78 32t-31 95zM61 915q-2 51 48.5 105.5t99.5 54.5 q58 0 61 -57q1 -53 -47.5 -106.5t-95.5 -55.5q-63 -3 -66 59zM297 913q0 54 51.5 111t100.5 57q64 0 67 -59q0 -54 -52 -112t-102 -60q-29 -2 -47 13.5t-18 49.5z" />
<glyph unicode="&#xf0;" horiz-adv-x="641" d="M-229 74q0 130 69 272t178 268q83 95 174.5 153t153.5 58t80 -55q59 159 80 279l-187 -78l29 106l170 72q6 56 6 108q0 108 -16 162l110 -18q30 -83 35 -195l168 70l-10 -98l-156 -66q-12 -366 -264 -778q-110 -177 -238 -297.5t-227 -120.5q-69 0 -112 41t-43 117z M-90 61q0 -34 24 -34q30 0 102.5 88t160.5 221q94 141 143 242q35 75 35 133q0 37 -25 37q-24 0 -94 -80t-145 -191q-201 -290 -201 -416z" />
<glyph unicode="&#xf1;" horiz-adv-x="694" d="M-233 135q50 116 170.5 339t181.5 312l104 -84q-88 -136 -239 -411q0 -1 1 -2t3 -0.5t4 2.5q66 72 164.5 182t160 178t93.5 99q60 55 96 55q28 0 55 -29.5t27 -62.5q0 -22 -18 -59.5t-57.5 -98t-63 -94t-74.5 -103.5q-15 -20 -52 -70t-65.5 -90t-54.5 -81 q-13 -19 -13 -33q0 -6 4 -10t9 -4q31 0 136 107.5t199.5 220.5t163.5 202l54 -63q-91 -121 -243 -290.5t-257 -248.5q-80 -61 -131 -61q-41 0 -66.5 26t-25.5 72q0 57 78 192q118 184 237 348q3 5 2 9t-4 4q-46 -50 -220.5 -245.5t-250.5 -279.5zM195 989q0 38 33.5 64 t82.5 26q34 0 66 -13t74 -36.5t75 -36.5l41 41q47 -17 47 -63q0 -41 -26.5 -62.5t-63.5 -21.5q-22 0 -49.5 8.5t-77.5 29.5t-71 29l-41 -55q-42 8 -66 31.5t-24 58.5z" />
<glyph unicode="&#xf2;" d="M-233 82q0 131 70 273.5t179 269.5q93 107 189.5 173t161.5 66q69 0 106 -44t37 -113q0 -128 -86 -308q114 48 229 201l54 -63q-152 -202 -332 -232l-56 -86q-94 -137 -202 -226t-197 -89q-68 0 -110.5 46t-42.5 132zM-94 49q0 -35 24 -35q29 0 91.5 76.5t162.5 228.5 q-90 27 -96 123q-182 -277 -182 -393zM162 502q0 -74 74 -107q155 248 155 340q0 31 -20 31q-22 0 -70.5 -47t-110.5 -129q-28 -41 -28 -88zM256 1192l106 82q84 -154 166 -289l-86 -53q-134 157 -186 260z" />
<glyph unicode="&#xf3;" d="M-233 82q0 131 70 273.5t179 269.5q93 107 189.5 173t161.5 66q69 0 106 -44t37 -113q0 -128 -86 -308q114 48 229 201l54 -63q-152 -202 -332 -232l-56 -86q-94 -137 -202 -226t-197 -89q-68 0 -110.5 46t-42.5 132zM-94 49q0 -35 24 -35q29 0 91.5 76.5t162.5 228.5 q-90 27 -96 123q-182 -277 -182 -393zM162 502q0 -74 74 -107q155 248 155 340q0 31 -20 31q-22 0 -70.5 -47t-110.5 -129q-28 -41 -28 -88zM362 997q161 157 261 291l88 -96q-93 -123 -265 -260z" />
<glyph unicode="&#xf4;" d="M-233 82q0 131 70 273.5t179 269.5q93 107 189.5 173t161.5 66q69 0 106 -44t37 -113q0 -128 -86 -308q114 48 229 201l54 -63q-152 -202 -332 -232l-56 -86q-94 -137 -202 -226t-197 -89q-68 0 -110.5 46t-42.5 132zM-94 49q0 -35 24 -35q29 0 91.5 76.5t162.5 228.5 q-90 27 -96 123q-182 -277 -182 -393zM162 502q0 -74 74 -107q155 248 155 340q0 31 -20 31q-22 0 -70.5 -47t-110.5 -129q-28 -41 -28 -88zM197 965q145 139 256 272l100 -20q50 -169 96 -277l-123 -29q-55 94 -73 191q-92 -108 -197 -197z" />
<glyph unicode="&#xf5;" d="M-233 82q0 131 70 273.5t179 269.5q93 107 189.5 173t161.5 66q69 0 106 -44t37 -113q0 -128 -86 -308q114 48 229 201l54 -63q-152 -202 -332 -232l-56 -86q-94 -137 -202 -226t-197 -89q-68 0 -110.5 46t-42.5 132zM-94 49q0 -35 24 -35q29 0 91.5 76.5t162.5 228.5 q-90 27 -96 123q-182 -277 -182 -393zM162 502q0 -74 74 -107q155 248 155 340q0 31 -20 31q-22 0 -70.5 -47t-110.5 -129q-28 -41 -28 -88zM229 1034q0 38 33.5 64t83.5 26q34 0 66 -13t74 -36.5t75 -36.5l41 41q47 -17 47 -63q0 -41 -26.5 -62.5t-63.5 -21.5 q-22 0 -49.5 8.5t-78.5 29.5t-71 29l-41 -55q-42 8 -66 31.5t-24 58.5z" />
<glyph unicode="&#xf6;" d="M-233 82q0 131 70 273.5t179 269.5q93 107 189.5 173t161.5 66q69 0 106 -44t37 -113q0 -128 -86 -308q114 48 229 201l54 -63q-152 -202 -332 -232l-56 -86q-94 -137 -202 -226t-197 -89q-68 0 -110.5 46t-42.5 132zM-94 49q0 -35 24 -35q29 0 91.5 76.5t162.5 228.5 q-90 27 -96 123q-182 -277 -182 -393zM162 502q0 -74 74 -107q155 248 155 340q0 31 -20 31q-22 0 -70.5 -47t-110.5 -129q-28 -41 -28 -88zM238 1008q-2 51 48 105t99 54q58 0 61 -57q1 -53 -47.5 -106.5t-95.5 -55.5q-62 -3 -65 60zM473 1006q0 54 51.5 111t100.5 57 q64 0 67 -60q0 -54 -52 -112.5t-101 -59.5q-29 -2 -47.5 14t-18.5 50z" />
<glyph unicode="&#xf7;" horiz-adv-x="751" d="M33 547h532l23 -111q-166 -6 -518 -22zM123 225q-1 44 42 90.5t85 46.5q50 0 53 -49q1 -45 -42 -92t-83 -47q-52 -3 -55 51zM346 657q0 47 44 96.5t87 49.5q55 0 55 -51q0 -47 -44.5 -97.5t-86.5 -52.5q-26 -2 -40.5 11.5t-14.5 43.5z" />
<glyph unicode="&#xf8;" d="M-338 -133l115 141q-10 33 -10 74q0 131 70 273.5t179 269.5q93 107 189.5 173t161.5 66q54 0 92 -30l137 161l37 -96l-127 -154q4 -24 4 -38q0 -128 -86 -308q114 48 229 201l54 -63q-152 -202 -332 -232l-56 -86q-94 -137 -202 -226t-197 -89q-51 0 -90 26l-143 -174z M-94 49q0 -35 24 -35q29 0 91.5 76.5t162.5 228.5q-90 27 -96 123q-182 -277 -182 -393zM162 502q0 -74 74 -107q155 248 155 340q0 31 -20 31q-22 0 -70.5 -47t-110.5 -129q-28 -41 -28 -88z" />
<glyph unicode="&#xf9;" horiz-adv-x="694" d="M-168 201q0 150 180 405q82 118 152 193l102 -103q-145 -199 -198 -297q-64 -119 -64 -163q0 -21 16 -21q45 0 418 481l94 -94q-125 -175 -190.5 -295t-65.5 -164q0 -18 13 -18q17 0 70 54.5t123.5 141t121.5 152t98 127.5l54 -63q-52 -67 -76 -98.5t-73.5 -93.5 t-77 -94.5t-70 -81.5t-71 -75t-61 -53.5t-58 -39t-46.5 -11.5q-39 0 -65.5 27.5t-26.5 82.5q0 83 45 176q-80 -95 -138 -144.5t-106 -49.5q-42 0 -71 31t-29 88zM227 1092l107 82q84 -154 166 -289l-86 -54q-136 158 -187 261z" />
<glyph unicode="&#xfa;" horiz-adv-x="694" d="M-168 201q0 150 180 405q82 118 152 193l102 -103q-145 -199 -198 -297q-64 -119 -64 -163q0 -21 16 -21q45 0 418 481l94 -94q-125 -175 -190.5 -295t-65.5 -164q0 -18 13 -18q17 0 70 54.5t123.5 141t121.5 152t98 127.5l54 -63q-52 -67 -76 -98.5t-73.5 -93.5 t-77 -94.5t-70 -81.5t-71 -75t-61 -53.5t-58 -39t-46.5 -11.5q-39 0 -65.5 27.5t-26.5 82.5q0 83 45 176q-80 -95 -138 -144.5t-106 -49.5q-42 0 -71 31t-29 88zM371 897q157 154 260 291l88 -96q-97 -127 -264 -261z" />
<glyph unicode="&#xfb;" horiz-adv-x="694" d="M-168 201q0 150 180 405q82 118 152 193l102 -103q-145 -199 -198 -297q-64 -119 -64 -163q0 -21 16 -21q45 0 418 481l94 -94q-125 -175 -190.5 -295t-65.5 -164q0 -18 13 -18q17 0 70 54.5t123.5 141t121.5 152t98 127.5l54 -63q-52 -67 -76 -98.5t-73.5 -93.5 t-77 -94.5t-70 -81.5t-71 -75t-61 -53.5t-58 -39t-46.5 -11.5q-39 0 -65.5 27.5t-26.5 82.5q0 83 45 176q-80 -95 -138 -144.5t-106 -49.5q-42 0 -71 31t-29 88zM221 864q141 135 256 273l101 -21q49 -166 96 -276l-123 -29q-56 97 -74 190q-91 -108 -196 -196z" />
<glyph unicode="&#xfc;" horiz-adv-x="694" d="M-168 201q0 150 180 405q82 118 152 193l102 -103q-145 -199 -198 -297q-64 -119 -64 -163q0 -21 16 -21q45 0 418 481l94 -94q-125 -175 -190.5 -295t-65.5 -164q0 -18 13 -18q17 0 70 54.5t123.5 141t121.5 152t98 127.5l54 -63q-52 -67 -76 -98.5t-73.5 -93.5 t-77 -94.5t-70 -81.5t-71 -75t-61 -53.5t-58 -39t-46.5 -11.5q-39 0 -65.5 27.5t-26.5 82.5q0 83 45 176q-80 -95 -138 -144.5t-106 -49.5q-42 0 -71 31t-29 88zM262 907q-2 51 48.5 105.5t99.5 54.5q58 0 61 -57q1 -53 -47.5 -106.5t-95.5 -55.5q-63 -3 -66 59zM498 905 q0 54 51 111t100 57q65 0 68 -59q0 -54 -52 -112t-102 -60q-29 -2 -47 13.5t-18 49.5z" />
<glyph unicode="&#xfd;" horiz-adv-x="641" d="M-244 -457q193 352 445 756q3 5 2 8.5t-4 3.5q-72 -97 -140 -155t-116 -58q-42 0 -70.5 29.5t-28.5 85.5q0 164 234 487q50 67 94 121l104 -104q-139 -189 -204 -322q-58 -105 -58 -145q0 -19 17 -19q12 0 42.5 31.5t102.5 116.5q140 165 277 348q89 118 90 119l92 -96 q-140 -184 -311 -476q-188 -321 -373 -725zM375 979q157 154 260 291l88 -96q-97 -127 -264 -261z" />
<glyph unicode="&#xfe;" horiz-adv-x="624" d="M-530 -379q82 222 280 576q131 239 481 708q124 166 308 393l127 -104q-145 -163 -295 -346q-89 -110 -156 -207q144 113 219 113q47 0 77 -32.5t30 -86.5q0 -82 -53.5 -191t-147.5 -221q-106 -126 -208 -200t-181 -74q-55 0 -87 24.5t-32 73.5q-84 -170 -235 -506z M-115 100q0 -37 33 -37q35 0 105 58.5t137 138.5q248 299 248 373q0 31 -37 31q-41 0 -134.5 -68t-162.5 -168q-51 -72 -180 -285q-9 -21 -9 -43z" />
<glyph unicode="&#xff;" horiz-adv-x="641" d="M-244 -457q193 352 445 756q3 5 2 8.5t-4 3.5q-72 -97 -140 -155t-116 -58q-42 0 -70.5 29.5t-28.5 85.5q0 164 234 487q50 67 94 121l104 -104q-139 -189 -204 -322q-58 -105 -58 -145q0 -19 17 -19q12 0 42.5 31.5t102.5 116.5q140 165 277 348q89 118 90 119l92 -96 q-140 -184 -311 -476q-188 -321 -373 -725zM264 989q-2 51 48.5 105.5t99.5 54.5q58 0 61 -57q1 -53 -47.5 -106.5t-95.5 -55.5q-63 -3 -66 59zM500 987q0 54 51 111t100 57q65 0 68 -59q0 -54 -52 -112t-102 -60q-29 -2 -47 13.5t-18 49.5z" />
<glyph unicode="&#x152;" horiz-adv-x="1802" d="M-23 166q-2 183 72.5 376.5t237.5 420.5q181 252 378 393t357 141q131 0 202 -80.5t79 -206.5q147 126 336.5 206.5t349.5 80.5q163 0 238 -49t75 -125q0 -70 -76 -147.5t-192 -130t-222 -52.5q-129 0 -129 88q0 39 52 83t118.5 72t110.5 28l23 -103q76 35 127 78.5 t51 77.5q0 63 -129 63q-95 0 -232.5 -61.5t-258 -148t-206.5 -187t-86 -170.5q0 -63 84 -63q47 0 115 18l172 47l27 -115l-201 -69q-128 -45 -243.5 -118.5t-194 -152.5t-124.5 -158t-46 -139t31 -91t88 -31q61 0 127.5 30t122.5 74.5t114.5 107.5t100.5 118t83 116l76 -113 q-39 -69 -104 -144t-148 -144.5t-185.5 -114.5t-199.5 -45q-108 0 -180 44.5t-98 133.5q-216 -178 -387 -178q-150 0 -227 96t-79 244zM139 96q3 -141 123 -141q102 0 254.5 145t331.5 426q176 278 247 432.5t70 276.5q-3 141 -114 141q-209 0 -590 -561 q-322 -472 -322 -719zM1114 582q71 35 160 65q9 3 2 10q-18 -3 -56 -0.5t-59 9.5q-14 -33 -47 -84z" />
<glyph unicode="&#x153;" horiz-adv-x="927" d="M-236 61q0 137 70.5 286.5t181.5 277.5q93 107 189.5 173t161.5 66q62 0 95.5 -43t33.5 -108v-23q77 67 154.5 105.5t135.5 38.5q57 0 85 -27.5t28 -73.5q0 -73 -85.5 -168.5t-207.5 -170.5t-225 -97q-27 -73 -27 -121q0 -86 62 -86q34 0 91.5 42.5t115.5 101t125 135.5 t109.5 130.5t78.5 100.5l53 -63q-56 -72 -92 -117t-92.5 -113t-97.5 -111t-94.5 -93t-96.5 -78.5t-89.5 -48t-86.5 -19.5q-49 0 -85.5 33.5t-45.5 97.5q-162 -184 -287 -184q-70 0 -114 41t-44 116zM-94 49q0 -35 24 -35q29 0 97 84t153 213q-86 35 -92 133 q-182 -271 -182 -395zM162 502q0 -81 65 -117q164 261 164 350q0 31 -20 31q-21 0 -73.5 -52.5t-113.5 -133.5q-22 -34 -22 -78zM420 383q116 50 234 167.5t118 178.5q0 16 -14 16q-28 0 -106 -72t-152 -169q-35 -46 -80 -121z" />
<glyph unicode="&#x178;" horiz-adv-x="1144" d="M-154 -385q0 94 98 194.5t241.5 176t297.5 116.5q59 90 170 254q-198 -215 -346 -215q-86 0 -135 57t-49 164q0 119 56.5 245.5t203.5 332.5q151 213 212.5 308t61.5 126q0 29 -26 29q-28 0 -108 -74t-185 -201q-87 -103 -169 -224.5t-130 -215.5l-125 133 q42 82 126 195.5t179 208.5q124 124 240.5 198t183.5 74q139 0 139 -176q0 -81 -71 -217t-217 -356q-201 -298 -201 -414q0 -41 15 -58.5t46 -17.5q58 0 158.5 86.5t202 210.5t184.5 237.5t131 190.5h2q48 78 305 514l119 -102q-168 -319 -296.5 -540t-336.5 -548 q-86 -135 -149.5 -229t-157 -217.5t-172.5 -204.5q-102 -102 -181 -154.5t-149 -52.5q-78 0 -123 44.5t-45 121.5zM-33 -408q0 -57 49 -57q73 0 217 201q92 126 181 256q-94 -33 -197 -101.5t-176.5 -152t-73.5 -146.5zM913 1640q-2 51 48.5 105.5t99.5 54.5q58 0 61 -57 q1 -53 -47.5 -106.5t-95.5 -55.5q-63 -3 -66 59zM1149 1638q0 54 51 111t100 57q65 0 68 -59q0 -54 -52 -112t-102 -60q-29 -2 -47 13.5t-18 49.5z" />
<glyph unicode="&#x2c6;" horiz-adv-x="1003" d="M195 965q145 139 256 272l100 -20q50 -169 96 -277l-123 -29q-55 94 -73 191q-92 -108 -197 -197z" />
<glyph unicode="&#x2dc;" horiz-adv-x="1024" d="M199 1034q0 38 33.5 64t82.5 26q34 0 66 -13t74 -36.5t75 -36.5l41 41q47 -17 47 -63q0 -41 -26.5 -62.5t-63.5 -21.5q-22 0 -49.5 8.5t-77.5 29.5t-71 29l-41 -55q-42 8 -66 31.5t-24 58.5z" />
<glyph unicode="&#x2000;" horiz-adv-x="960" />
<glyph unicode="&#x2001;" horiz-adv-x="1921" />
<glyph unicode="&#x2002;" horiz-adv-x="960" />
<glyph unicode="&#x2003;" horiz-adv-x="1921" />
<glyph unicode="&#x2004;" horiz-adv-x="640" />
<glyph unicode="&#x2005;" horiz-adv-x="480" />
<glyph unicode="&#x2006;" horiz-adv-x="320" />
<glyph unicode="&#x2007;" horiz-adv-x="320" />
<glyph unicode="&#x2008;" horiz-adv-x="240" />
<glyph unicode="&#x2009;" horiz-adv-x="384" />
<glyph unicode="&#x200a;" horiz-adv-x="106" />
<glyph unicode="&#x2010;" horiz-adv-x="497" d="M-14 586h338l22 -111q-184 -7 -323 -22z" />
<glyph unicode="&#x2011;" horiz-adv-x="497" d="M-14 586h338l22 -111q-184 -7 -323 -22z" />
<glyph unicode="&#x2012;" horiz-adv-x="497" d="M-14 586h338l22 -111q-184 -7 -323 -22z" />
<glyph unicode="&#x2013;" horiz-adv-x="598" d="M-14 586h438l22 -111q-232 -3 -423 -22z" />
<glyph unicode="&#x2014;" horiz-adv-x="768" d="M-14 586h608l22 -111q-317 0 -593 -22z" />
<glyph unicode="&#x2018;" horiz-adv-x="299" d="M109 928q0 141 245 315l60 -31q-81 -85 -119 -141q72 -16 72 -80q0 -62 -49 -113t-107 -51q-47 0 -74.5 27t-27.5 74z" />
<glyph unicode="&#x2019;" horiz-adv-x="249" d="M100 834q81 85 119 141q-72 16 -72 80q0 62 49 113t107 51q47 0 75 -27t28 -74q0 -141 -246 -315z" />
<glyph unicode="&#x201a;" horiz-adv-x="352" d="M-256 -262q81 85 119 141q-72 16 -72 80q0 62 49 113t107 51q47 0 74.5 -26.5t27.5 -73.5q0 -142 -246 -316z" />
<glyph unicode="&#x201c;" horiz-adv-x="575" d="M109 928q0 141 245 315l60 -31q-81 -85 -119 -141q72 -16 72 -80q0 -62 -49 -113t-107 -51q-47 0 -74.5 27t-27.5 74zM385 874q0 142 246 316l59 -31q-81 -85 -119 -141q72 -16 72 -80q0 -62 -49 -113t-107 -51q-47 0 -74.5 26.5t-27.5 73.5z" />
<glyph unicode="&#x201d;" horiz-adv-x="575" d="M100 834q81 85 119 141q-72 16 -72 80q0 62 49 113t107 51q47 0 75 -27t28 -74q0 -141 -246 -315zM377 780q79 82 119 142q-72 16 -72 79q0 62 49 113t107 51q47 0 74.5 -26.5t27.5 -73.5q0 -141 -246 -315z" />
<glyph unicode="&#x201e;" horiz-adv-x="628" d="M-256 -262q81 85 119 141q-72 16 -72 80q0 62 49 113t107 51q47 0 74.5 -26.5t27.5 -73.5q0 -142 -246 -316zM20 -315q81 85 119 141q-71 16 -71 80q0 62 48.5 113t106.5 51q47 0 75 -27t28 -74q0 -141 -246 -315z" />
<glyph unicode="&#x2022;" horiz-adv-x="520" d="M25 387q0 83 56.5 143t119.5 60q52 0 84 -31t32 -92q0 -88 -51 -146.5t-127 -58.5q-55 0 -84.5 33.5t-29.5 91.5z" />
<glyph unicode="&#x202f;" horiz-adv-x="384" />
<glyph unicode="&#x2039;" horiz-adv-x="503" d="M18 440l353 377l78 -49l-287 -332l10 -325l-106 16z" />
<glyph unicode="&#x203a;" horiz-adv-x="514" d="M-104 131l286 332l-10 325l107 -16l47 -313l-353 -377z" />
<glyph unicode="&#x205f;" horiz-adv-x="480" />
<glyph unicode="&#x20ac;" horiz-adv-x="921" d="M-113 348l70 86h115q16 54 47 125h-129l69 86h107q119 201 308.5 346.5t350.5 145.5q86 0 128 -45t42 -117q0 -77 -72.5 -168.5t-207.5 -179.5l-109 104q124 82 194 148t70 96q0 45 -53 45q-84 0 -220 -111t-241 -264h179l-50 -86h-184q-37 -65 -57 -125h192l-49 -86 h-168q-8 -33 -8 -74q0 -112 74 -112q102 0 321 229l58 -141q-78 -76 -184 -132.5t-216 -56.5q-100 0 -156.5 60t-56.5 174q0 17 4 53h-168z" />
<glyph unicode="&#x2122;" horiz-adv-x="2766" d="M-66 -10q145 283 353.5 623.5t419.5 641.5q-281 -51 -484 -108l-53 188q277 66 618 110t617 52l31 -145q-236 -17 -510 -60q-218 -330 -449.5 -726t-406.5 -740zM418 -86q0 83 92 165t192 105l35 -78q478 315 1362 1391l146 -145l-607 -1116l1115 1161l139 -150 q-299 -415 -503 -766t-204 -452q0 -24 9 -34.5t30 -10.5q83 0 551 616l53 -63q-105 -139 -166 -218t-136.5 -173.5t-121.5 -143t-97 -94.5t-89.5 -64t-73.5 -18q-63 0 -100 45t-37 125q0 276 481 973l-1003 -1045l-160 105l606 1124q-109 -134 -214 -257.5t-248 -285.5 t-273.5 -292.5t-260.5 -246t-240.5 -180.5t-184.5 -65q-42 0 -67 24t-25 64z" />
<glyph unicode="&#x25fc;" horiz-adv-x="962" d="M0 0v963h963v-963h-963z" />
<glyph unicode="&#xfb01;" horiz-adv-x="815" d="M-401 -309q0 81 34 184q44 135 113 275q127 262 266 471q264 399 437 583q193 205 251 205q21 0 39.5 -21t18.5 -45q0 -51 -78 -157q-201 -262 -543 -617q-21 -34 -41 -63q99 -10 99 -135q0 -37 -11 -105q74 65 115 131q57 112 166 246q32 40 70 78l96 -96 q-124 -170 -185 -295q-43 -88 -43 -125q0 -23 17 -23q42 0 177 148t226 270l54 -63q-36 -47 -74 -95t-104.5 -123.5t-124.5 -131t-121.5 -97t-106.5 -41.5q-48 0 -78 29.5t-30 89.5q0 36 6 74q-43 -46 -86 -78q-55 -164 -154 -311q-83 -135 -161.5 -214t-143.5 -79 q-44 0 -72 35t-28 96zM-264 -281q0 -26 14 -26q19 0 65.5 64t104.5 167q54 98 92 182h-16q-75 0 -98 48q0 -2 -11 -23q-91 -193 -125 -297q-26 -79 -26 -115zM-41 242q0 -26 15.5 -41t41.5 -15q9 0 29 4q45 120 45 201q0 35 -20 35q-19 0 -37 -27q-36 -56 -64 -108 q-10 -27 -10 -49zM633 967q-1 44 30.5 96t79.5 88t91 37q99 3 102 -96q1 -71 -67.5 -145.5t-135.5 -76.5q-45 -2 -72 22t-28 75z" />
<glyph unicode="&#xfb03;" horiz-adv-x="1298" d="M-330 -184q0 78 35 184q50 149 129 311q135 277 266 471q178 260 369 451q118 113 183 160t108 47q44 0 67 -29t23 -74q0 -56 -46.5 -139.5t-131.5 -177.5q-206 -221 -492 -387q84 -16 84 -127q0 -62 -20 -141q48 33 190 157q14 25 62 99q83 126 131 196t122.5 169 t133.5 161q193 205 252 205q21 0 39 -21t18 -45q0 -51 -59 -129q-170 -224 -488 -555q-41 -59 -65 -96q98 -10 98 -135q0 -43 -10 -105q72 63 114 131q57 112 166 246q32 40 70 78l96 -96q-121 -166 -184 -295q-43 -88 -43 -125q0 -23 16 -23q42 0 178 148.5t226 269.5 l53 -63q-36 -47 -74 -95t-104.5 -123.5t-124.5 -131t-121.5 -97t-106.5 -41.5q-48 0 -78 29.5t-30 89.5q0 36 6 74q-43 -46 -86 -78q-55 -164 -154 -311q-83 -135 -162 -214t-143 -79q-44 0 -72 35t-28 96q0 78 35 184q46 141 112 275q14 30 105 202q-67 -58 -119 -84 q-57 -159 -141 -291q-184 -292 -303 -292q-44 0 -72.5 35t-28.5 96zM-193 -154q0 -28 15 -28q36 0 166 231q36 63 86 176h-4q-81 0 -105 43q-94 -200 -131 -309q-27 -82 -27 -113zM23 360q0 -26 18 -40.5t49 -14.5h14q54 147 54 221q0 11 -5 20t-14 9q-19 0 -37 -27 q-34 -54 -73 -129q-6 -18 -6 -39zM219 -281q0 -26 14 -26q19 0 65.5 64t104.5 167q60 110 93 182h-17q-75 0 -98 48q-1 -6 -10 -23q-91 -193 -125 -297q-27 -82 -27 -115zM254 770q200 138 332 299q64 76 105.5 144t41.5 94q0 12 -10 12q-28 0 -115 -96q-76 -81 -227 -281 q-35 -46 -127 -172zM442 242q0 -26 16 -41t42 -15q8 0 28 4q45 120 45 201q0 35 -20 35q-19 0 -37 -27q-29 -46 -63 -108q-11 -29 -11 -49zM1116 967q-1 44 30.5 96t79.5 88t91 37q99 3 102 -96q1 -71 -67 -145.5t-135 -76.5q-45 -2 -72.5 22.5t-28.5 74.5z" />
</font>
</defs>
</svg>
