<?xml version="1.0" standalone="no"?>
<!DOCTYPE svg PUBLIC "-//W3C//DTD SVG 1.1//EN" "http://www.w3.org/Graphics/SVG/1.1/DTD/svg11.dtd" >
<svg xmlns="http://www.w3.org/2000/svg" xmlns:xlink="http://www.w3.org/1999/xlink" version="1.1">
<metadata></metadata>
<defs>
<font id="px_grotesklight" horiz-adv-x="1228" >
<font-face units-per-em="2048" ascent="1649" descent="-399" />
<missing-glyph horiz-adv-x="536" />
<glyph unicode="&#xfb01;" horiz-adv-x="1136" d="M72 928v116h174v349h383v-117h-250v-232h575v-1044h-133v928h-442v-928h-133v928h-174zM817 1231v141h141v-141h-141z" />
<glyph unicode="&#xfb02;" horiz-adv-x="1140" d="M72 928v116h174v349h708v-1393h-133v1276h-442v-232h229v-116h-229v-928h-133v928h-174z" />
<glyph horiz-adv-x="0" />
<glyph horiz-adv-x="682" />
<glyph horiz-adv-x="0" />
<glyph horiz-adv-x="0" />
<glyph unicode="&#xd;" horiz-adv-x="0" />
<glyph unicode=" "  horiz-adv-x="536" />
<glyph unicode="&#x09;" horiz-adv-x="536" />
<glyph unicode="&#xa0;" horiz-adv-x="536" />
<glyph unicode="!" horiz-adv-x="534" d="M180 0v174h174v-174h-174zM201 629v764h133v-764l-37 -305h-59z" />
<glyph unicode="&#x22;" horiz-adv-x="729" d="M172 887v536h115v-536h-115zM442 887v536h115v-536h-115z" />
<glyph unicode="#" horiz-adv-x="1241" d="M119 348v107h215l72 483h-240v106h254l51 349h113l-52 -349h277l51 349h113l-51 -349h200v-106h-215l-71 -483h237v-107h-254l-49 -348h-113l50 348h-277l-49 -348h-113l49 348h-198zM449 455h276l68 483h-277z" />
<glyph unicode="$" horiz-adv-x="1167" d="M104 395h134q9 -134 86.5 -209.5t201.5 -89.5v557l-75 21q-151 38 -229.5 137t-78.5 240q0 155 108.5 256.5t274.5 113.5v166h103v-168q162 -16 266.5 -117t116.5 -278h-133q-18 241 -250 270v-524l96 -25q164 -41 251 -129.5t87 -248.5q0 -115 -60.5 -204.5t-158 -137.5 t-215.5 -54v-166h-103v168q-180 16 -292.5 120t-129.5 302zM276 1059q0 -114 63 -173t187 -91v501q-106 -11 -178 -74.5t-72 -162.5zM629 96q129 11 213 83t84 183t-60.5 166t-181.5 86l-55 15v-533z" />
<glyph unicode="%" horiz-adv-x="1597" d="M104 1034q0 375 263 375q262 0 262 -375t-262 -375q-263 0 -263 375zM213 895q0 -70 41.5 -111t112.5 -41q72 0 112.5 40.5t40.5 111.5v279q0 70 -41 110.5t-112 40.5t-112.5 -40.5t-41.5 -110.5v-279zM307 0l873 1393h110l-872 -1393h-111zM969 358q0 375 262 375 t262 -375q0 -374 -262 -374t-262 374zM1077 219q0 -70 41.5 -110.5t112.5 -40.5q72 0 112.5 40t40.5 111v279q0 70 -41 110.5t-112 40.5t-112.5 -40.5t-41.5 -110.5v-279z" />
<glyph unicode="&#x26;" horiz-adv-x="1232" d="M127 344q0 112 46.5 188t143.5 152l101 80q-47 59 -65 81.5t-49.5 68t-43.5 72.5t-22.5 65t-10.5 75q0 131 93.5 214t232.5 83q143 0 226 -78t83 -215q0 -104 -65.5 -194.5t-196.5 -192.5l262 -340h4v340h131v-507l185 -236h-168l-96 123q-91 -81 -186 -114.5t-214 -33.5 q-180 0 -285.5 97t-105.5 272zM270 297q0 -95 73 -151t173 -56q203 0 326 129l-344 443l-166 -132q-62 -50 -62 -122v-111zM358 1139q0 -32 11.5 -65.5t38.5 -75t49 -70t65 -82.5q106 83 157.5 148t51.5 149q0 77 -48.5 121.5t-135.5 44.5q-85 0 -137 -47t-52 -123z" />
<glyph unicode="'" horiz-adv-x="458" d="M172 887v536h115v-536h-115z" />
<glyph unicode="(" horiz-adv-x="614" d="M127 559q0 196 39.5 363t103 291t162.5 253h113q-143 -195 -214 -361.5t-71 -330.5v-430q0 -314 285 -692h-113q-99 129 -162.5 253t-103 291t-39.5 363z" />
<glyph unicode=")" horiz-adv-x="612" d="M70 -348q284 377 284 692v430q0 164 -70.5 331t-213.5 361h112q99 -129 162.5 -253t103 -291t39.5 -363t-39.5 -363t-103 -291t-162.5 -253h-112z" />
<glyph unicode="*" horiz-adv-x="958" d="M160 901l248 143l-248 144l35 61l249 -143v287h70v-287l250 143l35 -61l-250 -144l250 -143l-35 -61l-250 143v-287h-70v287l-249 -143z" />
<glyph unicode="+" d="M92 469v106h465v469h115v-469h465v-106h-465v-469h-115v469h-465z" />
<glyph unicode="," horiz-adv-x="501" d="M164 0v174h174v-174l-100 -174h-74l94 174h-94z" />
<glyph unicode="-" horiz-adv-x="901" d="M164 492v126h573v-126h-573z" />
<glyph unicode="." horiz-adv-x="501" d="M164 0v174h174v-174h-174z" />
<glyph unicode="/" horiz-adv-x="888" d="M55 0l639 1393h140l-639 -1393h-140z" />
<glyph unicode="0" d="M141 696q0 108 8 195.5t27.5 172.5t55 148t86.5 112t126 74t170 25t170 -25t126 -74t86.5 -112t55 -148t27.5 -172.5t8 -195.5t-8 -195.5t-27.5 -172.5t-55 -148t-86.5 -112t-126 -74t-170 -25t-170 25t-126 74t-86.5 112t-55 148t-27.5 172.5t-8 195.5zM295 424 q0 -154 86.5 -244t232.5 -90q147 0 233.5 90.5t86.5 243.5v545q0 153 -86.5 243.5t-233.5 90.5q-146 0 -232.5 -90t-86.5 -244v-545z" />
<glyph unicode="1" d="M250 0v121h358v987h-358v121h358v164h133v-1272h318v-121h-809z" />
<glyph unicode="2" d="M166 0v150l571 557q46 45 68.5 70t48.5 64.5t36.5 83t10.5 99.5q0 127 -74 203t-202 76q-139 0 -223.5 -83t-88.5 -227h-137q4 193 129.5 311.5t319.5 118.5q193 0 304 -107t111 -292q0 -61 -14.5 -117.5t-33.5 -95.5t-54.5 -83t-58 -67.5t-64.5 -62.5l-500 -473v-4h750 v-121h-899z" />
<glyph unicode="3" d="M139 395h137q3 -147 95 -227t235 -80q139 0 228.5 75t89.5 179v147q0 71 -50 117.5t-133 46.5h-319v121h305q82 0 126 46t44 118v133q0 103 -76 168.5t-207 65.5q-141 0 -221.5 -75t-83.5 -194h-137q3 162 121.5 274.5t320.5 112.5q197 0 315 -106.5t118 -274.5 q0 -121 -45 -196t-136 -127q103 -47 155 -129.5t52 -210.5q0 -185 -128.5 -297.5t-338.5 -112.5q-201 0 -332.5 111t-134.5 315z" />
<glyph unicode="4" d="M135 356v121l615 916h135v-916h200v-121h-200v-356h-133v356h-617zM276 477h476v707z" />
<glyph unicode="5" d="M158 375h137q18 -135 99 -211t220 -76q134 0 224 80.5t90 202.5v178q0 120 -84.5 194t-225.5 74q-97 0 -177.5 -56t-123.5 -151h-137l53 783h752v-121h-633l-33 -508q57 83 142.5 127.5t185.5 44.5q202 0 318 -128t116 -345q0 -225 -124.5 -359.5t-335.5 -134.5 q-205 0 -322.5 104t-140.5 302z" />
<glyph unicode="6" d="M145 664q0 115 9.5 209t31 182t59 153.5t91 114.5t130 74.5t173.5 25.5q189 0 296 -96.5t126 -269.5h-137q-15 114 -86.5 181t-208.5 67q-156 0 -243 -108t-87 -275v-181q112 174 352 174q211 0 330 -126t119 -328q0 -67 -16.5 -134t-54.5 -132t-92 -115t-135 -80.5 t-179 -30.5q-111 0 -194.5 33t-137 91t-86.5 146.5t-46.5 191t-13.5 233.5zM299 393q0 -126 88 -216.5t236 -90.5t235.5 90.5t87.5 216.5v119q0 124 -86.5 204.5t-236.5 80.5t-237 -80.5t-87 -204.5v-119z" />
<glyph unicode="7" d="M184 1272v121h885v-121l-590 -1272h-149l594 1272h-740z" />
<glyph unicode="8" d="M135 373q0 128 68.5 218.5t195.5 133.5q-223 88 -223 322q0 171 127 273.5t311 102.5t311.5 -102.5t127.5 -273.5q0 -233 -224 -322q127 -43 196 -133.5t69 -218.5q0 -100 -38.5 -179t-105.5 -127t-152.5 -73t-183.5 -25t-183 25t-152 73t-105.5 127t-38.5 179zM285 309 q0 -94 87 -156.5t242 -62.5t242.5 62.5t87.5 156.5v135q0 94 -87.5 156t-242.5 62t-242 -62t-87 -156v-135zM326 979q0 -90 78 -148.5t210 -58.5t210.5 58.5t78.5 148.5v117q0 89 -78.5 148t-210.5 59t-210 -59t-78 -148v-117z" />
<glyph unicode="9" d="M127 936q0 66 17 132.5t54.5 131t91 113.5t134 79.5t176.5 30.5q113 0 197 -32.5t138 -89.5t87 -145.5t46 -190.5t13 -234q0 -120 -9 -216.5t-29.5 -184.5t-56.5 -152.5t-88.5 -112.5t-126.5 -72t-169 -24q-193 0 -306 98.5t-132 270.5h137q14 -111 92 -180.5t205 -69.5 q156 0 243 106.5t87 272.5v184q-56 -86 -149.5 -130t-211.5 -44q-211 0 -325.5 126.5t-114.5 332.5zM281 881q0 -124 86.5 -204.5t236.5 -80.5t237 80.5t87 204.5v118q0 126 -88 216t-236 90q-147 0 -235 -91t-88 -217v-116z" />
<glyph unicode=":" horiz-adv-x="501" d="M164 0v174h174v-174h-174zM164 870v174h174v-174h-174z" />
<glyph unicode=";" horiz-adv-x="501" d="M164 0v174h174v-174l-100 -174h-74l94 174h-94zM164 870v174h174v-174h-174z" />
<glyph unicode="&#x3c;" d="M76 449v147l1044 448v-122l-934 -400l934 -399v-123z" />
<glyph unicode="=" d="M92 258v107h1045v-107h-1045zM92 680v106h1045v-106h-1045z" />
<glyph unicode="&#x3e;" d="M106 0v123l934 399l-934 400v122l1045 -448v-147z" />
<glyph unicode="?" horiz-adv-x="1015" d="M90 1026q13 181 130 289t296 108q176 0 286.5 -106t110.5 -266q0 -211 -182 -357q-102 -81 -141 -134t-39 -134v-61h-133v61q0 103 47 180t151 160q88 71 126 134t38 147q0 115 -72 187.5t-194 72.5q-129 0 -205.5 -77.5t-85.5 -203.5h-133zM397 0v174h174v-174h-174z " />
<glyph unicode="@" horiz-adv-x="1695" d="M221 -158v1360h1249v-1044h-880v729h512v-613h235v811h-983v-1126h768v-117h-901zM723 274h246v496h-246v-496z" />
<glyph unicode="A" horiz-adv-x="1275" d="M70 0l481 1393h174l481 -1393h-153l-123 362h-586l-123 -362h-151zM385 485h504l-246 748h-8z" />
<glyph unicode="B" horiz-adv-x="1310" d="M203 0v1393h553q385 0 385 -338q0 -118 -56 -204.5t-155 -123.5q113 -26 177 -110t64 -209q0 -211 -104.5 -309.5t-310.5 -98.5h-553zM346 133h469q91 0 147 46t56 126v189q0 74 -54 116.5t-137 42.5h-481v-520zM346 786h459q84 0 133 45.5t49 122.5v146q0 76 -48 118 t-134 42h-459v-474z" />
<glyph unicode="C" horiz-adv-x="1296" d="M135 684q0 167 33.5 301t100.5 232.5t173.5 152t245.5 53.5q196 0 326.5 -114t150.5 -312h-143q-17 148 -110 220.5t-238 72.5q-163 0 -269 -112.5t-106 -276.5v-409q0 -166 109 -278t262 -112q164 0 259.5 75t110.5 229h144q-17 -199 -150 -318t-346 -119 q-269 0 -411 184t-142 531z" />
<glyph unicode="D" horiz-adv-x="1349" d="M203 0v1393h430q298 0 437.5 -169t139.5 -528t-139 -527.5t-438 -168.5h-430zM346 133h281q198 0 309 95t111 264v409q0 169 -110 264t-308 95h-283v-1127z" />
<glyph unicode="E" horiz-adv-x="1206" d="M203 0v1393h872v-133h-729v-484h635v-133h-635v-510h729v-133h-872z" />
<glyph unicode="F" horiz-adv-x="1110" d="M203 0v1393h803v-133h-660v-484h610v-133h-610v-643h-143z" />
<glyph unicode="G" horiz-adv-x="1355" d="M135 684q0 168 33.5 302t100.5 232.5t175.5 151.5t251.5 53q202 0 334 -114.5t152 -311.5h-144q-15 144 -108 218.5t-248 74.5q-165 0 -274 -110.5t-109 -278.5v-409q0 -169 109 -279.5t270 -110.5q178 0 280.5 98.5t102.5 274.5v115h-336v133h479v-723h-135l-8 158 q-55 -89 -156 -139t-231 -50q-261 0 -400 186.5t-139 528.5z" />
<glyph unicode="H" horiz-adv-x="1411" d="M203 0v1393h143v-611h719v611h143v-1393h-143v649h-719v-649h-143z" />
<glyph unicode="I" horiz-adv-x="548" d="M203 0v1393h143v-1393h-143z" />
<glyph unicode="J" horiz-adv-x="839" d="M45 0v133h449v1260h143v-1393h-592z" />
<glyph unicode="K" horiz-adv-x="1234" d="M203 0v1393h143v-1393h-143zM350 741l600 652h191l-617 -652l662 -741h-180z" />
<glyph unicode="L" horiz-adv-x="1019" d="M203 0v1393h143v-1260h631v-133h-774z" />
<glyph unicode="M" horiz-adv-x="1697" d="M203 0v1393h225l420 -1162h8l418 1162h221v-1393h-137v1204h-8l-441 -1204h-118l-443 1204h-8v-1204h-137z" />
<glyph unicode="N" horiz-adv-x="1411" d="M203 0v1393h227l629 -1231h8v1231h141v-1393h-227l-629 1233h-8v-1233h-141z" />
<glyph unicode="O" horiz-adv-x="1425" d="M135 696q0 165 32.5 295.5t100.5 228.5t180.5 150.5t264.5 52.5t264.5 -52.5t180 -150.5t100 -228.5t32.5 -295.5t-32.5 -295.5t-100 -228.5t-180 -150.5t-264.5 -52.5t-264.5 52.5t-180.5 150.5t-100.5 228.5t-32.5 295.5zM299 489q0 -176 116.5 -281.5t297.5 -105.5 q182 0 297.5 104.5t115.5 282.5v414q0 176 -116 281.5t-297 105.5t-297.5 -105.5t-116.5 -281.5v-414z" />
<glyph unicode="P" horiz-adv-x="1222" d="M203 0v1393h526q213 0 304 -101t91 -323q0 -231 -103.5 -335t-309.5 -104h-365v-530h-143zM346 664h430q84 0 139.5 51.5t55.5 128.5v243q0 78 -52 125.5t-143 47.5h-430v-596z" />
<glyph unicode="Q" horiz-adv-x="1437" d="M135 696q0 165 32.5 295.5t100.5 228.5t180.5 150.5t264.5 52.5t264.5 -52.5t180 -150.5t100 -228.5t32.5 -295.5q0 -320 -119 -501l201 -195l-96 -94l-193 186q-142 -123 -370 -123q-152 0 -264.5 52.5t-180.5 150.5t-100.5 228.5t-32.5 295.5zM299 489 q0 -176 116.5 -281.5t297.5 -105.5q182 0 297.5 104.5t115.5 282.5v414q0 176 -116 281.5t-297 105.5t-297.5 -105.5t-116.5 -281.5v-414z" />
<glyph unicode="R" horiz-adv-x="1257" d="M203 0v1393h526q210 0 302.5 -97.5t92.5 -291.5q0 -351 -327 -394l329 -610h-163l-322 606h-295v-606h-143zM346 733h430q86 0 140.5 50.5t54.5 134.5v169q0 83 -54 128t-141 45h-430v-527z" />
<glyph unicode="S" horiz-adv-x="1243" d="M109 406h143q15 -152 115.5 -230t259.5 -78q158 0 258 70.5t100 193.5q0 58 -15.5 99t-50.5 68t-73.5 43.5t-100.5 33.5l-276 76q-166 45 -241.5 136t-75.5 239q0 161 124 263.5t336 102.5q205 0 334.5 -105.5t147.5 -303.5h-144q-6 74 -35.5 129.5t-77 87.5t-103.5 47.5 t-122 15.5q-147 0 -232 -61.5t-85 -175.5q0 -41 7 -73t24.5 -55.5t35.5 -40t51.5 -31t59.5 -23t72 -21.5l231 -65q185 -52 268.5 -139.5t83.5 -241.5q0 -182 -139 -290t-358 -108q-223 0 -360.5 109.5t-161.5 327.5z" />
<glyph unicode="T" horiz-adv-x="1064" d="M45 1260v133h975v-133h-416v-1260h-143v1260h-416z" />
<glyph unicode="U" horiz-adv-x="1388" d="M190 496v897h144v-912q0 -172 100 -276.5t260 -104.5q161 0 262 104t101 277v912h141v-897q0 -242 -139.5 -384.5t-364.5 -142.5t-364.5 142.5t-139.5 384.5z" />
<glyph unicode="V" horiz-adv-x="1251" d="M86 1393h154l378 -1233h9l387 1233h151l-450 -1393h-180z" />
<glyph unicode="W" horiz-adv-x="1873" d="M98 1393h154l303 -1229h8l281 1229h184l285 -1229h8l299 1229h156l-365 -1393h-192l-279 1176h-8l-277 -1176h-192z" />
<glyph unicode="X" horiz-adv-x="1181" d="M63 0l445 711l-420 682h166l336 -564l346 564h160l-422 -682l440 -711h-166l-358 594l-359 -594h-168z" />
<glyph unicode="Y" horiz-adv-x="1175" d="M57 1393h160l371 -697l377 697h155l-461 -840v-553h-143v553z" />
<glyph unicode="Z" horiz-adv-x="1175" d="M104 0v133l789 1127h-756v133h922v-133l-787 -1127h783v-133h-951z" />
<glyph unicode="[" horiz-adv-x="673" d="M195 -348v1814h378v-110h-256v-1594h256v-110h-378z" />
<glyph unicode="\" horiz-adv-x="888" d="M55 1393h140l639 -1393h-140z" />
<glyph unicode="]" horiz-adv-x="673" d="M100 -238h256v1594h-256v110h379v-1814h-379v110z" />
<glyph unicode="^" d="M133 598l424 795h115l424 -795h-131l-353 657l-346 -657h-133z" />
<glyph unicode="_" horiz-adv-x="1290" d="M164 -113h962v-82h-962v82z" />
<glyph unicode="`" horiz-adv-x="581" d="M25 1423h155l168 -249h-108z" />
<glyph unicode="a" horiz-adv-x="1105" d="M115 287q0 127 67 206t199 91l395 37v96q0 130 -64 182.5t-184 52.5q-114 0 -179.5 -53t-65.5 -156h-133q0 146 106.5 236t275.5 90q175 0 275 -88.5t100 -267.5v-596h154v-117h-268l-5 203h-6q-43 -110 -128.5 -169t-202.5 -59q-77 0 -144 24.5t-108 68.5q-40 41 -62 99 t-22 120zM256 250q0 -78 57.5 -118t159.5 -40q139 0 221 100t82 263v51l-434 -39q-46 -4 -66 -29t-20 -73v-115z" />
<glyph unicode="b" horiz-adv-x="1198" d="M182 0v1393h133v-529q103 205 342 205q198 0 307 -149t109 -398q0 -164 -46 -286t-141 -191.5t-229 -69.5q-112 0 -202 52.5t-140 152.5v-180h-133zM315 436q0 -152 86.5 -248t231.5 -96q135 0 216 78t81 195v315q0 117 -81 194.5t-216 77.5q-145 0 -231.5 -96 t-86.5 -248v-172z" />
<glyph unicode="c" horiz-adv-x="1071" d="M127 516q0 256 110.5 404.5t317.5 148.5q164 0 273 -92.5t122 -263.5h-133q-10 121 -85.5 180t-186.5 59q-110 0 -192.5 -77t-82.5 -201v-303q0 -119 81 -199t196 -80t193.5 66t84.5 182h133q-13 -120 -72.5 -204t-145 -122.5t-189.5 -38.5q-108 0 -190.5 40.5t-133 114 t-75.5 170.5t-25 216z" />
<glyph unicode="d" horiz-adv-x="1198" d="M125 522q0 249 109 398t307 149q239 0 342 -205v529h133v-1393h-133v180q-50 -100 -138.5 -152.5t-199.5 -52.5q-202 0 -311 148.5t-109 398.5zM268 365q0 -117 81.5 -195t215.5 -78q145 0 231.5 96t86.5 248v172q0 152 -86.5 248t-231.5 96q-134 0 -215.5 -77.5 t-81.5 -194.5v-315z" />
<glyph unicode="e" horiz-adv-x="1099" d="M125 522q0 246 111 396.5t317 150.5q103 0 186 -40.5t135 -110t79.5 -159t27.5 -190.5v-88h-713v-112q0 -123 86.5 -200t202.5 -77q115 0 191.5 57.5t89.5 172.5h133q-18 -162 -135 -254.5t-281 -92.5q-109 0 -192 40.5t-134.5 114t-77.5 172t-26 220.5zM268 598h570v78 q0 125 -82.5 200.5t-202.5 75.5t-202.5 -75.5t-82.5 -200.5v-78z" />
<glyph unicode="f" horiz-adv-x="671" d="M72 928v116h174v349h383v-117h-250v-232h229v-116h-229v-928h-133v928h-174z" />
<glyph unicode="g" horiz-adv-x="1198" d="M125 522q0 249 109 398t307 149q239 0 342 -205v180h133v-1013q0 -105 -35.5 -188.5t-96 -135.5t-137 -79t-161.5 -27q-387 0 -424 317h133q25 -201 283 -201q137 0 221 80t84 232v151q-50 -100 -138.5 -152.5t-199.5 -52.5q-202 0 -311 148.5t-109 398.5zM268 365 q0 -117 81.5 -195t215.5 -78q145 0 231.5 96t86.5 248v172q0 152 -86.5 248t-231.5 96q-134 0 -215.5 -77.5t-81.5 -194.5v-315z" />
<glyph unicode="h" horiz-adv-x="1148" d="M182 0v1393h133v-531q90 207 322 207q160 0 250 -90.5t90 -282.5v-696h-133v676q0 137 -53 206.5t-181 69.5q-129 0 -212 -97.5t-83 -250.5v-604h-133z" />
<glyph unicode="i" horiz-adv-x="497" d="M178 1231v141h141v-141h-141zM182 0v1044h133v-1044h-133z" />
<glyph unicode="j" horiz-adv-x="522" d="M-35 -231h242v1275h133v-1392h-375v117zM203 1231v141h141v-141h-141z" />
<glyph unicode="k" horiz-adv-x="1011" d="M182 0v1393h133v-1393h-133zM319 584l426 460h175l-441 -462l477 -582h-159z" />
<glyph unicode="l" horiz-adv-x="505" d="M186 0v1393h133v-1393h-133z" />
<glyph unicode="m" horiz-adv-x="1716" d="M182 0v1044h133v-182q37 97 110.5 152t182.5 55q111 0 189.5 -55.5t111.5 -169.5q33 103 114 164t196 61q148 0 236.5 -91t88.5 -282v-696h-133v678q0 274 -217 274q-111 0 -187.5 -98.5t-76.5 -249.5v-604h-133v678q0 274 -217 274q-111 0 -188 -98.5t-77 -249.5v-604 h-133z" />
<glyph unicode="n" horiz-adv-x="1148" d="M182 0v1044h133v-182q90 207 322 207q160 0 250 -90.5t90 -282.5v-696h-133v672q0 137 -53.5 208.5t-180.5 71.5q-129 0 -212 -99t-83 -253v-600h-133z" />
<glyph unicode="o" horiz-adv-x="1146" d="M125 522q0 162 47 283t149.5 192.5t251.5 71.5q113 0 199.5 -40.5t140.5 -114.5t81.5 -172.5t27.5 -219.5t-27.5 -219.5t-81.5 -172.5t-140.5 -114.5t-199.5 -40.5q-149 0 -251.5 71.5t-149.5 192.5t-47 283zM268 365q0 -122 86.5 -198.5t218.5 -76.5t219 76.5t87 198.5 v315q0 122 -87 198t-219 76t-218.5 -76t-86.5 -198v-315z" />
<glyph unicode="p" horiz-adv-x="1198" d="M182 -348v1392h133v-180q103 205 342 205q198 0 307 -149t109 -398q0 -164 -46 -286t-141 -191.5t-229 -69.5q-112 0 -202 52.5t-140 152.5v-528h-133zM315 436q0 -152 86.5 -248t231.5 -96q135 0 216 78t81 195v315q0 117 -81 194.5t-216 77.5q-145 0 -231.5 -96 t-86.5 -248v-172z" />
<glyph unicode="q" horiz-adv-x="1198" d="M125 522q0 249 109 398t307 149q239 0 342 -205v180h133v-1392h-133v528q-50 -100 -138.5 -152.5t-199.5 -52.5q-202 0 -311 148.5t-109 398.5zM268 365q0 -117 81.5 -195t215.5 -78q145 0 231.5 96t86.5 248v172q0 152 -86.5 248t-231.5 96q-134 0 -215.5 -77.5 t-81.5 -194.5v-315z" />
<glyph unicode="r" horiz-adv-x="700" d="M182 0v1044h461v-116h-328v-928h-133z" />
<glyph unicode="s" horiz-adv-x="1013" d="M109 319h133q3 -108 81 -167.5t191 -59.5q112 0 185 48t73 134q0 77 -47 117.5t-162 65.5l-172 37q-256 54 -256 282q0 127 101.5 210t261.5 83q72 0 137 -19.5t118 -58t85.5 -102.5t33.5 -146h-133q-3 105 -70 157t-171 52t-169 -48.5t-65 -125.5q0 -73 43 -111.5 t127 -54.5l176 -37q150 -31 222.5 -103t72.5 -196q0 -133 -106 -217t-287 -84q-174 0 -287 91.5t-116 252.5z" />
<glyph unicode="t" horiz-adv-x="710" d="M72 928v116h174v349h133v-349h250v-116h-250v-811h250v-117h-383v928h-174z" />
<glyph unicode="u" horiz-adv-x="1140" d="M172 348v696h133v-673q0 -136 52 -207.5t175 -71.5q127 0 210 99t83 253v600h133v-1044h-133v182q-90 -207 -317 -207q-156 0 -246 91t-90 282z" />
<glyph unicode="v" horiz-adv-x="1015" d="M66 1044h145l293 -849h8l293 849h145l-375 -1044h-135z" />
<glyph unicode="w" horiz-adv-x="1521" d="M76 1044h145l236 -849h8l213 849h170l215 -849h8l234 849h141l-318 -1044h-135l-227 879h-8l-228 -879h-137z" />
<glyph unicode="x" horiz-adv-x="1011" d="M63 0l357 541l-328 503h162l250 -397l254 397h162l-332 -493l362 -551h-162l-282 442l-281 -442h-162z" />
<glyph unicode="y" horiz-adv-x="1044" d="M72 1044h153l297 -849h8l301 849h148l-512 -1392h-313v117h221l84 231z" />
<glyph unicode="z" horiz-adv-x="958" d="M102 0v117l566 811h-535v116h696v-116l-565 -811h588v-117h-750z" />
<glyph unicode="{" horiz-adv-x="749" d="M76 502v114h194v-114h123v-740h256v-110h-379v850h-194zM270 616v850h379v-110h-256v-740h-123z" />
<glyph unicode="|" horiz-adv-x="503" d="M190 -348v2089h123v-2089h-123z" />
<glyph unicode="}" horiz-adv-x="749" d="M100 -238h256v740h123v-850h-379v110zM100 1356v110h379v-850h195v-114h-195v114h-123v740h-256z" />
<glyph unicode="~" d="M111 449q0 98 70.5 157.5t178.5 59.5q66 0 122 -21t173 -82q15 -8 41.5 -21.5t36.5 -18.5l29 -14.5t27 -12.5t22 -8t23 -6.5t21 -3t24 -1.5q54 0 89.5 32t35.5 85h112q0 -98 -71 -157.5t-179 -59.5q-67 0 -123.5 21t-171.5 81q-17 8 -47 24t-40 21t-30.5 15t-29.5 12.5 t-23.5 7t-26.5 5.5t-26 1q-54 0 -89.5 -31.5t-35.5 -84.5h-112z" />
<glyph unicode="&#xa1;" horiz-adv-x="505" d="M166 870v174h174v-174h-174zM186 -348v764l37 305h60l36 -305v-764h-133z" />
<glyph unicode="&#xa2;" d="M205 516q0 238 96 383.5t277 165.5v168h102v-166q146 -12 240.5 -104t107.5 -250h-133q-9 103 -67.5 162t-147.5 73v-852q94 14 155.5 78.5t67.5 165.5h133q-18 -163 -116 -256t-240 -107v-165h-102v168q-126 12 -211.5 85.5t-123.5 186.5t-38 264zM348 371 q0 -106 65 -182.5t165 -94.5v854q-97 -16 -163.5 -89.5t-66.5 -184.5v-303z" />
<glyph unicode="&#xa3;" d="M129 0v121h184v547h-184v120h184v242q0 77 24.5 146.5t71.5 125t123.5 88.5t172.5 33t172 -31t123 -85t71.5 -123.5t24.5 -149.5h-133q0 130 -65 200.5t-191 70.5q-125 0 -193 -75.5t-68 -205.5v-236h365v-120h-365v-547h623v-121h-940z" />
<glyph unicode="&#xa4;" d="M133 197l111 110q-101 128 -101 291t101 291l-111 110l80 80l111 -110q131 100 290 100q160 0 291 -100l111 110l80 -80l-111 -110q100 -131 100 -291t-100 -291l111 -110l-80 -80l-111 110q-127 -100 -291 -100q-163 0 -290 100l-111 -110zM254 598q0 -149 105.5 -254.5 t254.5 -105.5t255 105.5t106 254.5t-106 254.5t-255 105.5t-254.5 -105.5t-105.5 -254.5z" />
<glyph unicode="&#xa5;" d="M129 1393h147l336 -686l340 686h148l-344 -686h270v-101h-346v-141h346v-100h-346v-365h-133v365h-348v100h348v141h-348v101h270z" />
<glyph unicode="&#xa6;" horiz-adv-x="466" d="M172 -348v854h123v-854h-123zM172 887v854h123v-854h-123z" />
<glyph unicode="&#xa7;" horiz-adv-x="1173" d="M221 -227h658v370h-656v1250h787v-119h-654v-371h656v-1249h-791v119zM356 262h523v522h-523v-522z" />
<glyph unicode="&#xa8;" horiz-adv-x="577" d="M47 1212v140h139v-140h-139zM326 1212v140h139v-140h-139z" />
<glyph unicode="&#xa9;" horiz-adv-x="1712" d="M129 696q0 197 97.5 364.5t265 265t364.5 97.5t364.5 -97.5t265 -265t97.5 -364.5t-97.5 -364.5t-265 -265t-364.5 -97.5t-364.5 97.5t-265 265t-97.5 364.5zM219 690q0 -130 50.5 -248t136.5 -204t204 -136.5t248 -50.5t248.5 50.5t204.5 136.5t137 204t51 248 t-51 248.5t-137 204.5t-204.5 137t-248.5 51t-248 -51t-204 -137t-136.5 -204.5t-50.5 -248.5zM569 692q0 173 76 275t215 102q108 0 183.5 -64.5t84.5 -179.5h-94q-6 85 -55.5 124.5t-124.5 39.5q-76 0 -129 -51.5t-53 -138.5v-205q0 -85 52 -138t130 -53q76 0 128 43.5 t58 124.5h95q-13 -120 -90.5 -183.5t-186.5 -63.5q-141 0 -215 101.5t-74 266.5z" />
<glyph unicode="&#xaa;" horiz-adv-x="800" d="M145 823q0 67 42.5 111t121.5 51l174 16v43q0 62 -28 86.5t-82 24.5q-113 0 -113 -98h-96q0 77 60 124.5t151 47.5q92 0 148.5 -46.5t56.5 -138.5v-286h79v-82h-161l-2 100h-4q-45 -112 -170 -112q-88 0 -134 49q-43 46 -43 110zM246 811q0 -72 100 -72q63 0 100 45.5 t37 120.5v25l-192 -19q-45 -3 -45 -51v-49z" />
<glyph unicode="&#xab;" horiz-adv-x="915" d="M129 526l219 381h113l-199 -381l199 -381h-113zM440 526l219 381h113l-199 -381l199 -381h-113z" />
<glyph unicode="&#xac;" d="M88 680v106h1045v-540h-115v434h-930z" />
<glyph unicode="&#xad;" horiz-adv-x="901" d="M164 492v126h573v-126h-573z" />
<glyph unicode="&#xae;" horiz-adv-x="1712" d="M129 696q0 197 97.5 364.5t265 265t364.5 97.5t364.5 -97.5t265 -265t97.5 -364.5t-97.5 -364.5t-265 -265t-364.5 -97.5t-364.5 97.5t-265 265t-97.5 364.5zM219 690q0 -130 50.5 -248t136.5 -204t204 -136.5t248 -50.5t248.5 50.5t204.5 136.5t137 204t51 248 t-51 248.5t-137 204.5t-204.5 137t-248.5 51t-248 -51t-204 -137t-136.5 -204.5t-50.5 -248.5zM616 348v696h299q100 0 153.5 -54t53.5 -156q0 -88 -40.5 -141.5t-114.5 -65.5l161 -279h-106l-152 273h-161v-273h-93zM709 700h235q37 0 56.5 23t19.5 57v109q0 36 -20 56 t-56 20h-235v-265z" />
<glyph unicode="&#xaf;" horiz-adv-x="634" d="M20 1268v88h592v-88h-592z" />
<glyph unicode="&#xb0;" horiz-adv-x="827" d="M127 1137q0 118 84 202t203 84q118 0 202 -83.5t84 -202.5t-84 -203t-202 -84t-202.5 84t-84.5 203zM193 1137q0 -92 64.5 -157t156.5 -65t156.5 65t64.5 157t-64.5 156.5t-156.5 64.5t-156.5 -64.5t-64.5 -156.5z" />
<glyph unicode="&#xb1;" d="M92 0v106h1045v-106h-1045zM92 575v107h465v362h115v-362h465v-107h-465v-362h-115v362h-465z" />
<glyph unicode="&#xb2;" horiz-adv-x="817" d="M160 676v82l297 284q45 44 65.5 79t20.5 79q0 57 -34 91t-97 34q-64 0 -104 -38.5t-40 -104.5h-102q0 106 69.5 166.5t178.5 60.5q107 0 169 -57t62 -154q0 -110 -113 -219l-231 -215v-2h356v-86h-497z" />
<glyph unicode="&#xb3;" horiz-adv-x="784" d="M139 885h101q12 -142 149 -142q66 0 109 32t43 79v68q0 33 -21 55t-57 22h-166v86h152q36 0 56.5 21.5t20.5 54.5v66q0 46 -36.5 72t-92.5 26q-62 0 -97 -32t-40 -89h-102q0 85 67 145t174 60q106 0 168 -54t62 -141q0 -120 -103 -167q117 -41 117 -170 q0 -101 -70.5 -159.5t-183.5 -58.5q-108 0 -177 57t-73 169z" />
<glyph unicode="&#xb4;" horiz-adv-x="581" d="M233 1174l168 249h156l-215 -249h-109z" />
<glyph unicode="&#xb5;" horiz-adv-x="1204" d="M205 -348v1392h133v-698q0 -254 227 -254q127 0 210 99t83 253v600h133v-1044h-133v182q-90 -207 -317 -207q-125 0 -203 78v-401h-133z" />
<glyph unicode="&#xb6;" horiz-adv-x="1189" d="M115 737v656h854v-1577h-123v1470h-260v-1470h-123v921h-348z" />
<glyph unicode="&#xb7;" horiz-adv-x="501" d="M164 438v174h174v-174h-174z" />
<glyph unicode="&#xb8;" horiz-adv-x="593" d="M174 -184h123v112h123v-225h-246v113z" />
<glyph unicode="&#xb9;" horiz-adv-x="618" d="M115 1204v86h227v103h102v-717h-102v528h-227z" />
<glyph unicode="&#xba;" horiz-adv-x="761" d="M139 946q0 128 61.5 205.5t180.5 77.5t180.5 -77.5t61.5 -205.5t-61.5 -205t-180.5 -77t-180.5 77t-61.5 205zM240 862q0 -53 41.5 -87t99.5 -34t99.5 34t41.5 87v168q0 53 -41.5 87t-99.5 34t-99.5 -34t-41.5 -87v-168z" />
<glyph unicode="&#xbb;" horiz-adv-x="915" d="M143 145l199 381l-199 381h113l219 -381l-219 -381h-113zM455 145l198 381l-198 381h112l219 -381l-219 -381h-112z" />
<glyph unicode="&#xbc;" horiz-adv-x="1478" d="M96 1204v86h228v103h102v-717h-102v528h-228zM248 0l872 1393h111l-873 -1393h-110zM844 172v86l325 459h99v-459h114v-86h-114v-172h-103v172h-321zM940 258h225v315h-4z" />
<glyph unicode="&#xbd;" horiz-adv-x="1531" d="M96 1204v86h228v103h102v-717h-102v528h-228zM248 0l872 1393h111l-873 -1393h-110zM922 0v82l297 285q46 44 66 78.5t20 78.5q0 57 -34 91t-97 34q-64 0 -104 -38.5t-40 -104.5h-102q0 106 69.5 166.5t178.5 60.5q107 0 169 -57t62 -154q0 -110 -113 -219l-231 -215v-2 h356v-86h-497z" />
<glyph unicode="&#xbe;" horiz-adv-x="1546" d="M111 885h100q12 -142 149 -142q66 0 109 32t43 79v68q0 33 -21 55t-57 22h-166v86h152q36 0 57 21.5t21 54.5v66q0 46 -36.5 72t-92.5 26q-62 0 -97.5 -32.5t-40.5 -88.5h-102q0 85 67.5 145t174.5 60q106 0 167.5 -54t61.5 -141q0 -120 -102 -167q116 -40 116 -170 q0 -101 -70.5 -159.5t-183.5 -58.5q-108 0 -176.5 57t-72.5 169zM315 0l873 1393h110l-872 -1393h-111zM911 172v86l326 459h98v-459h115v-86h-115v-172h-102v172h-322zM1008 258h225v315h-4z" />
<glyph unicode="&#xbf;" horiz-adv-x="997" d="M92 -6q0 118 48.5 203t133.5 153q53 42 81.5 68t54 58.5t35.5 66t10 75.5v62h133v-62q0 -103 -47 -179t-152 -160q-88 -71 -126 -134t-38 -147q0 -115 72.5 -187.5t194.5 -72.5q129 0 205 77t85 203h133q-13 -181 -130 -289t-296 -108q-176 0 -286.5 106t-110.5 267z M434 870v174h174v-174h-174z" />
<glyph unicode="&#xc0;" horiz-adv-x="1275" d="M70 0l481 1393h174l481 -1393h-153l-123 362h-586l-123 -362h-151zM385 485h504l-246 748h-8zM463 1780h155l168 -250h-108z" />
<glyph unicode="&#xc1;" horiz-adv-x="1275" d="M70 0l481 1393h174l481 -1393h-153l-123 362h-586l-123 -362h-151zM385 485h504l-246 748h-8zM492 1530l167 250h156l-215 -250h-108z" />
<glyph unicode="&#xc2;" horiz-adv-x="1275" d="M70 0l481 1393h174l481 -1393h-153l-123 362h-586l-123 -362h-151zM385 485h504l-246 748h-8zM389 1530l174 250h154l174 -250h-109l-143 180l-143 -180h-107z" />
<glyph unicode="&#xc3;" horiz-adv-x="1275" d="M70 0l481 1393h174l481 -1393h-153l-123 362h-586l-123 -362h-151zM340 1583q0 76 41 119t115 43q45 0 103 -24.5t110.5 -49t83.5 -24.5q73 0 73 77h74q0 -76 -41 -118.5t-115 -42.5q-45 0 -103 24.5t-110.5 49t-83.5 24.5q-73 0 -73 -78h-74zM385 485h504l-246 748h-8z " />
<glyph unicode="&#xc4;" horiz-adv-x="1275" d="M70 0l481 1393h174l481 -1393h-153l-123 362h-586l-123 -362h-151zM385 485h504l-246 748h-8zM430 1569v139h139v-139h-139zM709 1569v139h139v-139h-139z" />
<glyph unicode="&#xc5;" horiz-adv-x="1275" d="M70 0l481 1393h174l481 -1393h-153l-123 362h-586l-123 -362h-151zM385 485h504l-246 748h-8zM457 1712q0 71 49.5 123.5t132.5 52.5t132.5 -52.5t49.5 -123.5q0 -73 -49.5 -124.5t-132.5 -51.5t-132.5 51.5t-49.5 124.5zM530 1712q0 -44 31.5 -76t77.5 -32t76 32t30 76 t-30 75.5t-76 31.5t-77.5 -31.5t-31.5 -75.5z" />
<glyph unicode="&#xc6;" horiz-adv-x="1900" d="M10 0l676 1393h1083v-133h-708v-484h614v-133h-614v-510h708v-133h-851v365h-576l-176 -365h-156zM403 487h515v773h-140z" />
<glyph unicode="&#xc7;" horiz-adv-x="1296" d="M135 684q0 167 33.5 301t100.5 232.5t173.5 152t245.5 53.5q196 0 326.5 -114t150.5 -312h-143q-17 148 -110 220.5t-238 72.5q-163 0 -269 -112.5t-106 -276.5v-409q0 -166 109 -278t262 -112q164 0 259.5 75t110.5 229h144q-17 -199 -150 -318t-346 -119 q-269 0 -411 184t-142 531zM502 -184h123v112h123v-225h-246v113z" />
<glyph unicode="&#xc8;" horiz-adv-x="1206" d="M203 0v1393h872v-133h-729v-484h635v-133h-635v-510h729v-133h-872zM418 1780h155l168 -250h-108z" />
<glyph unicode="&#xc9;" horiz-adv-x="1206" d="M203 0v1393h872v-133h-729v-484h635v-133h-635v-510h729v-133h-872zM514 1530l168 250h156l-215 -250h-109z" />
<glyph unicode="&#xca;" horiz-adv-x="1206" d="M203 0v1393h872v-133h-729v-484h635v-133h-635v-510h729v-133h-872zM397 1530l174 250h154l174 -250h-108l-144 180l-143 -180h-107z" />
<glyph unicode="&#xcb;" horiz-adv-x="1206" d="M203 0v1393h872v-133h-729v-484h635v-133h-635v-510h729v-133h-872zM440 1569v139h140v-139h-140zM719 1569v139h139v-139h-139z" />
<glyph unicode="&#xcc;" horiz-adv-x="548" d="M72 1780h155l168 -250h-108zM203 0v1393h143v-1393h-143z" />
<glyph unicode="&#xcd;" horiz-adv-x="548" d="M176 1530l168 250h156l-215 -250h-109zM203 0v1393h143v-1393h-143z" />
<glyph unicode="&#xce;" horiz-adv-x="548" d="M25 1530l174 250h153l174 -250h-108l-144 180l-143 -180h-106zM203 0v1393h143v-1393h-143z" />
<glyph unicode="&#xcf;" horiz-adv-x="548" d="M63 1569v139h140v-139h-140zM203 0v1393h143v-1393h-143zM342 1569v139h139v-139h-139z" />
<glyph unicode="&#xd0;" horiz-adv-x="1353" d="M61 643v107h146v643h430q298 0 437.5 -169t139.5 -528t-139 -527.5t-438 -168.5h-430v643h-146zM350 133h287q203 0 308.5 94t105.5 265v409q0 171 -105.5 265t-308.5 94h-287v-510h352v-107h-352v-510z" />
<glyph unicode="&#xd1;" horiz-adv-x="1411" d="M203 0v1393h227l629 -1231h8v1231h141v-1393h-227l-629 1233h-8v-1233h-141zM406 1583q0 77 41 119.5t114 42.5q45 0 103 -24.5t110.5 -49t83.5 -24.5q74 0 74 77h74q0 -76 -41 -118.5t-115 -42.5q-45 0 -103 24.5t-110.5 49t-83.5 24.5q-74 0 -74 -78h-73z" />
<glyph unicode="&#xd2;" horiz-adv-x="1425" d="M135 696q0 165 32.5 295.5t100.5 228.5t180.5 150.5t264.5 52.5t264.5 -52.5t180 -150.5t100 -228.5t32.5 -295.5t-32.5 -295.5t-100 -228.5t-180 -150.5t-264.5 -52.5t-264.5 52.5t-180.5 150.5t-100.5 228.5t-32.5 295.5zM299 489q0 -176 116.5 -281.5t297.5 -105.5 q182 0 297.5 104.5t115.5 282.5v414q0 176 -116 281.5t-297 105.5t-297.5 -105.5t-116.5 -281.5v-414zM471 1802h156l168 -250h-109z" />
<glyph unicode="&#xd3;" horiz-adv-x="1425" d="M135 696q0 165 32.5 295.5t100.5 228.5t180.5 150.5t264.5 52.5t264.5 -52.5t180 -150.5t100 -228.5t32.5 -295.5t-32.5 -295.5t-100 -228.5t-180 -150.5t-264.5 -52.5t-264.5 52.5t-180.5 150.5t-100.5 228.5t-32.5 295.5zM299 489q0 -176 116.5 -281.5t297.5 -105.5 q182 0 297.5 104.5t115.5 282.5v414q0 176 -116 281.5t-297 105.5t-297.5 -105.5t-116.5 -281.5v-414zM623 1552l168 250h155l-215 -250h-108z" />
<glyph unicode="&#xd4;" horiz-adv-x="1425" d="M135 696q0 165 32.5 295.5t100.5 228.5t180.5 150.5t264.5 52.5t264.5 -52.5t180 -150.5t100 -228.5t32.5 -295.5t-32.5 -295.5t-100 -228.5t-180 -150.5t-264.5 -52.5t-264.5 52.5t-180.5 150.5t-100.5 228.5t-32.5 295.5zM299 489q0 -176 116.5 -281.5t297.5 -105.5 q182 0 297.5 104.5t115.5 282.5v414q0 176 -116 281.5t-297 105.5t-297.5 -105.5t-116.5 -281.5v-414zM463 1552l174 250h154l174 -250h-109l-143 181l-144 -181h-106z" />
<glyph unicode="&#xd5;" horiz-adv-x="1425" d="M135 696q0 165 32.5 295.5t100.5 228.5t180.5 150.5t264.5 52.5t264.5 -52.5t180 -150.5t100 -228.5t32.5 -295.5t-32.5 -295.5t-100 -228.5t-180 -150.5t-264.5 -52.5t-264.5 52.5t-180.5 150.5t-100.5 228.5t-32.5 295.5zM299 489q0 -176 116.5 -281.5t297.5 -105.5 q182 0 297.5 104.5t115.5 282.5v414q0 176 -116 281.5t-297 105.5t-297.5 -105.5t-116.5 -281.5v-414zM414 1583q0 77 41 119.5t114 42.5q45 0 103 -24.5t110.5 -49t83.5 -24.5q74 0 74 77h74q0 -76 -41 -118.5t-115 -42.5q-45 0 -103 24.5t-110.5 49t-83.5 24.5 q-74 0 -74 -78h-73z" />
<glyph unicode="&#xd6;" horiz-adv-x="1425" d="M135 696q0 165 32.5 295.5t100.5 228.5t180.5 150.5t264.5 52.5t264.5 -52.5t180 -150.5t100 -228.5t32.5 -295.5t-32.5 -295.5t-100 -228.5t-180 -150.5t-264.5 -52.5t-264.5 52.5t-180.5 150.5t-100.5 228.5t-32.5 295.5zM299 489q0 -176 116.5 -281.5t297.5 -105.5 q182 0 297.5 104.5t115.5 282.5v414q0 176 -116 281.5t-297 105.5t-297.5 -105.5t-116.5 -281.5v-414zM504 1591v140h139v-140h-139zM782 1591v140h140v-140h-140z" />
<glyph unicode="&#xd7;" d="M92 82l440 440l-440 441l82 81l440 -440l441 440l80 -81l-441 -441l441 -440l-82 -82l-439 438l-440 -440z" />
<glyph unicode="&#xd8;" horiz-adv-x="1425" d="M135 696q0 165 32.5 295.5t100.5 228.5t180.5 150.5t264.5 52.5q166 0 286 -63l82 164l88 -41l-90 -180q211 -179 211 -607q0 -165 -32.5 -295.5t-100 -228.5t-180 -150.5t-264.5 -52.5q-149 0 -271 56l-75 -156l-88 41l81 166q-225 175 -225 620zM299 489 q0 -179 125 -288l514 1034q-99 55 -225 55q-181 0 -297.5 -105.5t-116.5 -281.5v-414zM504 147q89 -45 209 -45q182 0 297.5 104.5t115.5 282.5v414q0 167 -108 275z" />
<glyph unicode="&#xd9;" horiz-adv-x="1388" d="M190 496v897h144v-912q0 -172 100 -276.5t260 -104.5q161 0 262 104t101 277v912h141v-897q0 -242 -139.5 -384.5t-364.5 -142.5t-364.5 142.5t-139.5 384.5zM483 1780h156l168 -250h-109z" />
<glyph unicode="&#xda;" horiz-adv-x="1388" d="M190 496v897h144v-912q0 -172 100 -276.5t260 -104.5q161 0 262 104t101 277v912h141v-897q0 -242 -139.5 -384.5t-364.5 -142.5t-364.5 142.5t-139.5 384.5zM588 1530l168 250h155l-215 -250h-108z" />
<glyph unicode="&#xdb;" horiz-adv-x="1388" d="M190 496v897h144v-912q0 -172 100 -276.5t260 -104.5q161 0 262 104t101 277v912h141v-897q0 -242 -139.5 -384.5t-364.5 -142.5t-364.5 142.5t-139.5 384.5zM444 1530l174 250h154l174 -250h-108l-144 180l-143 -180h-107z" />
<glyph unicode="&#xdc;" horiz-adv-x="1388" d="M190 496v897h144v-912q0 -172 100 -276.5t260 -104.5q161 0 262 104t101 277v912h141v-897q0 -242 -139.5 -384.5t-364.5 -142.5t-364.5 142.5t-139.5 384.5zM485 1569v139h140v-139h-140zM764 1569v139h139v-139h-139z" />
<glyph unicode="&#xdd;" horiz-adv-x="1175" d="M57 1393h160l371 -697l377 697h155l-461 -840v-553h-143v553zM522 1489l168 250h156l-215 -250h-109z" />
<glyph unicode="&#xde;" horiz-adv-x="1232" d="M203 0v1393h143v-260h383q213 0 304 -101t91 -323q0 -231 -103.5 -335t-309.5 -104h-365v-270h-143zM346 403h430q84 0 139.5 52t55.5 129v243q0 78 -52 125t-143 47h-430v-596z" />
<glyph unicode="&#xdf;" horiz-adv-x="1114" d="M182 0v1044q0 73 28.5 141t79 121t127.5 85t167 32q180 0 280.5 -103t100.5 -263q0 -121 -46 -199t-147 -123q213 -64 213 -346q0 -193 -123.5 -306.5t-331.5 -113.5h-20v119h14q143 0 231.5 67.5t88.5 176.5v188q0 67 -37 111.5t-105 44.5h-192v117h170q69 0 106 39 t37 104v176q0 93 -68.5 144t-170.5 51q-117 0 -193 -69t-76 -194v-1044h-133z" />
<glyph unicode="&#xe0;" horiz-adv-x="1105" d="M115 287q0 127 67 206t199 91l395 37v96q0 130 -64 182.5t-184 52.5q-114 0 -179.5 -53t-65.5 -156h-133q0 146 106.5 236t275.5 90q175 0 275 -88.5t100 -267.5v-596h154v-117h-268l-5 203h-6q-43 -110 -128.5 -169t-202.5 -59q-77 0 -144 24.5t-108 68.5q-40 41 -62 99 t-22 120zM252 1423h156l167 -249h-108zM256 250q0 -78 57.5 -118t159.5 -40q139 0 221 100t82 263v51l-434 -39q-46 -4 -66 -29t-20 -73v-115z" />
<glyph unicode="&#xe1;" horiz-adv-x="1105" d="M115 287q0 127 67 206t199 91l395 37v96q0 130 -64 182.5t-184 52.5q-114 0 -179.5 -53t-65.5 -156h-133q0 146 106.5 236t275.5 90q175 0 275 -88.5t100 -267.5v-596h154v-117h-268l-5 203h-6q-43 -110 -128.5 -169t-202.5 -59q-77 0 -144 24.5t-108 68.5q-40 41 -62 99 t-22 120zM256 250q0 -78 57.5 -118t159.5 -40q139 0 221 100t82 263v51l-434 -39q-46 -4 -66 -29t-20 -73v-115zM459 1174l168 249h155l-215 -249h-108z" />
<glyph unicode="&#xe2;" horiz-adv-x="1105" d="M115 287q0 127 67 206t199 91l395 37v96q0 130 -64 182.5t-184 52.5q-114 0 -179.5 -53t-65.5 -156h-133q0 146 106.5 236t275.5 90q175 0 275 -88.5t100 -267.5v-596h154v-117h-268l-5 203h-6q-43 -110 -128.5 -169t-202.5 -59q-77 0 -144 24.5t-108 68.5q-40 41 -62 99 t-22 120zM256 250q0 -78 57.5 -118t159.5 -40q139 0 221 100t82 263v51l-434 -39q-46 -4 -66 -29t-20 -73v-115zM272 1174l174 249h154l174 -249h-108l-144 180l-143 -180h-107z" />
<glyph unicode="&#xe3;" horiz-adv-x="1105" d="M115 287q0 127 67 206t199 91l395 37v96q0 130 -64 182.5t-184 52.5q-114 0 -179.5 -53t-65.5 -156h-133q0 146 106.5 236t275.5 90q175 0 275 -88.5t100 -267.5v-596h154v-117h-268l-5 203h-6q-43 -110 -128.5 -169t-202.5 -59q-77 0 -144 24.5t-108 68.5q-40 41 -62 99 t-22 120zM231 1235q0 76 41 119t115 43q45 0 103 -24.5t110.5 -49.5t83.5 -25q74 0 74 78h73q0 -77 -41 -119.5t-114 -42.5q-45 0 -103 25t-110.5 49.5t-83.5 24.5q-74 0 -74 -78h-74zM256 250q0 -78 57.5 -118t159.5 -40q139 0 221 100t82 263v51l-434 -39q-46 -4 -66 -29 t-20 -73v-115z" />
<glyph unicode="&#xe4;" horiz-adv-x="1105" d="M115 287q0 127 67 206t199 91l395 37v96q0 130 -64 182.5t-184 52.5q-114 0 -179.5 -53t-65.5 -156h-133q0 146 106.5 236t275.5 90q175 0 275 -88.5t100 -267.5v-596h154v-117h-268l-5 203h-6q-43 -110 -128.5 -169t-202.5 -59q-77 0 -144 24.5t-108 68.5q-40 41 -62 99 t-22 120zM256 250q0 -78 57.5 -118t159.5 -40q139 0 221 100t82 263v51l-434 -39q-46 -4 -66 -29t-20 -73v-115zM315 1212v140h140v-140h-140zM594 1212v140h139v-140h-139z" />
<glyph unicode="&#xe5;" horiz-adv-x="1105" d="M115 287q0 127 67 206t199 91l395 37v96q0 130 -64 182.5t-184 52.5q-114 0 -179.5 -53t-65.5 -156h-133q0 146 106.5 236t275.5 90q175 0 275 -88.5t100 -267.5v-596h154v-117h-268l-5 203h-6q-43 -110 -128.5 -169t-202.5 -59q-77 0 -144 24.5t-108 68.5q-40 41 -62 99 t-22 120zM256 250q0 -78 57.5 -118t159.5 -40q139 0 221 100t82 263v51l-434 -39q-46 -4 -66 -29t-20 -73v-115zM348 1333q0 71 49.5 123.5t132.5 52.5t133 -52.5t50 -123.5q0 -72 -50 -124t-133 -52t-132.5 51.5t-49.5 124.5zM422 1333q0 -44 31 -76t77 -32t76.5 32 t30.5 76t-30.5 75.5t-76.5 31.5t-77 -31.5t-31 -75.5z" />
<glyph unicode="&#xe6;" horiz-adv-x="1720" d="M115 307q0 56 16.5 106.5t49 92.5t87.5 67t125 25h383v119q0 130 -64 182.5t-184 52.5q-114 0 -179.5 -53t-65.5 -156h-133q0 146 106.5 236t275.5 90q243 0 330 -164q53 79 136 121.5t186 42.5q131 0 228 -70.5t143.5 -182t46.5 -247.5v-88h-693v-112q0 -81 42 -146 t105 -98t132 -33q108 0 182.5 58t87.5 172h133q-18 -162 -133 -254.5t-272 -92.5q-236 0 -361 201h-6q-66 -109 -155.5 -155t-212.5 -46q-76 0 -142.5 25.5t-107.5 69.5q-86 89 -86 237zM256 250q0 -78 57.5 -118t159.5 -40q139 0 221 100t82 263v26h-422q-46 0 -72 -27.5 t-26 -74.5v-129zM909 598h549v78q0 124 -81 200t-193 76t-193.5 -76t-81.5 -200v-78z" />
<glyph unicode="&#xe7;" horiz-adv-x="1071" d="M127 516q0 256 110.5 404.5t317.5 148.5q164 0 273 -92.5t122 -263.5h-133q-10 121 -85.5 180t-186.5 59q-110 0 -192.5 -77t-82.5 -201v-303q0 -119 81 -199t196 -80t193.5 66t84.5 182h133q-13 -120 -72.5 -204t-145 -122.5t-189.5 -38.5q-108 0 -190.5 40.5t-133 114 t-75.5 170.5t-25 216zM369 -184h123v112h122v-225h-245v113z" />
<glyph unicode="&#xe8;" horiz-adv-x="1099" d="M125 522q0 246 111 396.5t317 150.5q103 0 186 -40.5t135 -110t79.5 -159t27.5 -190.5v-88h-713v-112q0 -123 86.5 -200t202.5 -77q115 0 191.5 57.5t89.5 172.5h133q-18 -162 -135 -254.5t-281 -92.5q-109 0 -192 40.5t-134.5 114t-77.5 172t-26 220.5zM268 598h570v78 q0 125 -82.5 200.5t-202.5 75.5t-202.5 -75.5t-82.5 -200.5v-78zM301 1423h156l168 -249h-109z" />
<glyph unicode="&#xe9;" horiz-adv-x="1099" d="M125 522q0 246 111 396.5t317 150.5q103 0 186 -40.5t135 -110t79.5 -159t27.5 -190.5v-88h-713v-112q0 -123 86.5 -200t202.5 -77q115 0 191.5 57.5t89.5 172.5h133q-18 -162 -135 -254.5t-281 -92.5q-109 0 -192 40.5t-134.5 114t-77.5 172t-26 220.5zM268 598h570v78 q0 125 -82.5 200.5t-202.5 75.5t-202.5 -75.5t-82.5 -200.5v-78zM489 1174l168 249h156l-215 -249h-109z" />
<glyph unicode="&#xea;" horiz-adv-x="1099" d="M125 522q0 246 111 396.5t317 150.5q103 0 186 -40.5t135 -110t79.5 -159t27.5 -190.5v-88h-713v-112q0 -123 86.5 -200t202.5 -77q115 0 191.5 57.5t89.5 172.5h133q-18 -162 -135 -254.5t-281 -92.5q-109 0 -192 40.5t-134.5 114t-77.5 172t-26 220.5zM268 598h570v78 q0 125 -82.5 200.5t-202.5 75.5t-202.5 -75.5t-82.5 -200.5v-78zM305 1174l174 249h154l174 -249h-109l-143 180l-143 -180h-107z" />
<glyph unicode="&#xeb;" horiz-adv-x="1099" d="M125 522q0 246 111 396.5t317 150.5q103 0 186 -40.5t135 -110t79.5 -159t27.5 -190.5v-88h-713v-112q0 -123 86.5 -200t202.5 -77q115 0 191.5 57.5t89.5 172.5h133q-18 -162 -135 -254.5t-281 -92.5q-109 0 -192 40.5t-134.5 114t-77.5 172t-26 220.5zM268 598h570v78 q0 125 -82.5 200.5t-202.5 75.5t-202.5 -75.5t-82.5 -200.5v-78zM340 1212v140h139v-140h-139zM618 1212v140h140v-140h-140z" />
<glyph unicode="&#xec;" horiz-adv-x="497" d="M59 1423h156l168 -249h-109zM182 0v1044h133v-1044h-133z" />
<glyph unicode="&#xed;" horiz-adv-x="497" d="M147 1174l168 249h156l-215 -249h-109zM182 0v1044h133v-1044h-133z" />
<glyph unicode="&#xee;" horiz-adv-x="497" d="M-2 1174l174 249h154l174 -249h-109l-143 180l-144 -180h-106zM182 0v1044h133v-1044h-133z" />
<glyph unicode="&#xef;" horiz-adv-x="497" d="M41 1212v140h139v-140h-139zM182 0v1044h133v-1044h-133zM319 1212v140h140v-140h-140z" />
<glyph unicode="&#xf0;" horiz-adv-x="1148" d="M127 481q0 224 114 365t304 141q95 0 160 -29l-115 175h-258v81h207l-115 179h147l115 -179h262v-81h-209l125 -183q29 -43 50 -80t50 -99t44.5 -136.5t15.5 -153.5q0 -234 -113 -370t-336 -136t-335.5 136t-112.5 370zM270 360q0 -121 86 -194.5t219 -73.5t219.5 73.5 t86.5 194.5v242q0 120 -87.5 194t-218.5 74q-133 0 -219 -73.5t-86 -194.5v-242z" />
<glyph unicode="&#xf1;" horiz-adv-x="1148" d="M182 0v1044h133v-182q90 207 322 207q160 0 250 -90.5t90 -282.5v-696h-133v672q0 137 -53.5 208.5t-180.5 71.5q-129 0 -212 -99t-83 -253v-600h-133zM276 1235q0 76 41 119t115 43q45 0 103 -24.5t110.5 -49.5t83.5 -25q74 0 74 78h74q0 -76 -41 -119t-115 -43 q-45 0 -103 25t-110.5 49.5t-83.5 24.5q-74 0 -74 -78h-74z" />
<glyph unicode="&#xf2;" horiz-adv-x="1146" d="M125 522q0 162 47 283t149.5 192.5t251.5 71.5q113 0 199.5 -40.5t140.5 -114.5t81.5 -172.5t27.5 -219.5t-27.5 -219.5t-81.5 -172.5t-140.5 -114.5t-199.5 -40.5q-149 0 -251.5 71.5t-149.5 192.5t-47 283zM268 365q0 -122 86.5 -198.5t218.5 -76.5t219 76.5t87 198.5 v315q0 122 -87 198t-219 76t-218.5 -76t-86.5 -198v-315zM297 1423h156l168 -249h-109z" />
<glyph unicode="&#xf3;" horiz-adv-x="1146" d="M125 522q0 162 47 283t149.5 192.5t251.5 71.5q113 0 199.5 -40.5t140.5 -114.5t81.5 -172.5t27.5 -219.5t-27.5 -219.5t-81.5 -172.5t-140.5 -114.5t-199.5 -40.5q-149 0 -251.5 71.5t-149.5 192.5t-47 283zM268 365q0 -122 86.5 -198.5t218.5 -76.5t219 76.5t87 198.5 v315q0 122 -87 198t-219 76t-218.5 -76t-86.5 -198v-315zM508 1174l168 249h155l-215 -249h-108z" />
<glyph unicode="&#xf4;" horiz-adv-x="1146" d="M125 522q0 162 47 283t149.5 192.5t251.5 71.5q113 0 199.5 -40.5t140.5 -114.5t81.5 -172.5t27.5 -219.5t-27.5 -219.5t-81.5 -172.5t-140.5 -114.5t-199.5 -40.5q-149 0 -251.5 71.5t-149.5 192.5t-47 283zM268 365q0 -122 86.5 -198.5t218.5 -76.5t219 76.5t87 198.5 v315q0 122 -87 198t-219 76t-218.5 -76t-86.5 -198v-315zM324 1174l174 249h153l174 -249h-108l-144 180l-143 -180h-106z" />
<glyph unicode="&#xf5;" horiz-adv-x="1146" d="M125 522q0 162 47 283t149.5 192.5t251.5 71.5q113 0 199.5 -40.5t140.5 -114.5t81.5 -172.5t27.5 -219.5t-27.5 -219.5t-81.5 -172.5t-140.5 -114.5t-199.5 -40.5q-149 0 -251.5 71.5t-149.5 192.5t-47 283zM268 365q0 -122 86.5 -198.5t218.5 -76.5t219 76.5t87 198.5 v315q0 122 -87 198t-219 76t-218.5 -76t-86.5 -198v-315zM272 1235q0 76 41 119t115 43q45 0 103 -24.5t110.5 -49.5t83.5 -25q74 0 74 78h73q0 -77 -41 -119.5t-114 -42.5q-45 0 -103 25t-110.5 49.5t-83.5 24.5q-74 0 -74 -78h-74z" />
<glyph unicode="&#xf6;" horiz-adv-x="1146" d="M125 522q0 162 47 283t149.5 192.5t251.5 71.5q113 0 199.5 -40.5t140.5 -114.5t81.5 -172.5t27.5 -219.5t-27.5 -219.5t-81.5 -172.5t-140.5 -114.5t-199.5 -40.5q-149 0 -251.5 71.5t-149.5 192.5t-47 283zM268 365q0 -122 86.5 -198.5t218.5 -76.5t219 76.5t87 198.5 v315q0 122 -87 198t-219 76t-218.5 -76t-86.5 -198v-315zM365 1212v140h139v-140h-139zM643 1212v140h139v-140h-139z" />
<glyph unicode="&#xf7;" d="M92 469v106h1045v-106h-1045zM530 0v170h168v-170h-168zM530 874v170h168v-170h-168z" />
<glyph unicode="&#xf8;" horiz-adv-x="1146" d="M125 522q0 162 47 283t149.5 192.5t251.5 71.5q109 0 195 -39l74 152l88 -43l-78 -162q170 -139 170 -455q0 -121 -27.5 -219.5t-81.5 -172.5t-140.5 -114.5t-199.5 -40.5q-104 0 -192 37l-74 -149l-88 43l78 157q-172 141 -172 459zM268 365q0 -118 80 -195l369 756 q-67 28 -144 28q-132 0 -218.5 -76t-86.5 -198v-315zM432 117q62 -27 141 -27q132 0 219 76.5t87 198.5v315q0 116 -80 190z" />
<glyph unicode="&#xf9;" horiz-adv-x="1140" d="M172 348v696h133v-673q0 -136 52 -207.5t175 -71.5q127 0 210 99t83 253v600h133v-1044h-133v182q-90 -207 -317 -207q-156 0 -246 91t-90 282zM358 1423h156l168 -249h-109z" />
<glyph unicode="&#xfa;" horiz-adv-x="1140" d="M172 348v696h133v-673q0 -136 52 -207.5t175 -71.5q127 0 210 99t83 253v600h133v-1044h-133v182q-90 -207 -317 -207q-156 0 -246 91t-90 282zM467 1174l168 249h156l-216 -249h-108z" />
<glyph unicode="&#xfb;" horiz-adv-x="1140" d="M172 348v696h133v-673q0 -136 52 -207.5t175 -71.5q127 0 210 99t83 253v600h133v-1044h-133v182q-90 -207 -317 -207q-156 0 -246 91t-90 282zM315 1174l174 249h154l174 -249h-108l-144 180l-143 -180h-107z" />
<glyph unicode="&#xfc;" horiz-adv-x="1140" d="M172 348v696h133v-673q0 -136 52 -207.5t175 -71.5q127 0 210 99t83 253v600h133v-1044h-133v182q-90 -207 -317 -207q-156 0 -246 91t-90 282zM356 1212v140h140v-140h-140zM635 1212v140h139v-140h-139z" />
<glyph unicode="&#xfd;" horiz-adv-x="1044" d="M72 1044h153l297 -849h8l301 849h148l-512 -1392h-313v117h221l84 231zM444 1174l168 249h156l-215 -249h-109z" />
<glyph unicode="&#xfe;" horiz-adv-x="1198" d="M182 -348v1741h133v-529q103 205 342 205q198 0 307 -149t109 -398q0 -164 -46 -286t-141 -191.5t-229 -69.5q-112 0 -202 52.5t-140 152.5v-528h-133zM315 436q0 -152 86.5 -248t231.5 -96q135 0 216 78t81 195v315q0 117 -81 194.5t-216 77.5q-145 0 -231.5 -96 t-86.5 -248v-172z" />
<glyph unicode="&#xff;" horiz-adv-x="1044" d="M72 1044h153l297 -849h8l301 849h148l-512 -1392h-313v117h221l84 231zM317 1212v140h140v-140h-140zM596 1212v140h139v-140h-139z" />
<glyph unicode="&#x152;" horiz-adv-x="2129" d="M135 696q0 165 32.5 295.5t100.5 228.5t180.5 150.5t264.5 52.5q266 0 413 -170v140h873v-133h-729v-484h635v-133h-635v-510h729v-133h-873v139q-147 -170 -413 -170q-152 0 -264.5 52.5t-180.5 150.5t-100.5 228.5t-32.5 295.5zM299 489q0 -176 116.5 -281.5 t297.5 -105.5q173 0 293 104t120 271v438q0 167 -120 271t-293 104q-181 0 -297.5 -105.5t-116.5 -281.5v-414z" />
<glyph unicode="&#x153;" horiz-adv-x="1843" d="M125 522q0 162 47 283t149.5 192.5t251.5 71.5q128 0 223 -51t150 -144q116 195 350 195q103 0 186 -40.5t135 -110t79.5 -159t27.5 -190.5v-88h-714v-112q0 -123 87 -200t203 -77q115 0 191.5 57.5t89.5 172.5h133q-18 -162 -135 -254.5t-281 -92.5q-123 0 -213.5 50.5 t-142.5 142.5q-55 -92 -149 -142.5t-220 -50.5q-149 0 -251.5 71.5t-149.5 192.5t-47 283zM268 365q0 -122 86.5 -198.5t218.5 -76.5t219 76.5t87 198.5v315q0 122 -87 198t-219 76t-218.5 -76t-86.5 -198v-315zM1010 598h571v78q0 125 -82.5 200.5t-202.5 75.5t-203 -75.5 t-83 -200.5v-78z" />
<glyph unicode="&#x178;" horiz-adv-x="1175" d="M57 1393h160l371 -697l377 697h155l-461 -840v-553h-143v553zM379 1569v139h139v-139h-139zM657 1569v139h140v-139h-140z" />
<glyph unicode="&#x2c6;" horiz-adv-x="585" d="M41 1174l174 249h154l174 -249h-109l-143 180l-144 -180h-106z" />
<glyph unicode="&#x2dc;" horiz-adv-x="606" d="M4 1235q0 76 41 119t115 43q45 0 103 -24.5t110.5 -49.5t83.5 -25q73 0 73 78h74q0 -77 -41 -119.5t-114 -42.5q-45 0 -103 25t-110.5 49.5t-83.5 24.5q-74 0 -74 -78h-74z" />
<glyph unicode="&#x2000;" horiz-adv-x="944" />
<glyph unicode="&#x2001;" horiz-adv-x="1888" />
<glyph unicode="&#x2002;" horiz-adv-x="944" />
<glyph unicode="&#x2003;" horiz-adv-x="1888" />
<glyph unicode="&#x2004;" horiz-adv-x="629" />
<glyph unicode="&#x2005;" horiz-adv-x="472" />
<glyph unicode="&#x2006;" horiz-adv-x="314" />
<glyph unicode="&#x2007;" horiz-adv-x="314" />
<glyph unicode="&#x2008;" horiz-adv-x="236" />
<glyph unicode="&#x2009;" horiz-adv-x="377" />
<glyph unicode="&#x200a;" horiz-adv-x="104" />
<glyph unicode="&#x2010;" horiz-adv-x="901" d="M164 492v126h573v-126h-573z" />
<glyph unicode="&#x2011;" horiz-adv-x="901" d="M164 492v126h573v-126h-573z" />
<glyph unicode="&#x2012;" horiz-adv-x="901" d="M164 492v126h573v-126h-573z" />
<glyph unicode="&#x2013;" horiz-adv-x="1290" d="M164 492v126h962v-126h-962z" />
<glyph unicode="&#x2014;" horiz-adv-x="2252" d="M164 492v126h1925v-126h-1925z" />
<glyph unicode="&#x2018;" horiz-adv-x="499" d="M160 1044v175l100 174h74l-94 -174h94v-175h-174z" />
<glyph unicode="&#x2019;" horiz-adv-x="483" d="M166 1044l94 175h-94v174h174v-174l-100 -175h-74z" />
<glyph unicode="&#x201a;" horiz-adv-x="501" d="M164 0v174h174v-174l-100 -174h-74l94 174h-94z" />
<glyph unicode="&#x201c;" horiz-adv-x="827" d="M160 1044v175l100 174h74l-94 -174h94v-175h-174zM487 1044v175l101 174h74l-95 -174h95v-175h-175z" />
<glyph unicode="&#x201d;" horiz-adv-x="811" d="M166 1044l94 175h-94v174h174v-174l-100 -175h-74zM494 1044l94 175h-94v174h174v-174l-101 -175h-73z" />
<glyph unicode="&#x201e;" horiz-adv-x="829" d="M164 0v174h174v-174l-100 -174h-74l94 174h-94zM492 0v174h174v-174l-101 -174h-73l94 174h-94z" />
<glyph unicode="&#x2022;" horiz-adv-x="1091" d="M199 696q0 145 100.5 246.5t245.5 101.5t246.5 -101.5t101.5 -246.5t-101.5 -245.5t-246.5 -100.5t-245.5 100.5t-100.5 245.5z" />
<glyph unicode="&#x2026;" horiz-adv-x="1546" d="M164 0v174h174v-174h-174zM686 0v174h174v-174h-174zM1208 0v174h174v-174h-174z" />
<glyph unicode="&#x202f;" horiz-adv-x="377" />
<glyph unicode="&#x2039;" horiz-adv-x="604" d="M129 526l219 381h113l-199 -381l199 -381h-113z" />
<glyph unicode="&#x203a;" horiz-adv-x="604" d="M143 145l199 381l-199 381h113l219 -381l-219 -381h-113z" />
<glyph unicode="&#x205f;" horiz-adv-x="472" />
<glyph unicode="&#x20ac;" d="M61 526l35 101h109v145h-144l35 100h117q14 124 46 220t88.5 172.5t147 117.5t212.5 41q182 0 293 -103.5t128 -283.5h-133q-31 269 -305 269q-161 0 -246.5 -111.5t-85.5 -282.5v-39h463l-35 -100h-428v-145h381l-34 -101h-347v-45q0 -167 90 -280t244 -113 q139 0 214.5 71t90.5 216h133q-17 -190 -132 -298t-304 -108q-218 0 -337.5 146t-143.5 411h-152z" />
<glyph unicode="&#x2122;" horiz-adv-x="1712" d="M143 1307v86h521v-86h-209v-611h-103v611h-209zM801 696v697h182l184 -541l185 541h178v-697h-103v607l-217 -607h-92l-215 607v-607h-102z" />
<glyph unicode="&#x25fc;" horiz-adv-x="1044" d="M0 0v1044h1044v-1044h-1044z" />
</font>
</defs>
</svg>
