<?xml version="1.0" encoding="utf-8"?>
<!-- Generator: Adobe Illustrator 19.0.0, SVG Export Plug-In . SVG Version: 6.00 Build 0)  -->
<!DOCTYPE svg PUBLIC "-//W3C//DTD SVG 1.1//EN" "http://www.w3.org/Graphics/SVG/1.1/DTD/svg11.dtd">
<svg version="1.1" id="Calque_1" xmlns="http://www.w3.org/2000/svg" xmlns:xlink="http://www.w3.org/1999/xlink" x="0px" y="0px"
	 viewBox="0 0 60 60" enable-background="new 0 0 60 60" xml:space="preserve">
<path id="XMLID_2_" fill="#1D1D1B" d="M34,21.3v5.9c0,1.6,1.4,2.3,2.6,2.3c1.7,0,4.1-1.8,4.1-5.9c0-1.9-0.7-3.6-2.1-4.8
	c-1.3-1.1-3-1.8-5.1-1.8h-2.3c0,0,0,0.2,0,0.2c0,0-0.1,0.1-0.1,0.1C32.8,17.6,34,19.2,34,21.3z"/>
<path id="XMLID_35_" fill="#1D1D1B" d="M38.6,40.9c1.3-1.3,2.1-3.1,2.1-5c0-3.8-2.2-5.2-4.1-5.2c-1,0-2.6,0.8-2.6,2.5v5.8
	c0,2-1.2,3.6-3.1,3.9c0,0,0,0.1,0,0.1c0,0,0.1,0.1,0.1,0.1h2.3C35.4,43,37.3,42.2,38.6,40.9z"/>
<path id="XMLID_36_" fill="#1D1D1B" d="M28,41.7c-0.7-0.7-1-1.7-1-2.8v-3.5c0,0,0,0,0,0v-1.9c0-1.8-1.2-3.1-3-3.4
	c1.9-0.3,3-1.6,3-3.4V24c0,0,0,0,0,0v-2.7c0-1,0.3-2,1-2.8c0.7-0.7,1.2-1,2-1.1c0,0,0-0.2,0-0.2c0,0-0.1-0.2-0.1-0.2H18.1
	c0,0,0,0.2,0,0.2c0,0,0,0.1,0,0.1c0.8,0.1,1.4,0.5,1.9,1.1c0.7,0.7,1,1.7,1,2.7v18c0,1-0.2,2-1,2.7c-0.6,0.6-1.2,0.9-2,1
	c0,0,0,0.1,0,0.1c0,0,0.1,0.1,0.1,0.1H30c0,0,0-0.1,0-0.1c0,0,0.1-0.1,0-0.1C29.3,42.7,28.7,42.3,28,41.7z"/>
<path id="XMLID_39_" fill="#1D1D1B" d="M6.2,21.5c0.4-1,0.2-1.8-1-2.2c-0.7-0.2-1.2,0-1.6,0.5c0-0.6-0.3-1-0.9-1.2
	c-1-0.3-1.6,0.2-1.9,1.2L0,21.9l5.4,1.8L6.2,21.5z M3,20.3l-0.5,1.4l-1.3-0.4l0.5-1.4c0.1-0.3,0.3-0.4,0.6-0.3l0.4,0.1
	C3,19.8,3.1,19.9,3,20.3z M4.9,22.4l-1.5-0.5l0.5-1.5C4,20.2,4.2,20,4.5,20.2l0.5,0.2c0.3,0.1,0.4,0.3,0.3,0.7L4.9,22.4z"/>
<polygon id="XMLID_45_" fill="#1D1D1B" points="8.4,17.1 9,16.2 7.2,15 5.3,11.5 4.6,12.5 5.9,14.8 3.3,14.5 2.6,15.5 6.6,15.9 "/>
<polygon id="XMLID_46_" fill="#1D1D1B" points="11,7.2 13.8,11 14.7,10.4 11.9,6.6 13.2,5.6 12.7,4.9 9.1,7.5 9.6,8.2 "/>
<polygon id="XMLID_47_" fill="#1D1D1B" points="18.5,8.1 17.6,5.9 19.7,5 20.6,7.2 21.6,6.8 19.4,1.6 18.4,2 19.3,4.2 17.2,5 
	16.3,2.9 15.3,3.3 17.5,8.5 "/>
<polygon id="XMLID_48_" fill="#1D1D1B" points="27.7,5.6 27.5,4.7 24.7,5.2 24.5,3.7 26.9,3.3 26.8,2.4 24.3,2.8 24.1,1.4 26.9,1 
	26.8,0.1 22.9,0.7 23.8,6.2 "/>
<polygon id="XMLID_49_" fill="#1D1D1B" points="36.9,2.2 36.9,2.2 36.5,6.7 37.9,7.1 40.8,2.1 39.7,1.7 37.6,5.8 37.5,5.8 38,1.2 
	36.5,0.8 34.5,4.9 34.4,4.9 34.8,0.3 33.7,0 33.4,5.8 34.8,6.2 "/>
<path id="XMLID_52_" fill="#1D1D1B" d="M41.2,8.6l0.9-0.8l1.7,1l-0.3,1.2l1,0.6l1.2-5.8l-1-0.6L40.2,8L41.2,8.6z M44.6,5.5L44.6,5.5
	L44,7.8l-1.2-0.7L44.6,5.5z"/>
<polygon id="XMLID_55_" fill="#1D1D1B" points="48.7,11.5 52.5,10.4 51.7,9.6 49.1,10.4 50,7.9 49.1,7 48,10.7 46.4,12.3 47.2,13.1 
	"/>
<path id="XMLID_56_" fill="#1D1D1B" d="M51.7,19.9c0.5,1.1,1.4,1.6,2.7,1.2l-0.5-1c-0.7,0.2-1.1,0-1.3-0.6c-0.3-0.6-0.1-1.3,0.6-1.6
	l1.6-0.7c0.6-0.3,1.3,0,1.6,0.6c0.3,0.6,0.2,1-0.4,1.4l0.5,1c1-0.5,1.3-1.6,0.8-2.6c-0.7-1.5-2.1-1.7-3.8-0.9
	C51.9,17.2,51,18.4,51.7,19.9z"/>
<path id="XMLID_59_" fill="#1D1D1B" d="M56.2,23c-1.9,0.3-2.8,1.3-2.6,2.9c0.2,1.6,1.4,2.3,3.3,2c1.9-0.3,2.8-1.3,2.6-2.9
	C59.3,23.4,58.2,22.7,56.2,23z M58.6,25.1c0.1,0.7-0.2,1.4-1,1.5l-1.7,0.3c-0.7,0.1-1.3-0.4-1.4-1.2c-0.1-0.7,0.2-1.4,1-1.5l1.7-0.3
	C58,23.9,58.5,24.4,58.6,25.1z"/>
<polygon id="XMLID_62_" fill="#1D1D1B" points="59.8,32.9 60,31.1 54.3,30.4 54.2,31.4 58.7,32 58.7,32 54,32.5 53.9,33.8 
	58.2,35.6 58.2,35.6 53.7,35 53.5,36 59.2,36.8 59.4,35 55.2,33.4 55.2,33.3 "/>
<polygon id="XMLID_63_" fill="#1D1D1B" points="52.5,39.1 56.5,41.2 56.5,41.2 52,40.2 51.3,41.3 54.8,44.4 54.8,44.5 50.8,42.4 
	50.3,43.3 55.4,45.9 56.2,44.3 52.7,41.3 52.7,41.3 57.2,42.4 58.1,40.8 53,38.2 "/>
<path id="XMLID_64_" fill="#1D1D1B" d="M47.4,46.6c-1,1-1,2.1-0.1,3.1l2.6,2.6l0.8-0.8l-2.6-2.6c-0.5-0.5-0.6-1.1,0-1.6
	c0.5-0.5,1.1-0.5,1.7,0l2.6,2.6l0.8-0.8l-2.6-2.6C49.6,45.6,48.4,45.6,47.4,46.6z"/>
<polygon id="XMLID_65_" fill="#1D1D1B" points="43.4,50.3 45.6,54 45.6,54 41.9,51.1 40.5,52 43.4,56.8 44.3,56.3 42.1,52.6 
	42.1,52.5 45.8,55.4 47.2,54.6 44.3,49.7 "/>
<polygon id="XMLID_66_" fill="#1D1D1B" points="37.3,53.2 39.3,58.5 40.3,58.1 38.4,52.8 "/>
<path id="XMLID_67_" fill="#1D1D1B" d="M33.1,54.1c-1.2,0.2-2,0.9-2,2.2l1.1-0.2c0-0.7,0.3-1,1-1.1c0.7-0.1,1.3,0.3,1.4,1l0.3,1.7
	c0.1,0.7-0.3,1.2-1,1.3c-0.6,0.1-1.1-0.1-1.2-0.7l-1.1,0.2c0.2,1.1,1.2,1.6,2.4,1.5c1.6-0.2,2.2-1.5,2-3.3
	C35.6,54.9,34.7,53.8,33.1,54.1z"/>
<path id="XMLID_70_" fill="#1D1D1B" d="M27.9,55.6l-1.9-0.2l-0.3-1.2l-1.2-0.1l1.4,5.8l1.2,0.1l2.4-5.4l-1.2-0.1L27.9,55.6z
	 M26.6,58.7L26.6,58.7l-0.5-2.3l1.4,0.1L26.6,58.7z"/>
<polygon id="XMLID_73_" fill="#1D1D1B" points="21.2,53.1 19.6,57.5 18,57 17.7,57.9 21.9,59.3 22.2,58.4 20.6,57.9 22.2,53.4 "/>
<polygon id="XMLID_74_" fill="#1D1D1B" points="17.1,51.3 14.2,56.1 15.2,56.6 18.1,51.8 "/>
<path id="XMLID_77_" fill="#1D1D1B" d="M13.5,48.6c-1.2-1.1-2.6-0.9-3.9,0.5c-1.3,1.4-1.3,2.8-0.1,3.9c1.2,1.1,2.6,0.9,3.9-0.5
	C14.7,51,14.7,49.7,13.5,48.6z M13.1,51l-1.2,1.3c-0.5,0.6-1.2,0.5-1.8,0c-0.6-0.5-0.7-1.2-0.2-1.8l1.2-1.3c0.5-0.6,1.2-0.5,1.8,0
	C13.4,49.8,13.6,50.5,13.1,51z"/>
<polygon id="XMLID_80_" fill="#1D1D1B" points="9.5,44.7 5.9,47 5.9,47 8.6,43.2 7.6,41.9 2.9,45 3.5,45.9 7.1,43.5 7.1,43.6 
	4.4,47.3 5.3,48.7 10.1,45.6 "/>
<path id="XMLID_81_" fill="#1D1D1B" d="M3.8,39.6l-0.1-1.1c0-0.5,0.1-0.8,0.5-1c0.5-0.2,0.9,0.2,1.1,0.8c0.2,0.6,0.1,1.1-0.5,1.4
	l0.4,1c1.2-0.5,1.4-1.6,0.9-2.8c-0.4-1.2-1.3-1.8-2.3-1.5c-0.9,0.3-1.2,0.9-1.1,1.9l0.1,1c0,0.6-0.1,0.9-0.5,1
	c-0.4,0.1-0.8-0.1-1-0.7c-0.2-0.5-0.2-1,0.4-1.3l-0.4-1C0.3,38,0.1,39,0.5,40c0.4,1.2,1.3,1.7,2.2,1.4C3.5,41.2,3.9,40.6,3.8,39.6z"
	/>
<path id="XMLID_82_" fill="#1D1D1B" d="M1,30.2c0,0.7,0.6,1.2,1.2,1.2c0.7,0,1.2-0.5,1.2-1.2S2.9,29,2.2,29C1.5,29,1,29.5,1,30.2z"
	/>
</svg>
