
	<svg  version="1.1" id="btwslogo" xmlns="http://www.w3.org/2000/svg" xmlns:xlink="http://www.w3.org/1999/xlink" x="0px" y="0px"
	viewBox="0 0 140 160" enable-background="new 0 0 140 160" xml:space="preserve">
		<path  stroke-miterlimit="10" d="M55.3,127.2v-18.7h-0.1V98.3c0-10.8-7.6-17.3-17.3-18.3
		c9.9-1,17.3-7.5,17.3-18.3V47.4h0.1V32.8c0-5.7,2.2-11,6.1-15c3.3-3.3,6.4-5.5,11-6.2H10c4.3,0.7,8.2,2.6,11.3,5.6
		c3.9,3.8,6.1,9,6.1,14.5v45.2v6.1v45.2c0,5.5-2.2,10.7-6.1,14.5c-3.1,3-7,5-11.3,5.6h62.6c-4.5-0.7-7.9-2.8-11.2-6.2
		C57.5,138.2,55.3,132.8,55.3,127.2z"/>
		<path  stroke-miterlimit="10" d="M90.7,11.6H78.7c10.4,1.6,17.1,10.6,17.1,21.2v31.6
		c0,8.6,6.7,12.4,12.7,12.4c9.5,0,21.6-10.4,21.6-31.3C130,24.5,113,11.6,90.7,11.6z"/>
		<path  stroke-miterlimit="10" d="M90.7,148.4H78.5c10.4-1.6,17.3-10.6,17.3-21.2V96.3
		c0-8.6,6.9-13.1,12.7-13.1c9.5,0,21.6,6.6,21.6,27.5C130,131.7,113,148.4,90.7,148.4z"/>


	</svg>
